WreatheSystem-Regular-test.sfdir
StartChar: uni0006
Encoding: 6 6 9
Width: 790
Flags: W
LayerCount: 2
Fore
SplineSet
469 254 m 1,0,1
 474 245 474 245 475 245 c 1,2,3
 475 242 475 242 463 232 c 0,4,5
 442 214 442 214 417 212 c 0,6,7
 381 210 381 210 353.5 231 c 128,-1,8
 326 252 326 252 318.5 283.5 c 128,-1,9
 311 315 311 315 324 350 c 0,10,11
 335 375 335 375 358 389.5 c 128,-1,12
 381 404 381 404 409 404 c 0,13,14
 424 404 424 404 434 400 c 0,15,16
 435 399 435 399 439 398 c 2,17,-1
 446 395 l 2,18,19
 448 394 448 394 451 394 c 0,20,21
 457 395 457 395 457 404 c 1,22,-1
 471 404 l 1,23,-1
 471 339 l 1,24,-1
 457 339 l 1,25,26
 457 368 457 368 429.5 380.5 c 128,-1,27
 402 393 402 393 380 375 c 0,28,29
 358 358 358 358 352 327 c 128,-1,30
 346 296 346 296 358 271 c 0,31,32
 367 250 367 250 383.5 238.5 c 128,-1,33
 400 227 400 227 421 230 c 0,34,35
 439 233 439 233 453 242 c 0,36,37
 455 243 455 243 460.5 247.5 c 128,-1,38
 466 252 466 252 469 254 c 1,0,1
491 187 m 1,39,-1
 580 187 l 1,40,-1
 580 178 l 1,41,42
 565 178 565 178 561 174 c 0,43,44
 554 168 554 168 554 150 c 2,45,-1
 554 101 l 1,46,-1
 602 150 l 2,47,48
 620 168 620 168 621 177 c 1,49,-1
 606 177 l 1,50,-1
 606 187 l 1,51,-1
 682 187 l 1,52,-1
 682 178 l 1,53,54
 667 178 667 178 657 171.5 c 128,-1,55
 647 165 647 165 633 151 c 2,56,-1
 617 134 l 1,57,-1
 598 114 l 2,58,59
 589 106 589 106 580 99 c 1,60,61
 590 92 590 92 600.5 81.5 c 128,-1,62
 611 71 611 71 623.5 57 c 128,-1,63
 636 43 636 43 642 37 c 2,64,-1
 648 31 l 1,65,-1
 656 24 l 2,66,67
 658 21 658 21 662 17.5 c 128,-1,68
 666 14 666 14 670 12 c 128,-1,69
 674 10 674 10 679 9 c 0,70,71
 681 8 681 8 695 8 c 1,72,-1
 695 -2 l 1,73,-1
 606 -2 l 1,74,-1
 606 7 l 1,75,-1
 620 8 l 1,76,77
 616 17 616 17 608 25.5 c 128,-1,78
 600 34 600 34 588 44.5 c 128,-1,79
 576 55 576 55 572 59 c 2,80,-1
 570 62 l 1,81,-1
 566 66 l 1,82,-1
 562 70 l 2,83,84
 560 72 560 72 558 72.5 c 128,-1,85
 556 73 556 73 555 73 c 0,86,87
 553 72 553 72 553 67.5 c 128,-1,88
 553 63 553 63 553.5 57 c 128,-1,89
 554 51 554 51 554 50 c 0,90,91
 554 48 554 48 553.5 42 c 128,-1,92
 553 36 553 36 553 32 c 128,-1,93
 553 28 553 28 554 23 c 128,-1,94
 555 18 555 18 557.5 14.5 c 128,-1,95
 560 11 560 11 564 9 c 0,96,97
 566 8 566 8 580 8 c 1,98,-1
 580 -2 l 1,99,-1
 491 -2 l 1,100,-1
 491 7 l 1,101,102
 512 7 512 7 517 20 c 0,103,104
 518 24 518 24 518.5 30 c 128,-1,105
 519 36 519 36 518.5 43.5 c 128,-1,106
 518 51 518 51 518 54 c 2,107,-1
 518 126 l 2,108,109
 518 129 518 129 518.5 138 c 128,-1,110
 519 147 519 147 518.5 154 c 128,-1,111
 518 161 518 161 516 165 c 0,112,113
 513 173 513 173 507.5 175 c 128,-1,114
 502 177 502 177 491 177 c 1,115,-1
 491 187 l 1,39,-1
189 567 m 1,116,-1
 165 509 l 1,117,-1
 214 509 l 1,118,-1
 191 567 l 1,119,-1
 189 567 l 1,116,-1
89 438 m 1,120,121
 101 438 101 438 109 444 c 128,-1,122
 117 450 117 450 120.5 456 c 128,-1,123
 124 462 124 462 130 476 c 2,124,-1
 171 574 l 1,125,-1
 184 607 l 2,126,127
 188 618 188 618 191 618 c 0,128,129
 195 621 195 621 199 619 c 128,-1,130
 203 617 203 617 205 617 c 128,-1,131
 207 617 207 617 209.5 612.5 c 128,-1,132
 212 608 212 608 213 606.5 c 128,-1,133
 214 605 214 605 216 599.5 c 128,-1,134
 218 594 218 594 219 593 c 2,135,-1
 258 499 l 1,136,-1
 271 468 l 2,137,138
 275 459 275 459 273 457 c 0,139,140
 282 439 282 439 307 439 c 1,141,-1
 307 428 l 1,142,-1
 218 428 l 1,143,-1
 218 438 l 1,144,145
 228 438 228 438 230 439 c 0,146,147
 234 440 234 440 236 443 c 128,-1,148
 238 446 238 446 237 450.5 c 128,-1,149
 236 455 236 455 235 458 c 2,150,-1
 232 467 l 1,151,-1
 229 473 l 2,152,153
 229 474 229 474 227 478.5 c 128,-1,154
 225 483 225 483 224 485.5 c 128,-1,155
 223 488 223 488 220.5 490 c 128,-1,156
 218 492 218 492 215 492 c 2,157,-1
 175 492 l 2,158,159
 161 492 161 492 160 491 c 0,160,161
 159 491 159 491 154 479 c 0,162,163
 153 478 153 478 150.5 472.5 c 128,-1,164
 148 467 148 467 147 464 c 128,-1,165
 146 461 146 461 144.5 456 c 128,-1,166
 143 451 143 451 144 447 c 128,-1,167
 145 443 145 443 148 441 c 0,168,169
 150 439 150 439 164 439 c 1,170,-1
 164 428 l 1,171,-1
 89 428 l 1,172,-1
 89 438 l 1,120,121
EndSplineSet
EndChar
StartChar: uni000C
Encoding: 12 12 13
Width: 790
Flags: W
LayerCount: 2
Fore
SplineSet
396 295 m 1,0,-1
 513 295 l 1,1,-1
 544 295 l 1,2,-1
 556 294 l 1,3,-1
 561 281 l 1,4,-1
 570 244 l 1,5,-1
 556 244 l 1,6,7
 549 269 549 269 535 276 c 0,8,9
 533 277 533 277 512 277 c 2,10,-1
 458 277 l 1,11,-1
 458 208 l 2,12,13
 461 208 461 208 473 207.5 c 128,-1,14
 485 207 485 207 492.5 207 c 128,-1,15
 500 207 500 207 509 210 c 128,-1,16
 518 213 518 213 521 219 c 0,17,18
 523 222 523 222 523 236 c 1,19,-1
 537 236 l 1,20,-1
 537 165 l 1,21,-1
 523 165 l 1,22,23
 523 178 523 178 521 181 c 0,24,25
 518 187 518 187 509 190 c 128,-1,26
 500 193 500 193 492.5 193 c 128,-1,27
 485 193 485 193 473 192.5 c 128,-1,28
 461 192 461 192 458 192 c 2,29,-1
 458 143 l 2,30,31
 458 124 458 124 467 118 c 0,32,33
 471 115 471 115 484 115 c 1,34,-1
 484 106 l 1,35,-1
 396 106 l 1,36,-1
 396 115 l 1,37,38
 416 115 416 115 422 128 c 0,39,40
 424 133 424 133 424 140 c 128,-1,41
 424 147 424 147 423.5 156 c 128,-1,42
 423 165 423 165 423 168 c 2,43,-1
 423 238 l 2,44,45
 423 240 423 240 423.5 248 c 128,-1,46
 424 256 424 256 423.5 261.5 c 128,-1,47
 423 267 423 267 422 272 c 0,48,49
 417 285 417 285 396 285 c 1,50,-1
 396 295 l 1,0,-1
221 510 m 1,51,-1
 338 510 l 1,52,-1
 368 510 l 1,53,-1
 380 509 l 1,54,-1
 385 495 l 1,55,-1
 396 459 l 1,56,-1
 381 459 l 1,57,58
 374 484 374 484 359 491 c 0,59,60
 357 492 357 492 337 492 c 2,61,-1
 282 492 l 1,62,-1
 282 424 l 2,63,64
 285 424 285 424 297 423 c 128,-1,65
 309 422 309 422 316.5 422 c 128,-1,66
 324 422 324 422 333 425 c 128,-1,67
 342 428 342 428 345 434 c 0,68,69
 347 437 347 437 347 451 c 1,70,-1
 361 451 l 1,71,-1
 361 380 l 1,72,-1
 347 380 l 1,73,74
 347 393 347 393 345 397 c 0,75,76
 342 403 342 403 333 405.5 c 128,-1,77
 324 408 324 408 316.5 408.5 c 128,-1,78
 309 409 309 409 297 408 c 128,-1,79
 285 407 285 407 282 407 c 2,80,-1
 282 358 l 2,81,82
 282 339 282 339 291 333 c 0,83,84
 295 330 295 330 308 331 c 1,85,-1
 308 321 l 1,86,-1
 221 321 l 1,87,-1
 221 331 l 1,88,89
 241 331 241 331 246 344 c 0,90,91
 248 349 248 349 248 355.5 c 128,-1,92
 248 362 248 362 247.5 371 c 128,-1,93
 247 380 247 380 247 383 c 2,94,-1
 247 454 l 2,95,96
 247 456 247 456 247.5 464 c 128,-1,97
 248 472 248 472 247.5 477.5 c 128,-1,98
 247 483 247 483 246 487 c 0,99,100
 241 500 241 500 221 500 c 1,101,-1
 221 510 l 1,51,-1
EndSplineSet
EndChar
StartChar: uni0010
Encoding: 16 16 16
Width: 790
Flags: W
LayerCount: 2
Fore
SplineSet
308 403 m 1,0,-1
 396 403 l 1,1,-1
 396 393 l 1,2,3
 374 393 374 393 370 377 c 0,4,5
 369 371 369 371 369 363 c 128,-1,6
 369 355 369 355 369.5 344.5 c 128,-1,7
 370 334 370 334 370 330 c 2,8,-1
 370 230 l 1,9,-1
 422 230 l 2,10,11
 444 230 444 230 446 232 c 0,12,13
 454 235 454 235 464 253 c 0,14,15
 469 262 469 262 469 263 c 0,16,17
 470 264 470 264 483 264 c 1,18,-1
 468 213 l 1,19,-1
 308 213 l 1,20,-1
 308 223 l 1,21,22
 328 223 328 223 333 236 c 0,23,24
 335 241 335 241 335.5 247.5 c 128,-1,25
 336 254 336 254 335.5 263 c 128,-1,26
 335 272 335 272 335 275 c 2,27,-1
 335 346 l 2,28,29
 335 348 335 348 335.5 356.5 c 128,-1,30
 336 365 336 365 335.5 370 c 128,-1,31
 335 375 335 375 333 380 c 0,32,33
 330 388 330 388 324.5 390 c 128,-1,34
 319 392 319 392 308 392 c 1,35,-1
 308 403 l 1,0,-1
506 187 m 1,36,-1
 666 187 l 1,37,-1
 680 136 l 1,38,39
 668 136 668 136 667 137 c 2,40,-1
 662 147 l 2,41,42
 652 166 652 166 644 169 c 0,43,44
 641 170 641 170 620 170 c 2,45,-1
 568 170 l 1,46,-1
 568 101 l 1,47,-1
 608 101 l 2,48,49
 624 101 624 101 630 110 c 0,50,51
 633 114 633 114 633 128 c 1,52,-1
 647 128 l 1,53,-1
 647 57 l 1,54,-1
 633 57 l 1,55,56
 633 70 633 70 630 75 c 0,57,58
 624 84 624 84 608 84 c 2,59,-1
 568 84 l 1,60,-1
 568 15 l 1,61,-1
 620 15 l 2,62,63
 642 15 642 15 644 16 c 0,64,65
 652 19 652 19 662 38 c 0,66,67
 667 47 667 47 667 48 c 0,68,69
 668 49 668 49 680 49 c 1,70,-1
 665 -2 l 1,71,-1
 506 -2 l 1,72,-1
 506 7 l 1,73,74
 526 7 526 7 531 20 c 0,75,76
 533 25 533 25 533.5 32 c 128,-1,77
 534 39 534 39 533.5 48 c 128,-1,78
 533 57 533 57 533 60 c 2,79,-1
 533 131 l 2,80,81
 533 133 533 133 533.5 141 c 128,-1,82
 534 149 534 149 533.5 154.5 c 128,-1,83
 533 160 533 160 531 165 c 0,84,85
 528 173 528 173 522.5 175 c 128,-1,86
 517 177 517 177 506 177 c 1,87,-1
 506 187 l 1,36,-1
170 600 m 2,88,-1
 170 446 l 1,89,-1
 178 446 l 1,90,-1
 186 446 l 1,91,-1
 194 446 l 2,92,93
 200 446 200 446 202.5 446.5 c 128,-1,94
 205 447 205 447 209.5 448.5 c 128,-1,95
 214 450 214 450 217 452 c 2,96,-1
 224 455 l 2,97,98
 228 457 228 457 231 460 c 0,99,100
 252 479 252 479 252 520 c 0,101,102
 252 572 252 572 224 592 c 0,103,104
 219 595 219 595 214.5 597 c 128,-1,105
 210 599 210 599 203 599.5 c 128,-1,106
 196 600 196 600 193 600.5 c 128,-1,107
 190 601 190 601 180.5 600.5 c 128,-1,108
 171 600 171 600 170 600 c 2,88,-1
107 618 m 1,109,-1
 185 618 l 2,110,111
 230 618 230 618 249 606 c 0,112,113
 275 590 275 590 283 560 c 128,-1,114
 291 530 291 530 286 496 c 0,115,116
 280 457 280 457 253 441 c 0,117,118
 232 428 232 428 185 428 c 2,119,-1
 107 428 l 1,120,-1
 107 438 l 1,121,122
 128 438 128 438 133 451 c 0,123,124
 134 455 134 455 134.5 461 c 128,-1,125
 135 467 135 467 134.5 474.5 c 128,-1,126
 134 482 134 482 134 484 c 2,127,-1
 134 557 l 2,128,129
 134 560 134 560 134.5 569 c 128,-1,130
 135 578 135 578 134.5 584.5 c 128,-1,131
 134 591 134 591 132 596 c 0,132,133
 129 604 129 604 123.5 606 c 128,-1,134
 118 608 118 608 107 608 c 1,135,-1
 107 618 l 1,109,-1
EndSplineSet
EndChar
StartChar: uni0014
Encoding: 20 20 20
Width: 790
Flags: W
LayerCount: 2
Fore
SplineSet
607 154 m 1,0,1
 600 141 600 141 578 113 c 128,-1,2
 556 85 556 85 548 68 c 1,3,-1
 608 68 l 1,4,-1
 608 128 l 1,5,-1
 607 154 l 1,0,1
469 254 m 1,6,7
 474 245 474 245 475 245 c 1,8,9
 475 242 475 242 463 232 c 0,10,11
 442 214 442 214 417 212 c 0,12,13
 363 208 363 208 332.5 253 c 128,-1,14
 302 298 302 298 323 347 c 0,15,16
 334 372 334 372 356.5 387.5 c 128,-1,17
 379 403 379 403 406 404 c 0,18,19
 422 404 422 404 433 400 c 0,20,21
 435 399 435 399 438.5 397.5 c 128,-1,22
 442 396 442 396 445 395 c 128,-1,23
 448 394 448 394 451 394 c 0,24,25
 457 395 457 395 457 404 c 1,26,-1
 471 404 l 1,27,-1
 471 339 l 1,28,-1
 457 339 l 1,29,30
 457 369 457 369 429.5 381 c 128,-1,31
 402 393 402 393 380 375 c 0,32,33
 357 357 357 357 352 324.5 c 128,-1,34
 347 292 347 292 360 267 c 0,35,36
 381 224 381 224 421 230 c 0,37,38
 439 233 439 233 454 242 c 0,39,40
 456 243 456 243 461 247.5 c 128,-1,41
 466 252 466 252 469 254 c 1,6,7
526 44 m 1,42,-1
 526 65 l 2,43,44
 527 69 527 69 530.5 74.5 c 128,-1,45
 534 80 534 80 539 86 c 128,-1,46
 544 92 544 92 545 94 c 2,47,-1
 585 152 l 1,48,-1
 602 176 l 2,49,50
 609 186 609 186 610 186 c 0,51,52
 613 188 613 188 617.5 188.5 c 128,-1,53
 622 189 622 189 629 188 c 128,-1,54
 636 187 636 187 637 187 c 2,55,-1
 637 69 l 1,56,-1
 660 69 l 1,57,-1
 660 44 l 1,58,-1
 637 44 l 1,59,-1
 637 -2 l 1,60,-1
 608 -2 l 1,61,-1
 608 44 l 1,62,-1
 526 44 l 1,42,-1
170 600 m 2,63,-1
 170 446 l 1,64,-1
 178 446 l 1,65,-1
 186 446 l 1,66,-1
 194 446 l 2,67,68
 200 446 200 446 202.5 446.5 c 128,-1,69
 205 447 205 447 209.5 448.5 c 128,-1,70
 214 450 214 450 217 452 c 2,71,-1
 224 455 l 2,72,73
 228 457 228 457 231 460 c 0,74,75
 252 479 252 479 252 520 c 0,76,77
 252 572 252 572 224 592 c 0,78,79
 219 595 219 595 214.5 597 c 128,-1,80
 210 599 210 599 203 599.5 c 128,-1,81
 196 600 196 600 193 600.5 c 128,-1,82
 190 601 190 601 180.5 600.5 c 128,-1,83
 171 600 171 600 170 600 c 2,63,-1
107 618 m 1,84,-1
 185 618 l 2,85,86
 230 618 230 618 249 606 c 0,87,88
 275 590 275 590 283 560 c 128,-1,89
 291 530 291 530 286 496 c 0,90,91
 280 457 280 457 253 441 c 0,92,93
 232 428 232 428 185 428 c 2,94,-1
 107 428 l 1,95,-1
 107 438 l 1,96,97
 128 438 128 438 133 451 c 0,98,99
 134 455 134 455 134.5 461 c 128,-1,100
 135 467 135 467 134.5 474.5 c 128,-1,101
 134 482 134 482 134 484 c 2,102,-1
 134 557 l 2,103,104
 134 560 134 560 134.5 569 c 128,-1,105
 135 578 135 578 134.5 584.5 c 128,-1,106
 134 591 134 591 132 596 c 0,107,108
 129 604 129 604 123.5 606 c 128,-1,109
 118 608 118 608 107 608 c 1,110,-1
 107 618 l 1,84,-1
EndSplineSet
EndChar
StartChar: uni0016
Encoding: 22 22 22
Width: 790
Flags: W
LayerCount: 2
Fore
SplineSet
288 403 m 1,0,-1
 377 403 l 1,1,-1
 377 393 l 1,2,3
 366 393 366 393 363 391 c 0,4,5
 356 386 356 386 368 368 c 0,6,7
 369 366 369 366 381.5 348 c 128,-1,8
 394 330 394 330 399 319 c 1,9,-1
 401 319 l 1,10,11
 405 327 405 327 410.5 335.5 c 128,-1,12
 416 344 416 344 424 354 c 2,13,-1
 435 369 l 2,14,15
 446 384 446 384 442 390 c 0,16,17
 441 392 441 392 427 392 c 1,18,-1
 427 403 l 1,19,-1
 503 403 l 1,20,-1
 503 393 l 1,21,22
 491 393 491 393 479.5 386 c 128,-1,23
 468 379 468 379 463 373 c 128,-1,24
 458 367 458 367 447.5 351.5 c 128,-1,25
 437 336 437 336 435 332 c 0,26,27
 433 329 433 329 427.5 322.5 c 128,-1,28
 422 316 422 316 418.5 310.5 c 128,-1,29
 415 305 415 305 413 300 c 0,30,31
 412 298 412 298 412 283 c 0,32,33
 412 280 412 280 411.5 269 c 128,-1,34
 411 258 411 258 411 251 c 128,-1,35
 411 244 411 244 414 236 c 128,-1,36
 417 228 417 228 423 225 c 0,37,38
 425 224 425 224 439 223 c 1,39,-1
 439 213 l 1,40,-1
 351 213 l 1,41,-1
 351 223 l 1,42,43
 363 223 363 223 367 224 c 0,44,45
 373 227 373 227 375.5 235 c 128,-1,46
 378 243 378 243 378 249.5 c 128,-1,47
 378 256 378 256 377.5 267.5 c 128,-1,48
 377 279 377 279 377 281 c 0,49,50
 377 286 377 286 375 291.5 c 128,-1,51
 373 297 373 297 371 300.5 c 128,-1,52
 369 304 369 304 365 310 c 128,-1,53
 361 316 361 316 359 318 c 2,54,-1
 327 368 l 2,55,56
 315 386 315 386 306 391 c 0,57,58
 303 392 303 392 288 392 c 1,59,-1
 288 403 l 1,0,-1
485 187 m 1,60,-1
 523 187 l 1,61,-1
 540 186 l 1,62,-1
 551 174 l 1,63,-1
 575 146 l 1,64,-1
 653 55 l 1,65,-1
 653 133 l 2,66,67
 653 135 653 135 653.5 143.5 c 128,-1,68
 654 152 654 152 653.5 157.5 c 128,-1,69
 653 163 653 163 651 167 c 128,-1,70
 649 171 649 171 646.5 173 c 128,-1,71
 644 175 644 175 640 176 c 128,-1,72
 636 177 636 177 634 177 c 2,73,-1
 627 177 l 1,74,-1
 627 187 l 1,75,-1
 702 187 l 1,76,-1
 702 178 l 1,77,78
 679 178 679 178 676 163 c 0,79,80
 674 156 674 156 674 147 c 128,-1,81
 674 138 674 138 675 126.5 c 128,-1,82
 676 115 676 115 676 110 c 2,83,-1
 676 -2 l 1,84,85
 657 -2 657 -2 655 -1 c 0,86,87
 651 1 651 1 646.5 6 c 128,-1,88
 642 11 642 11 636.5 18 c 128,-1,89
 631 25 631 25 630 27 c 2,90,-1
 573 93 l 1,91,-1
 562 104 l 1,92,-1
 550 118 l 2,93,94
 545 124 545 124 542 130 c 1,95,-1
 541 130 l 1,96,-1
 541 53 l 2,97,98
 541 51 541 51 540.5 42.5 c 128,-1,99
 540 34 540 34 540.5 28.5 c 128,-1,100
 541 23 541 23 543 19 c 0,101,102
 547 12 547 12 552 10 c 128,-1,103
 557 8 557 8 568 8 c 1,104,-1
 568 -2 l 1,105,-1
 493 -2 l 1,106,-1
 493 7 l 1,107,108
 514 7 514 7 519 22 c 0,109,110
 520 24 520 24 519 55 c 2,111,-1
 519 123 l 2,112,113
 519 126 519 126 520 134.5 c 128,-1,114
 521 143 521 143 520.5 149 c 128,-1,115
 520 155 520 155 519 159 c 0,116,117
 510 177 510 177 485 177 c 1,118,-1
 485 187 l 1,60,-1
149 492 m 1,119,120
 152 455 152 455 181 447 c 0,121,122
 194 442 194 442 211.5 447 c 128,-1,123
 229 452 229 452 229.5 468.5 c 128,-1,124
 230 485 230 485 207 499 c 0,125,126
 201 503 201 503 186.5 510.5 c 128,-1,127
 172 518 172 518 162 525 c 128,-1,128
 152 532 152 532 144 541 c 0,129,130
 125 566 125 566 140 591 c 128,-1,131
 155 616 155 616 185 619 c 0,132,133
 199 620 199 620 212 616 c 2,134,-1
 219 613 l 2,135,136
 226 610 226 610 229.5 610 c 128,-1,137
 233 610 233 610 234.5 613.5 c 128,-1,138
 236 617 236 617 237 618 c 128,-1,139
 238 619 238 619 250 619 c 1,140,-1
 250 553 l 1,141,-1
 236 553 l 1,142,143
 231 589 231 589 210 598 c 0,144,145
 196 605 196 605 179 598.5 c 128,-1,146
 162 592 162 592 165 574 c 0,147,148
 167 561 167 561 193 545 c 0,149,150
 198 542 198 542 206 538 c 2,151,-1
 218 531 l 2,152,153
 224 528 224 528 231.5 523.5 c 128,-1,154
 239 519 239 519 243 515 c 2,155,-1
 252 506 l 2,156,157
 258 500 258 500 259 494 c 2,158,-1
 262 481 l 2,159,160
 263 473 263 473 259 465 c 0,161,162
 253 444 253 444 232.5 434.5 c 128,-1,163
 212 425 212 425 189 428 c 0,164,165
 186 428 186 428 180 430 c 2,166,-1
 170 434 l 2,167,168
 166 435 166 435 161 435.5 c 128,-1,169
 156 436 156 436 153 434 c 128,-1,170
 150 432 150 432 149 427 c 1,171,-1
 135 427 l 1,172,-1
 135 492 l 1,173,-1
 149 492 l 1,119,120
EndSplineSet
EndChar
StartChar: uni0019
Encoding: 25 25 25
Width: 790
Flags: W
LayerCount: 2
Fore
SplineSet
359 295 m 1,0,-1
 402 295 l 2,1,2
 418 295 418 295 419 294 c 128,-1,3
 420 293 420 293 426 281 c 0,4,5
 428 276 428 276 433 266 c 2,6,-1
 440 252 l 2,7,8
 475 176 475 176 489 151 c 1,9,-1
 539 256 l 1,10,-1
 552 283 l 1,11,-1
 558 294 l 1,12,-1
 572 295 l 1,13,-1
 609 295 l 1,14,-1
 609 285 l 1,15,16
 588 285 588 285 584 273 c 0,17,18
 582 269 582 269 582 263 c 128,-1,19
 582 257 582 257 582.5 249.5 c 128,-1,20
 583 242 583 242 583 239 c 2,21,-1
 583 165 l 2,22,23
 583 162 583 162 582 153.5 c 128,-1,24
 581 145 581 145 581.5 138 c 128,-1,25
 582 131 582 131 584 127 c 0,26,27
 589 116 589 116 609 115 c 1,28,-1
 609 106 l 1,29,-1
 520 106 l 1,30,-1
 520 115 l 1,31,32
 539 115 539 115 544 125 c 0,33,34
 546 129 546 129 547 133.5 c 128,-1,35
 548 138 548 138 547.5 146 c 128,-1,36
 547 154 547 154 547 155 c 2,37,-1
 547 224 l 1,38,-1
 546 224 l 1,39,40
 545 219 545 219 531 193 c 0,41,42
 509 150 509 150 503 135 c 2,43,-1
 498 124 l 1,44,-1
 493 114 l 2,45,46
 489 107 489 107 487 106 c 0,47,48
 472 104 472 104 468.5 108 c 128,-1,49
 465 112 465 112 462 118 c 2,50,-1
 456 133 l 2,51,52
 452 141 452 141 451 144 c 2,53,-1
 438 167 l 1,54,-1
 424 195 l 2,55,56
 418 208 418 208 415 220 c 1,57,-1
 414 220 l 1,58,-1
 414 153 l 2,59,60
 414 151 414 151 413.5 146 c 128,-1,61
 413 141 413 141 413 138 c 128,-1,62
 413 135 413 135 414 131 c 128,-1,63
 415 127 415 127 417 124 c 0,64,65
 422 115 422 115 440 115 c 1,66,-1
 440 106 l 1,67,-1
 365 106 l 1,68,-1
 365 115 l 1,69,70
 386 115 386 115 390 128 c 0,71,72
 392 132 392 132 392 137.5 c 128,-1,73
 392 143 392 143 391.5 150.5 c 128,-1,74
 391 158 391 158 391 161 c 2,75,-1
 391 235 l 2,76,77
 391 238 391 238 392 246 c 128,-1,78
 393 254 393 254 392.5 260.5 c 128,-1,79
 392 267 392 267 390 271 c 0,80,81
 383 285 383 285 359 285 c 1,82,-1
 359 295 l 1,0,-1
221 510 m 1,83,-1
 338 510 l 1,84,-1
 368 510 l 1,85,-1
 380 509 l 1,86,-1
 385 495 l 1,87,-1
 396 459 l 1,88,-1
 381 459 l 1,89,90
 374 484 374 484 359 491 c 0,91,92
 357 492 357 492 337 492 c 2,93,-1
 282 492 l 1,94,-1
 282 424 l 2,95,96
 285 424 285 424 297 423 c 128,-1,97
 309 422 309 422 316.5 422 c 128,-1,98
 324 422 324 422 333 425 c 128,-1,99
 342 428 342 428 345 434 c 0,100,101
 347 437 347 437 347 451 c 1,102,-1
 361 451 l 1,103,-1
 361 380 l 1,104,-1
 347 380 l 1,105,106
 347 393 347 393 345 397 c 0,107,108
 342 403 342 403 333 405.5 c 128,-1,109
 324 408 324 408 316.5 408.5 c 128,-1,110
 309 409 309 409 297 408 c 128,-1,111
 285 407 285 407 282 407 c 2,112,-1
 282 339 l 1,113,-1
 337 339 l 2,114,115
 358 339 358 339 359 340 c 0,116,117
 373 347 373 347 381 372 c 1,118,-1
 395 372 l 1,119,-1
 384 335 l 1,120,-1
 379 322 l 1,121,-1
 367 321 l 1,122,-1
 338 321 l 1,123,-1
 221 321 l 1,124,-1
 221 331 l 1,125,126
 241 331 241 331 246 344 c 0,127,128
 248 349 248 349 248 355.5 c 128,-1,129
 248 362 248 362 247.5 371 c 128,-1,130
 247 380 247 380 247 383 c 2,131,-1
 247 454 l 2,132,133
 247 456 247 456 247.5 464 c 128,-1,134
 248 472 248 472 247.5 477.5 c 128,-1,135
 247 483 247 483 246 487 c 0,136,137
 241 500 241 500 221 500 c 1,138,-1
 221 510 l 1,83,-1
EndSplineSet
EndChar
StartChar: exclam
Encoding: 33 33 32
Width: 187
Flags: W
LayerCount: 2
Fore
SplineSet
120 58 m 0,0,1
 139 49 139 49 138 47 c 0,2,3
 130 39 130 39 114 18 c 0,4,5
 90 -13 90 -13 88 -18 c 1,6,-1
 58 20 l 1,7,-1
 34 45 l 1,8,9
 62 60 62 60 78 99 c 1,10,11
 83 98 83 98 100.5 79 c 128,-1,12
 118 60 118 60 120 58 c 0,0,1
63 474 m 1,13,14
 113 505 113 505 158 509 c 1,15,16
 157 457 157 457 137.5 360 c 128,-1,17
 118 263 118 263 114 231 c 0,18,19
 114 227 114 227 113 214 c 128,-1,20
 112 201 112 201 111.5 191.5 c 128,-1,21
 111 182 111 182 108 171 c 128,-1,22
 105 160 105 160 99.5 154 c 128,-1,23
 94 148 94 148 85 147 c 1,24,25
 85 184 85 184 86.5 256 c 128,-1,26
 88 328 88 328 88 364 c 2,27,-1
 88 384 l 1,28,-1
 88 404 l 2,29,30
 88 409 88 409 87 420.5 c 128,-1,31
 86 432 86 432 83 439 c 128,-1,32
 80 446 80 446 75 454.5 c 128,-1,33
 70 463 70 463 63 471 c 1,34,-1
 63 474 l 1,13,14
EndSplineSet
EndChar
StartChar: ampersand
Encoding: 38 38 37
Width: 565
Flags: W
LayerCount: 2
Fore
SplineSet
164 302 m 1,0,1
 71 264 71 264 72 182 c 0,2,3
 72 114 72 114 102 82 c 0,4,5
 144 37 144 37 202 37 c 0,6,7
 228 37 228 37 254.5 51 c 128,-1,8
 281 65 281 65 294 79 c 2,9,-1
 326 115 l 1,10,11
 283 210 283 210 255 241.5 c 128,-1,12
 227 273 227 273 164 302 c 1,0,1
160 500 m 0,13,14
 138 500 138 500 117 483 c 128,-1,15
 96 466 96 466 96 441 c 0,16,17
 96 427 96 427 102 414.5 c 128,-1,18
 108 402 108 402 121 391 c 128,-1,19
 134 380 134 380 142.5 374.5 c 128,-1,20
 151 369 151 369 170.5 358 c 128,-1,21
 190 347 190 347 193 345 c 0,22,23
 247 379 247 379 247 407 c 0,24,25
 247 446 247 446 222.5 473 c 128,-1,26
 198 500 198 500 160 500 c 0,13,14
193 545 m 1,27,28
 299 508 299 508 292 416 c 1,29,30
 278 379 278 379 212 335 c 1,31,32
 270 313 270 313 302 274 c 128,-1,33
 334 235 334 235 359 176 c 1,34,35
 383 214 383 214 409 277 c 128,-1,36
 435 340 435 340 443 378 c 0,37,38
 446 391 446 391 438 399 c 0,39,40
 428 409 428 409 407 417 c 0,41,42
 400 419 400 419 404 425 c 0,43,44
 407 433 407 433 412 431 c 0,45,46
 431 423 431 423 473 415 c 0,47,48
 508 409 508 409 527 410 c 0,49,50
 534 410 534 410 533 404 c 0,51,52
 533 395 533 395 527 395 c 0,53,54
 511 395 511 395 502 391 c 0,55,56
 484 385 484 385 472 354 c 0,57,58
 416 224 416 224 373 150 c 1,59,60
 397 89 397 89 423.5 59 c 128,-1,61
 450 29 450 29 474 29 c 0,62,63
 510 29 510 29 540 96 c 0,64,65
 545 105 545 105 553 101 c 0,66,67
 562 97 562 97 561 91 c 0,68,69
 545 55 545 55 522 27 c 0,70,71
 509 13 509 13 484.5 4.5 c 128,-1,72
 460 -4 460 -4 442 -4 c 0,73,74
 411 -4 411 -4 383.5 22.5 c 128,-1,75
 356 49 356 49 338 91 c 1,76,77
 334 87 334 87 316 65.5 c 128,-1,78
 298 44 298 44 283 30.5 c 128,-1,79
 268 17 268 17 236 4 c 128,-1,80
 204 -9 204 -9 165 -9 c 0,81,82
 95 -9 95 -9 55 37 c 128,-1,83
 15 83 15 83 15 143.5 c 128,-1,84
 15 204 15 204 50.5 248.5 c 128,-1,85
 86 293 86 293 141 316 c 1,86,87
 67 356 67 356 67 422 c 0,88,89
 67 440 67 440 73 455 c 128,-1,90
 79 470 79 470 86 479.5 c 128,-1,91
 93 489 93 489 109 500 c 128,-1,92
 125 511 125 511 133.5 516 c 128,-1,93
 142 521 142 521 163.5 531 c 128,-1,94
 185 541 185 541 193 545 c 1,27,28
EndSplineSet
EndChar
StartChar: parenright
Encoding: 41 41 40
Width: 222
Flags: W
LayerCount: 2
Fore
SplineSet
176 203 m 0,0,1
 176 111 176 111 130 10 c 0,2,3
 99 -60 99 -60 37 -116 c 0,4,5
 30 -123 30 -123 22 -124 c 0,6,7
 13 -124 13 -124 10 -116 c 0,8,9
 8 -114 8 -114 9 -113 c 0,10,11
 9 -107 9 -107 13 -100 c 0,12,13
 126 16 126 16 129 203 c 0,14,15
 129 385 129 385 13 507 c 0,16,17
 8 512 8 512 9 520 c 0,18,19
 9 523 9 523 16 527 c 0,20,21
 19 530 19 530 22 530 c 0,22,23
 31 530 31 530 37 525 c 0,24,25
 102 465 102 465 134 396 c 0,26,27
 176 311 176 311 176 203 c 0,0,1
EndSplineSet
Substitution2: "'rtla' Right to Left Alternates lookup 0 subtable" parenleft
EndChar
StartChar: hyphen
Encoding: 45 45 44
Width: 284
Flags: W
LayerCount: 2
Fore
SplineSet
245 208 m 2,0,1
 250 208 250 208 251 191 c 0,2,3
 251 169 251 169 245 169 c 2,4,-1
 40 169 l 2,5,6
 36 169 36 169 34 188 c 0,7,8
 34 208 34 208 40 208 c 2,9,-1
 245 208 l 2,0,1
EndSplineSet
EndChar
StartChar: slash
Encoding: 47 47 46
Width: 245
Flags: W
LayerCount: 2
Fore
SplineSet
37 -3 m 2,0,1
 37 -5 37 -5 32 -5 c 128,-1,2
 27 -5 27 -5 15 0 c 0,3,4
 10 2 10 2 7 4.5 c 128,-1,5
 4 7 4 7 2.5 8 c 128,-1,6
 1 9 1 9 2 10 c 2,7,-1
 2 12 l 1,8,-1
 214 510 l 2,9,10
 214 511 214 511 216 512 c 0,11,12
 221 512 221 512 233 510 c 0,13,14
 248 503 248 503 248 496 c 2,15,-1
 248 495 l 1,16,-1
 37 -3 l 2,0,1
EndSplineSet
EndChar
StartChar: zero
Encoding: 48 48 47
Width: 411
Flags: W
LayerCount: 2
Fore
SplineSet
177 303 m 0,0,1
 145 296 145 296 123.5 276 c 128,-1,2
 102 256 102 256 94 228.5 c 128,-1,3
 86 201 86 201 87 169.5 c 128,-1,4
 88 138 88 138 101 108.5 c 128,-1,5
 114 79 114 79 131.5 56 c 128,-1,6
 149 33 149 33 176.5 21.5 c 128,-1,7
 204 10 204 10 235 15 c 0,8,9
 302 26 302 26 319 98 c 0,10,11
 336 166 336 166 300 232 c 0,12,13
 263 302 263 302 199 305 c 0,14,15
 188 305 188 305 177 303 c 0,0,1
183 324 m 0,16,17
 223 331 223 331 260 319 c 128,-1,18
 297 307 297 307 322.5 283.5 c 128,-1,19
 348 260 348 260 363 227.5 c 128,-1,20
 378 195 378 195 379.5 160.5 c 128,-1,21
 381 126 381 126 365 91 c 128,-1,22
 349 56 349 56 316 30 c 0,23,24
 279 1 279 1 224 -7 c 0,25,26
 185 -13 185 -13 148.5 -0.5 c 128,-1,27
 112 12 112 12 87 36.5 c 128,-1,28
 62 61 62 61 47.5 94.5 c 128,-1,29
 33 128 33 128 32.5 162 c 128,-1,30
 32 196 32 196 49 230.5 c 128,-1,31
 66 265 66 265 99 290 c 0,32,33
 137 316 137 316 183 324 c 0,16,17
EndSplineSet
EndChar
StartChar: one
Encoding: 49 49 48
Width: 264
Flags: W
LayerCount: 2
Fore
SplineSet
66 -1 m 1,0,-1
 66 -5 l 1,1,-1
 206 -5 l 1,2,3
 189 3 189 3 165 4 c 128,-1,4
 141 5 141 5 109 2 c 128,-1,5
 77 -1 77 -1 66 -1 c 1,0,-1
48 326 m 1,6,-1
 210 348 l 1,7,-1
 213 330 l 1,8,9
 199 321 199 321 189 308 c 128,-1,10
 179 295 179 295 173 278.5 c 128,-1,11
 167 262 167 262 163.5 248 c 128,-1,12
 160 234 160 234 158.5 212.5 c 128,-1,13
 157 191 157 191 157 178 c 128,-1,14
 157 165 157 165 157.5 141.5 c 128,-1,15
 158 118 158 118 158 109 c 0,16,17
 158 106 158 106 157.5 94 c 128,-1,18
 157 82 157 82 157.5 75 c 128,-1,19
 158 68 158 68 159 57.5 c 128,-1,20
 160 47 160 47 162.5 39.5 c 128,-1,21
 165 32 165 32 171 26 c 0,22,23
 182 12 182 12 231 10 c 1,24,-1
 231 -5 l 1,25,-1
 40 -5 l 1,26,-1
 40 10 l 1,27,28
 59 12 59 12 72.5 19.5 c 128,-1,29
 86 27 86 27 94 41 c 128,-1,30
 102 55 102 55 106 69.5 c 128,-1,31
 110 84 110 84 111 104.5 c 128,-1,32
 112 125 112 125 112 140 c 128,-1,33
 112 155 112 155 111 176.5 c 128,-1,34
 110 198 110 198 110 209 c 0,35,36
 110 212 110 212 110.5 228.5 c 128,-1,37
 111 245 111 245 111 254.5 c 128,-1,38
 111 264 111 264 108 276.5 c 128,-1,39
 105 289 105 289 100 295 c 0,40,41
 98 298 98 298 94.5 300.5 c 128,-1,42
 91 303 91 303 86.5 304 c 128,-1,43
 82 305 82 305 78.5 305.5 c 128,-1,44
 75 306 75 306 69 306.5 c 128,-1,45
 63 307 63 307 60 307 c 2,46,-1
 51 307 l 1,47,-1
 44 307 l 1,48,-1
 48 326 l 1,6,-1
EndSplineSet
EndChar
StartChar: six
Encoding: 54 54 53
Width: 391
Flags: W
LayerCount: 2
Fore
SplineSet
133 242 m 1,0,1
 132 254 132 254 140.5 264.5 c 128,-1,2
 149 275 149 275 157 281 c 128,-1,3
 165 287 165 287 180 293 c 0,4,5
 225 315 225 315 267.5 301.5 c 128,-1,6
 310 288 310 288 337 245 c 0,7,8
 355 214 355 214 358.5 178 c 128,-1,9
 362 142 362 142 352 110.5 c 128,-1,10
 342 79 342 79 322 51 c 128,-1,11
 302 23 302 23 273 7.5 c 128,-1,12
 244 -8 244 -8 210.5 -11 c 128,-1,13
 177 -14 177 -14 139 4 c 0,14,15
 89 28 89 28 64.5 82 c 128,-1,16
 40 136 40 136 40 197 c 0,17,18
 40 268 40 268 76.5 340 c 128,-1,19
 113 412 113 412 175 462.5 c 128,-1,20
 237 513 237 513 308 525 c 1,21,-1
 312 513 l 1,22,23
 267 486 267 486 231.5 457.5 c 128,-1,24
 196 429 196 429 164.5 392 c 128,-1,25
 133 355 133 355 115.5 310.5 c 128,-1,26
 98 266 98 266 96 216 c 0,27,28
 94 184 94 184 103.5 147.5 c 128,-1,29
 113 111 113 111 131 78.5 c 128,-1,30
 149 46 149 46 180.5 28 c 128,-1,31
 212 10 212 10 250 20 c 0,32,33
 284 28 284 28 301.5 53 c 128,-1,34
 319 78 319 78 317 109.5 c 128,-1,35
 315 141 315 141 303.5 173 c 128,-1,36
 292 205 292 205 270 231 c 128,-1,37
 248 257 248 257 224 266 c 0,38,39
 214 270 214 270 204 270.5 c 128,-1,40
 194 271 194 271 184.5 267.5 c 128,-1,41
 175 264 175 264 168 260.5 c 128,-1,42
 161 257 161 257 150.5 251 c 128,-1,43
 140 245 140 245 133 242 c 1,0,1
EndSplineSet
EndChar
StartChar: seven
Encoding: 55 55 54
Width: 411
Flags: W
LayerCount: 2
Fore
SplineSet
62 348 m 1,0,-1
 102 331 l 1,1,-1
 206 330 l 1,2,-1
 393 334 l 1,3,4
 392 318 392 318 380 296.5 c 128,-1,5
 368 275 368 275 350 250.5 c 128,-1,6
 332 226 332 226 326 216 c 2,7,-1
 261 95 l 1,8,-1
 402 95 l 1,9,-1
 392 71 l 1,10,-1
 248 71 l 1,11,-1
 188 -41 l 2,12,13
 184 -49 184 -49 173.5 -75.5 c 128,-1,14
 163 -102 163 -102 152.5 -120.5 c 128,-1,15
 142 -139 142 -139 130 -148 c 0,16,17
 125 -151 125 -151 117 -152 c 128,-1,18
 109 -153 109 -153 98.5 -153.5 c 128,-1,19
 88 -154 88 -154 85 -155 c 2,20,-1
 81 -151 l 1,21,-1
 172 7 l 1,22,-1
 208 71 l 1,23,-1
 69 71 l 1,24,-1
 79 95 l 1,25,-1
 222 95 l 1,26,-1
 323 274 l 1,27,28
 157 296 157 296 77 272 c 0,29,30
 66 269 66 269 50.5 252.5 c 128,-1,31
 35 236 35 236 22 234 c 1,32,-1
 62 348 l 1,0,-1
EndSplineSet
EndChar
StartChar: colon
Encoding: 58 58 57
Width: 178
Flags: W
LayerCount: 2
Fore
SplineSet
130 304 m 0,0,1
 149 295 149 295 148 293 c 0,2,3
 140 285 140 285 124 264 c 0,4,5
 100 233 100 233 98 228 c 1,6,-1
 68 266 l 1,7,-1
 44 291 l 1,8,9
 72 306 72 306 88 345 c 1,10,11
 93 344 93 344 110.5 325 c 128,-1,12
 128 306 128 306 130 304 c 0,0,1
130 68 m 0,13,14
 149 59 149 59 148 57 c 0,15,16
 140 49 140 49 124 28 c 0,17,18
 100 -3 100 -3 98 -8 c 1,19,-1
 68 30 l 1,20,-1
 44 55 l 1,21,22
 72 70 72 70 88 109 c 1,23,24
 93 108 93 108 110.5 89 c 128,-1,25
 128 70 128 70 130 68 c 0,13,14
EndSplineSet
EndChar
StartChar: semicolon
Encoding: 59 59 58
Width: 187
Flags: W
LayerCount: 2
Fore
SplineSet
130 309 m 0,0,1
 149 300 149 300 148 298 c 0,2,3
 140 290 140 290 124 269 c 0,4,5
 100 238 100 238 98 233 c 1,6,-1
 68 271 l 1,7,-1
 44 296 l 1,8,9
 72 311 72 311 88 350 c 1,10,11
 93 349 93 349 110.5 330 c 128,-1,12
 128 311 128 311 130 309 c 0,0,1
29 -96 m 1,13,-1
 37 -107 l 1,14,-1
 29 -96 l 1,13,-1
88 109 m 1,15,16
 93 108 93 108 97 105.5 c 128,-1,17
 101 103 101 103 102 101 c 2,18,-1
 108 94 l 1,19,-1
 115 88 l 2,20,21
 118 84 118 84 126 79 c 128,-1,22
 134 74 134 74 140 69 c 128,-1,23
 146 64 146 64 148 57 c 128,-1,24
 150 50 150 50 143.5 37 c 128,-1,25
 137 24 137 24 137 22 c 0,26,27
 114 -73 114 -73 37 -107 c 1,28,-1
 29 -89 l 1,29,30
 60 -71 60 -71 77.5 -47.5 c 128,-1,31
 95 -24 95 -24 81 3 c 0,32,33
 77 10 77 10 62 25.5 c 128,-1,34
 47 41 47 41 44 55 c 1,35,36
 72 70 72 70 88 109 c 1,15,16
EndSplineSet
EndChar
StartChar: greater
Encoding: 62 62 61
Width: 351
Flags: W
LayerCount: 2
Fore
SplineSet
315 130 m 1,0,-1
 40 0 l 1,1,-1
 40 40 l 1,2,-1
 264 146 l 1,3,-1
 264 147 l 1,4,-1
 40 251 l 1,5,-1
 40 292 l 1,6,-1
 315 162 l 1,7,-1
 315 130 l 1,0,-1
EndSplineSet
Substitution2: "'rtla' Right to Left Alternates lookup 0 subtable" less
EndChar
StartChar: D
Encoding: 68 68 67
Width: 664
Flags: W
LayerCount: 2
Fore
SplineSet
296 578 m 0,0,1
 225 578 225 578 178 559 c 0,2,3
 172 557 172 557 171 541 c 0,4,5
 164 472 164 472 161.5 287 c 128,-1,6
 159 102 159 102 164 49 c 0,7,8
 165 39 165 39 175 36 c 0,9,10
 239 15 239 15 295 15 c 0,11,12
 379 15 379 15 435 44 c 128,-1,13
 491 73 491 73 528 133 c 0,14,15
 570 200 570 200 570 302 c 0,16,17
 570 408 570 408 499 486 c 0,18,19
 456 532 456 532 401 555 c 128,-1,20
 346 578 346 578 296 578 c 0,0,1
293 595 m 0,21,22
 443 595 443 595 544.5 516 c 128,-1,23
 646 437 646 437 646 294 c 0,24,25
 646 231 646 231 623.5 178.5 c 128,-1,26
 601 126 601 126 566.5 93 c 128,-1,27
 532 60 532 60 487 36.5 c 128,-1,28
 442 13 442 13 399 3.5 c 128,-1,29
 356 -6 356 -6 315 -6 c 0,30,31
 275 -6 275 -6 223.5 -3 c 128,-1,32
 172 0 172 0 144 0 c 0,33,34
 76 0 76 0 32 -3 c 0,35,36
 24 -3 24 -3 24 3 c 0,37,38
 21 13 21 13 34 13 c 0,39,40
 62 13 62 13 75.5 21.5 c 128,-1,41
 89 30 89 30 92 62 c 0,42,43
 97 111 97 111 99 285 c 128,-1,44
 101 459 101 459 95 531 c 0,45,46
 92 557 92 557 79 564 c 128,-1,47
 66 571 66 571 38 573 c 0,48,49
 31 573 31 573 31 581 c 0,50,51
 31 587 31 587 33 589.5 c 128,-1,52
 35 592 35 592 39 591 c 0,53,54
 55 589 55 589 112 589 c 0,55,56
 122 589 122 589 191.5 592 c 128,-1,57
 261 595 261 595 293 595 c 0,21,22
EndSplineSet
EndChar
StartChar: I
Encoding: 73 73 72
Width: 311
Flags: W
LayerCount: 2
Fore
SplineSet
36 593 m 0,0,1
 79 588 79 588 159 588 c 0,2,3
 225 588 225 588 280 594 c 0,4,5
 289 595 289 595 289 587 c 0,6,7
 289 576 289 576 283 576 c 2,8,-1
 272 576 l 2,9,10
 263 576 263 576 261 575.5 c 128,-1,11
 259 575 259 575 250.5 574.5 c 128,-1,12
 242 574 242 574 240 573 c 2,13,-1
 230 570 l 2,14,15
 224 567 224 567 221 564 c 2,16,-1
 214 558 l 2,17,18
 209 554 209 554 207 549 c 128,-1,19
 205 544 205 544 202.5 536.5 c 128,-1,20
 200 529 200 529 199 521 c 0,21,22
 192 466 192 466 191.5 312 c 128,-1,23
 191 158 191 158 195 66 c 0,24,25
 197 23 197 23 222 17 c 0,26,27
 241 12 241 12 279 12 c 0,28,29
 285 12 285 12 285 4 c 0,30,31
 285 -3 285 -3 276 -3 c 0,32,33
 266 -4 266 -4 219.5 -2 c 128,-1,34
 173 0 173 0 161 0 c 0,35,36
 71 0 71 0 34 -4 c 0,37,38
 23 -6 23 -6 23 3 c 0,39,40
 23 14 23 14 29 14 c 0,41,42
 76 16 76 16 89 21 c 0,43,44
 121 32 121 32 124 75 c 0,45,46
 131 171 131 171 130 313.5 c 128,-1,47
 129 456 129 456 123 516 c 0,48,49
 119 552 119 552 103.5 562 c 128,-1,50
 88 572 88 572 47 576 c 0,51,52
 39 577 39 577 36 577 c 0,53,54
 28 578 28 578 28 583 c 0,55,56
 28 593 28 593 36 593 c 0,0,1
EndSplineSet
EndChar
StartChar: K
Encoding: 75 75 74
Width: 594
Flags: W
LayerCount: 2
Fore
SplineSet
154 287 m 1,0,1
 356 483 356 483 373 502 c 0,2,3
 396 528 396 528 396 542 c 0,4,5
 396 551 396 551 383 557.5 c 128,-1,6
 370 564 370 564 350 564 c 0,7,8
 345 564 345 564 345 572 c 0,9,10
 345 581 345 581 349 580 c 0,11,12
 351 580 351 580 388 579 c 128,-1,13
 425 578 425 578 432 578 c 0,14,15
 458 578 458 578 477.5 579 c 128,-1,16
 497 580 497 580 505.5 581.5 c 128,-1,17
 514 583 514 583 515 583 c 0,18,19
 522 583 522 583 522 576 c 0,20,21
 522 567 522 567 515 566 c 0,22,23
 498 568 498 568 455 535 c 0,24,25
 419 508 419 508 377 471 c 2,26,-1
 280 383 l 1,27,-1
 204 312 l 1,28,-1
 504 59 l 2,29,30
 555 16 555 16 575 9 c 0,31,32
 583 7 583 7 579 -1 c 0,33,34
 578 -7 578 -7 572 -7 c 0,35,36
 570 -7 570 -7 564.5 -5 c 128,-1,37
 559 -3 559 -3 547 -1.5 c 128,-1,38
 535 0 535 0 519 0 c 0,39,40
 448 0 448 0 408 -7 c 0,41,42
 403 -7 403 -7 404 2 c 0,43,44
 404 10 404 10 407 9 c 0,45,46
 437 13 437 13 442.5 19.5 c 128,-1,47
 448 26 448 26 432 41 c 2,48,-1
 336 124 l 1,49,-1
 232 210 l 1,50,-1
 154 274 l 1,51,52
 154 152 154 152 159 60 c 0,53,54
 160 37 160 37 173.5 28.5 c 128,-1,55
 187 20 187 20 229 11 c 0,56,57
 234 10 234 10 233 2 c 0,58,59
 233 -4 233 -4 226 -4 c 0,60,61
 224 -4 224 -4 209 -3 c 2,62,-1
 170 0 l 2,63,64
 146 1 146 1 124 1 c 0,65,66
 54 3 54 3 32 -1 c 0,67,68
 23 -3 23 -3 23 5 c 0,69,70
 23 15 23 15 29 15 c 0,71,72
 58 17 58 17 70 26.5 c 128,-1,73
 82 36 82 36 84 66 c 0,74,75
 103 316 103 316 89 511 c 0,76,77
 87 543 87 543 79 552.5 c 128,-1,78
 71 562 71 562 35 567 c 0,79,80
 28 568 28 568 28 575 c 0,81,82
 28 583 28 583 35 582 c 0,83,84
 80 579 80 579 129 579 c 0,85,86
 157 579 157 579 181 580.5 c 128,-1,87
 205 582 205 582 217 584 c 2,88,-1
 231 586 l 2,89,90
 236 586 236 586 235.5 579.5 c 128,-1,91
 235 573 235 573 231 572 c 0,92,93
 212 570 212 570 205.5 568.5 c 128,-1,94
 199 567 199 567 187 562.5 c 128,-1,95
 175 558 175 558 169.5 547.5 c 128,-1,96
 164 537 164 537 164 520 c 0,97,98
 157 418 157 418 154 287 c 1,0,1
EndSplineSet
EndChar
StartChar: O
Encoding: 79 79 78
Width: 661
Flags: W
LayerCount: 2
Fore
SplineSet
305 571 m 0,0,1
 258 571 258 571 198 541 c 0,2,3
 149 515 149 515 118.5 459 c 128,-1,4
 88 403 88 403 88 344 c 0,5,6
 88 209 88 209 165 112 c 0,7,8
 198 69 198 69 252 42 c 128,-1,9
 306 15 306 15 364 15 c 0,10,11
 445 15 445 15 500 68 c 0,12,13
 536 103 536 103 555.5 153 c 128,-1,14
 575 203 575 203 575 249 c 0,15,16
 575 366 575 366 513 458 c 0,17,18
 480 507 480 507 426 539 c 128,-1,19
 372 571 372 571 305 571 c 0,0,1
332 599 m 0,20,21
 457 599 457 599 550.5 511.5 c 128,-1,22
 644 424 644 424 644 289 c 0,23,24
 644 164 644 164 555 75 c 128,-1,25
 466 -14 466 -14 348 -14 c 0,26,27
 268 -14 268 -14 207.5 9.5 c 128,-1,28
 147 33 147 33 98 90 c 0,29,30
 63 130 63 130 41 185 c 128,-1,31
 19 240 19 240 19 289 c 0,32,33
 19 385 19 385 74.5 462 c 128,-1,34
 130 539 130 539 215 573 c 0,35,36
 279 599 279 599 332 599 c 0,20,21
EndSplineSet
EndChar
StartChar: P
Encoding: 80 80 79
Width: 497
Flags: W
LayerCount: 2
Fore
SplineSet
239 573 m 0,0,1
 199 573 199 573 170 566 c 1,2,3
 167 552 167 552 164.5 413.5 c 128,-1,4
 162 275 162 275 164 245 c 1,5,6
 192 239 192 239 234 239 c 0,7,8
 314 239 314 239 361 283.5 c 128,-1,9
 408 328 408 328 408 393 c 0,10,11
 408 478 408 478 358.5 525.5 c 128,-1,12
 309 573 309 573 239 573 c 0,0,1
31 596 m 2,13,-1
 46 596 l 2,14,15
 59 596 59 596 78.5 595 c 128,-1,16
 98 594 98 594 118 594 c 0,17,18
 144 594 144 594 181 596.5 c 128,-1,19
 218 599 218 599 229 599 c 0,20,21
 298 599 298 599 355 572 c 0,22,23
 412 546 412 546 447 501.5 c 128,-1,24
 482 457 482 457 482 394 c 0,25,26
 482 328 482 328 412.5 272 c 128,-1,27
 343 216 343 216 242 216 c 0,28,29
 197 216 197 216 164 222 c 1,30,31
 164 187 164 187 165.5 126.5 c 128,-1,32
 167 66 167 66 167 58 c 0,33,34
 168 28 168 28 183 24 c 0,35,36
 196 20 196 20 221.5 16 c 128,-1,37
 247 12 247 12 250 11 c 0,38,39
 258 9 258 9 254 1 c 0,40,41
 252 -8 252 -8 246 -6 c 0,42,43
 193 1 193 1 136 1 c 0,44,45
 70 1 70 1 45 -6 c 0,46,47
 36 -9 36 -9 34 -1 c 0,48,49
 31 9 31 9 38 10 c 0,50,51
 76 19 76 19 86 27 c 0,52,53
 95 34 95 34 96.5 40 c 128,-1,54
 98 46 98 46 99 65 c 0,55,56
 106 430 106 430 92 544 c 0,57,58
 91 554 91 554 83 560 c 0,59,60
 66 575 66 575 30 579 c 0,61,62
 23 580 23 580 24 589 c 0,63,64
 23 596 23 596 31 596 c 2,13,-1
EndSplineSet
EndChar
StartChar: U
Encoding: 85 85 84
Width: 677
Flags: W
LayerCount: 2
Fore
SplineSet
26 589 m 0,0,1
 27 589 27 589 39.5 588 c 128,-1,2
 52 587 52 587 74 586 c 128,-1,3
 96 585 96 585 122 585 c 0,4,5
 147 585 147 585 173 586 c 128,-1,6
 199 587 199 587 216 588 c 128,-1,7
 233 589 233 589 234 589 c 0,8,9
 239 589 239 589 239.5 588 c 128,-1,10
 240 587 240 587 241 582 c 0,11,12
 243 573 243 573 233 573 c 0,13,14
 189 573 189 573 172.5 561 c 128,-1,15
 156 549 156 549 153 513 c 0,16,17
 147 442 147 442 149 197 c 0,18,19
 149 125 149 125 171 90 c 0,20,21
 217 15 217 15 341 15 c 0,22,23
 407 15 407 15 454.5 34.5 c 128,-1,24
 502 54 502 54 521 79 c 0,25,26
 549 119 549 119 559 215 c 0,27,28
 576 404 576 404 556 540 c 0,29,30
 554 556 554 556 541 563 c 0,31,32
 530 570 530 570 492 570 c 0,33,34
 481 570 481 570 480 579 c 0,35,36
 480 584 480 584 481.5 586.5 c 128,-1,37
 483 589 483 589 487 588 c 0,38,39
 517 584 517 584 567 584 c 0,40,41
 587 584 587 584 607 584.5 c 128,-1,42
 627 585 627 585 639 585.5 c 128,-1,43
 651 586 651 586 652 586 c 0,44,45
 661 586 661 586 660 578.5 c 128,-1,46
 659 571 659 571 651 571 c 0,47,48
 621 572 621 572 608.5 564.5 c 128,-1,49
 596 557 596 557 596 531 c 0,50,51
 594 311 594 311 585 214 c 0,52,53
 575 109 575 109 542 63 c 0,54,55
 517 29 517 29 461.5 8 c 128,-1,56
 406 -13 406 -13 337 -13 c 0,57,58
 259 -13 259 -13 215 1 c 128,-1,59
 171 15 171 15 133 51 c 0,60,61
 105 77 105 77 95 105 c 0,62,63
 83 141 83 141 86 195 c 0,64,65
 94 445 94 445 83 526 c 0,66,67
 79 563 79 563 64 567 c 0,68,69
 53 570 53 570 27 572 c 0,70,71
 18 572 18 572 18.5 580.5 c 128,-1,72
 19 589 19 589 26 589 c 0,0,1
EndSplineSet
EndChar
StartChar: Z
Encoding: 90 90 89
Width: 594
Flags: W
LayerCount: 2
Fore
SplineSet
54 593 m 0,0,1
 54 600 54 600 60 599 c 0,2,3
 65 599 65 599 66 596 c 0,4,5
 70 587 70 587 74 586 c 0,6,7
 90 576 90 576 111 575 c 0,8,9
 183 572 183 572 546 572 c 0,10,11
 550 572 550 572 555.5 573.5 c 128,-1,12
 561 575 561 575 562 575 c 0,13,14
 568 575 568 575 568 568 c 0,15,16
 568 566 568 566 566.5 564 c 128,-1,17
 565 562 565 562 564 560 c 2,18,-1
 561 558 l 1,19,-1
 446 412 l 1,20,-1
 372 320 l 1,21,-1
 544 320 l 1,22,-1
 529 282 l 1,23,-1
 342 282 l 1,24,-1
 278 203 l 1,25,-1
 133 30 l 1,26,27
 255 21 255 21 356 26 c 0,28,29
 448 31 448 31 500 51.5 c 128,-1,30
 552 72 552 72 577 115 c 0,31,32
 580 121 580 121 585 118 c 0,33,34
 594 113 594 113 591 107 c 0,35,36
 580 88 580 88 560 48 c 0,37,38
 554 36 554 36 545.5 14.5 c 128,-1,39
 537 -7 537 -7 534 -12 c 0,40,41
 532 -19 532 -19 528 -19 c 0,42,43
 522 -19 522 -19 518 -6 c 1,44,45
 435 0 435 0 28 0 c 0,46,47
 23 0 23 0 22.5 4 c 128,-1,48
 22 8 22 8 25 10 c 0,49,50
 130 121 130 121 255 274 c 1,51,-1
 262 282 l 1,52,-1
 98 282 l 1,53,-1
 112 320 l 1,54,-1
 293 320 l 1,55,56
 392 444 392 444 460 542 c 1,57,58
 406 547 406 547 306 548 c 128,-1,59
 206 549 206 549 180 546 c 0,60,61
 116 541 116 541 89 528.5 c 128,-1,62
 62 516 62 516 32 470 c 0,63,64
 27 463 27 463 24 467 c 0,65,66
 16 475 16 475 18 479 c 0,67,68
 52 560 52 560 54 593 c 0,0,1
EndSplineSet
EndChar
StartChar: asciicircum
Encoding: 94 94 93
Width: 378
Flags: W
LayerCount: 2
Fore
SplineSet
74 371 m 1,0,-1
 90 405 l 2,1,2
 99 424 99 424 106 436 c 2,3,-1
 126 470 l 1,4,-1
 145 502 l 2,5,6
 154 517 154 517 158 522.5 c 128,-1,7
 162 528 162 528 172 534 c 128,-1,8
 182 540 182 540 196 538 c 0,9,10
 204 537 204 537 209.5 532 c 128,-1,11
 215 527 215 527 218 523 c 128,-1,12
 221 519 221 519 225 510 c 128,-1,13
 229 501 229 501 231 498 c 2,14,-1
 254 460 l 1,15,-1
 281 410 l 2,16,17
 292 390 292 390 301 371 c 1,18,19
 279 372 279 372 259 388.5 c 128,-1,20
 239 405 239 405 215.5 434.5 c 128,-1,21
 192 464 192 464 186 471 c 1,22,23
 169 440 169 440 135.5 406 c 128,-1,24
 102 372 102 372 74 371 c 1,0,-1
EndSplineSet
EndChar
StartChar: underscore
Encoding: 95 95 94
Width: 351
Flags: W
LayerCount: 2
Fore
SplineSet
356 -89 m 1,0,-1
 0 -89 l 1,1,-1
 0 -53 l 1,2,-1
 356 -53 l 1,3,-1
 356 -89 l 1,0,-1
EndSplineSet
EndChar
StartChar: grave
Encoding: 96 96 95
Width: 192
Flags: W
LayerCount: 2
Fore
SplineSet
159 374 m 2,0,1
 161 370 161 370 161 367 c 0,2,3
 161 354 161 354 148 354 c 0,4,5
 138 354 138 354 134 364 c 2,6,-1
 77 457 l 2,7,8
 75 459 75 459 75 462 c 0,9,10
 75 471 75 471 89 478 c 0,11,12
 98 481 98 481 104 481 c 0,13,14
 113 481 113 481 114 475 c 2,15,-1
 159 374 l 2,0,1
EndSplineSet
EndChar
StartChar: o
Encoding: 111 111 110
Width: 411
Flags: W
LayerCount: 2
Fore
SplineSet
133 331 m 0,0,1
 181 352 181 352 229 348 c 0,2,3
 279 343 279 343 319 314 c 0,4,5
 368 277 368 277 382 218 c 0,6,7
 397 158 397 158 373 104 c 0,8,9
 354 57 354 57 312 27 c 0,10,11
 255 -12 255 -12 182 -1 c 0,12,13
 116 9 116 9 72 56 c 0,14,15
 26 104 26 104 24 169 c 0,16,17
 24 223 24 223 54 267 c 0,18,19
 83 308 83 308 133 331 c 0,0,1
193 328 m 0,20,21
 165 328 165 328 143 316 c 0,22,23
 119 303 119 303 104 282 c 0,24,25
 78 247 78 247 78 196 c 0,26,27
 78 148 78 148 98 107 c 0,28,29
 116 66 116 66 149 41 c 0,30,31
 186 12 186 12 227 14 c 0,32,33
 253 15 253 15 276 32 c 0,34,35
 294 44 294 44 306 64 c 0,36,37
 331 104 331 104 333 150 c 0,38,39
 334 203 334 203 305 253 c 0,40,41
 283 288 283 288 259 305 c 0,42,43
 227 328 227 328 193 328 c 0,20,21
EndSplineSet
EndChar
StartChar: p
Encoding: 112 112 111
Width: 446
Flags: W
LayerCount: 2
Fore
SplineSet
203 321 m 0,0,1
 252 341 252 341 292 335 c 0,2,3
 317 330 317 330 337 318 c 0,4,5
 357 305 357 305 372 287 c 0,6,7
 395 261 395 261 406 237 c 0,8,9
 418 211 418 211 421 179 c 0,10,11
 422 126 422 126 386 76 c 0,12,13
 363 46 363 46 333 27 c 0,14,15
 304 8 304 8 259 -1 c 0,16,17
 234 -7 234 -7 212 -6 c 0,18,19
 191 -5 191 -5 165 2 c 0,20,21
 150 6 150 6 143 9 c 1,22,-1
 140 -227 l 2,23,24
 140 -236 140 -236 141 -240 c 0,25,26
 143 -251 143 -251 145 -254 c 0,27,28
 147 -259 147 -259 155 -263 c 128,-1,29
 163 -267 163 -267 168 -267 c 2,30,-1
 203 -269 l 1,31,-1
 207 -269 l 2,32,33
 209 -269 209 -269 210 -270 c 2,34,-1
 213 -273 l 1,35,-1
 213 -277 l 2,36,37
 213 -279 213 -279 212 -280 c 2,38,-1
 211 -281 l 2,39,40
 210 -282 210 -282 209 -282 c 0,41,42
 208 -283 208 -283 206 -283 c 2,43,-1
 202 -283 l 2,44,45
 168 -280 168 -280 125 -282 c 0,46,47
 87 -283 87 -283 42 -289 c 1,48,-1
 39 -289 l 2,49,50
 38 -289 38 -289 37 -288 c 128,-1,51
 36 -287 36 -287 36 -286 c 2,52,-1
 36 -284 l 1,53,-1
 36 -282 l 1,54,-1
 36 -281 l 2,55,56
 37 -280 37 -280 37 -279 c 128,-1,57
 37 -278 37 -278 39 -278 c 0,58,59
 40 -278 40 -278 40 -277.5 c 128,-1,60
 40 -277 40 -277 41 -277 c 2,61,-1
 51 -275 l 2,62,63
 60 -273 60 -273 64 -271 c 0,64,65
 69 -268 69 -268 74 -263 c 0,66,67
 80 -255 80 -255 80 -251 c 0,68,69
 82 -243 82 -243 83 -238 c 0,70,71
 87 -221 87 -221 89 -185 c 0,72,73
 94 -39 94 -39 93 65 c 0,74,75
 93 125 93 125 89 244 c 0,76,77
 89 258 89 258 87 265 c 0,78,79
 84 275 84 275 76.5 282.5 c 128,-1,80
 69 290 69 290 58 290 c 0,81,82
 51 290 51 290 38 285 c 2,83,-1
 29 281 l 2,84,85
 28 281 28 281 26 280 c 2,86,-1
 24 280 l 2,87,88
 21 280 21 280 19 282 c 0,89,90
 18 283 18 283 18 285 c 2,91,-1
 18 287 l 1,92,-1
 20 289 l 2,93,94
 21 289 21 289 21 290 c 2,95,-1
 23 291 l 2,96,97
 51 308 51 308 56 310 c 0,98,99
 94 329 94 329 102 335 c 2,100,-1
 127 354 l 1,101,-1
 128 354 l 2,102,103
 129 355 129 355 130 355 c 0,104,105
 131 356 131 356 132 356 c 128,-1,106
 133 356 133 356 135 354 c 2,107,-1
 136 353 l 1,108,-1
 136 352 l 1,109,-1
 139 320 l 2,110,111
 140 311 140 311 140 292 c 1,112,113
 181 312 181 312 203 321 c 0,0,1
300 280 m 0,114,115
 284 293 284 293 265 300 c 0,116,117
 243 308 243 308 224 306 c 0,118,119
 200 305 200 305 157 286 c 2,120,-1
 143 280 l 1,121,-1
 142 47 l 1,122,123
 171 35 171 35 201 26 c 0,124,125
 235 17 235 17 263 18 c 0,126,127
 306 21 306 21 335 49 c 0,128,129
 355 68 355 68 364 98 c 0,130,131
 372 122 372 122 368 156 c 0,132,133
 359 233 359 233 300 280 c 0,114,115
EndSplineSet
EndChar
StartChar: s
Encoding: 115 115 114
Width: 279
Flags: W
LayerCount: 2
Fore
SplineSet
61 289 m 0,0,1
 78 307 78 307 106 319 c 0,2,3
 128 328 128 328 149 330 c 0,4,5
 163 332 163 332 193 330 c 0,6,7
 203 329 203 329 229 325 c 1,8,-1
 239 261 l 1,9,-1
 239 259 l 1,10,-1
 239 256 l 2,11,12
 239 255 239 255 238 254 c 128,-1,13
 237 253 237 253 235 253 c 2,14,-1
 233 253 l 2,15,16
 232 253 232 253 231.5 254 c 128,-1,17
 231 255 231 255 230 256 c 128,-1,18
 229 257 229 257 229 258 c 0,19,20
 222 271 222 271 204 287 c 0,21,22
 181 305 181 305 156 311 c 0,23,24
 137 315 137 315 125 311 c 0,25,26
 110 306 110 306 99 296 c 0,27,28
 85 282 85 282 85 260 c 0,29,30
 85 244 85 244 100 227 c 0,31,32
 109 217 109 217 130 206 c 0,33,34
 138 202 138 202 153.5 196.5 c 128,-1,35
 169 191 169 191 177 187 c 0,36,37
 198 178 198 178 218 162 c 0,38,39
 235 148 235 148 245.5 132.5 c 128,-1,40
 256 117 256 117 259 95 c 0,41,42
 264 69 264 69 250 45 c 0,43,44
 249 43 249 43 247 41.5 c 128,-1,45
 245 40 245 40 244 38 c 0,46,47
 241 34 241 34 237 31 c 0,48,49
 212 9 212 9 184 0 c 0,50,51
 138 -15 138 -15 87 -7 c 0,52,53
 59 -2 59 -2 40 7 c 1,54,55
 39 20 39 20 35 42 c 0,56,57
 29 67 29 67 25 79 c 1,58,-1
 25 81 l 1,59,-1
 24 83 l 1,60,-1
 24 86 l 2,61,62
 24 88 24 88 25 89 c 0,63,64
 27 91 27 91 28 91 c 2,65,-1
 31 91 l 2,66,67
 32 91 32 91 34 89 c 0,68,69
 38 85 38 85 39 83 c 0,70,71
 52 62 52 62 54 60 c 0,72,73
 69 39 69 39 88 26.5 c 128,-1,74
 107 14 107 14 131 11 c 0,75,76
 157 8 157 8 179 16 c 0,77,78
 189 20 189 20 198.5 29.5 c 128,-1,79
 208 39 208 39 211 49 c 0,80,81
 216 66 216 66 210 81 c 128,-1,82
 204 96 204 96 193 110 c 0,83,84
 175 130 175 130 140 147 c 2,85,-1
 112 159 l 2,86,87
 92 168 92 168 81 174 c 0,88,89
 66 183 66 183 56 195 c 128,-1,90
 46 207 46 207 41 223 c 0,91,92
 36 242 36 242 42 259 c 0,93,94
 47 274 47 274 61 289 c 0,0,1
EndSplineSet
EndChar
StartChar: braceleft
Encoding: 123 123 122
Width: 268
Flags: W
LayerCount: 2
Fore
SplineSet
248 -112 m 0,0,1
 170 -112 170 -112 147.5 -103.5 c 128,-1,2
 125 -95 125 -95 112 -71 c 128,-1,3
 99 -47 99 -47 99 -8 c 2,4,-1
 99 147 l 2,5,6
 99 207 99 207 26 208 c 0,7,8
 24 208 24 208 22.5 213.5 c 128,-1,9
 21 219 21 219 26 219 c 0,10,11
 99 219 99 219 99 280 c 2,12,-1
 99 396 l 2,13,14
 99 451 99 451 114 478 c 0,15,16
 128 504 128 504 157 511 c 0,17,18
 183 518 183 518 248 518 c 0,19,20
 253 518 253 518 252.5 509.5 c 128,-1,21
 252 501 252 501 248 501 c 0,22,23
 192 501 192 501 170 483 c 0,24,25
 147 465 147 465 147 419 c 2,26,-1
 147 333 l 2,27,28
 147 275 147 275 143 259 c 0,29,30
 139 247 139 247 127 233 c 0,31,32
 116 220 116 220 90 216 c 1,33,-1
 90 214 l 1,34,35
 115 211 115 211 126 197 c 0,36,37
 140 180 140 180 143 166 c 0,38,39
 148 147 148 147 147 100 c 2,40,-1
 147 5 l 2,41,42
 147 -55 147 -55 169 -75 c 128,-1,43
 191 -95 191 -95 248 -95 c 0,44,45
 253 -95 253 -95 253 -103.5 c 128,-1,46
 253 -112 253 -112 248 -112 c 0,0,1
EndSplineSet
Substitution2: "'rtla' Right to Left Alternates lookup 0 subtable" braceright
EndChar
StartChar: braceright
Encoding: 125 125 124
Width: 282
Flags: W
LayerCount: 2
Fore
SplineSet
249 208 m 0,0,1
 212 208 212 208 193.5 193 c 128,-1,2
 175 178 175 178 176 147 c 2,3,-1
 176 -8 l 2,4,5
 176 -53 176 -53 159 -78 c 0,6,7
 141 -104 141 -104 111 -107 c 0,8,9
 76 -112 76 -112 27 -112 c 0,10,11
 21 -112 21 -112 21.5 -103.5 c 128,-1,12
 22 -95 22 -95 27 -95 c 0,13,14
 85 -95 85 -95 107 -75 c 128,-1,15
 129 -55 129 -55 129 5 c 2,16,-1
 129 100 l 2,17,18
 129 148 129 148 133.5 167 c 128,-1,19
 138 186 138 186 149 197 c 0,20,21
 161 208 161 208 185 214 c 1,22,-1
 185 216 l 1,23,24
 159 223 159 223 147 235 c 0,25,26
 136 247 136 247 132 261 c 0,27,28
 128 273 128 273 129 333 c 2,29,-1
 129 419 l 2,30,31
 129 464 129 464 104 483 c 0,32,33
 80 501 80 501 27 501 c 0,34,35
 21 501 21 501 21.5 509.5 c 128,-1,36
 22 518 22 518 27 518 c 0,37,38
 85 518 85 518 116 512.5 c 128,-1,39
 147 507 147 507 163 478 c 0,40,41
 176 452 176 452 176 396 c 2,42,-1
 176 280 l 2,43,44
 176 220 176 220 249 219 c 0,45,46
 252 219 252 219 252 213.5 c 128,-1,47
 252 208 252 208 249 208 c 0,0,1
EndSplineSet
Substitution2: "'rtla' Right to Left Alternates lookup 0 subtable" braceleft
EndChar
StartChar: uni0085
Encoding: 133 133 132
Width: 790
Flags: W
LayerCount: 2
Fore
SplineSet
308 398 m 1,0,-1
 468 398 l 1,1,-1
 483 347 l 1,2,3
 471 347 471 347 469 348 c 0,4,5
 468 348 468 348 463 358 c 0,6,7
 454 376 454 376 446 379 c 0,8,9
 443 380 443 380 422 381 c 2,10,-1
 370 381 l 1,11,-1
 370 312 l 1,12,-1
 410 312 l 2,13,14
 428 312 428 312 433 323 c 0,15,16
 434 326 434 326 434 339 c 1,17,-1
 449 339 l 1,18,-1
 449 268 l 1,19,-1
 434 268 l 1,20,21
 434 281 434 281 433 284 c 0,22,23
 428 295 428 295 410 295 c 2,24,-1
 370 295 l 1,25,-1
 370 226 l 1,26,-1
 422 226 l 2,27,28
 443 226 443 226 446 228 c 0,29,30
 454 231 454 231 463 249 c 0,31,32
 468 258 468 258 469 259 c 128,-1,33
 470 260 470 260 483 259 c 1,34,-1
 468 208 l 1,35,-1
 308 208 l 1,36,-1
 308 218 l 1,37,38
 329 218 329 218 333 231 c 0,39,40
 335 235 335 235 335 241 c 128,-1,41
 335 247 335 247 334.5 254.5 c 128,-1,42
 334 262 334 262 334 265 c 2,43,-1
 334 338 l 2,44,45
 334 341 334 341 334.5 349.5 c 128,-1,46
 335 358 335 358 335 365 c 128,-1,47
 335 372 335 372 333 376 c 0,48,49
 330 384 330 384 324.5 386 c 128,-1,50
 319 388 319 388 308 388 c 1,51,-1
 308 398 l 1,0,-1
505 187 m 1,52,-1
 594 187 l 1,53,-1
 594 178 l 1,54,55
 572 178 572 178 568 164 c 0,56,57
 566 158 566 158 566 149.5 c 128,-1,58
 566 141 566 141 567 130.5 c 128,-1,59
 568 120 568 120 568 116 c 2,60,-1
 568 15 l 1,61,-1
 620 15 l 2,62,63
 641 15 641 15 644 17 c 0,64,65
 652 20 652 20 661 38 c 0,66,67
 666 47 666 47 667 48 c 128,-1,68
 668 49 668 49 680 49 c 1,69,-1
 666 -2 l 1,70,-1
 505 -2 l 1,71,-1
 505 7 l 1,72,73
 526 7 526 7 531 20 c 0,74,75
 533 24 533 24 533 30 c 128,-1,76
 533 36 533 36 532.5 43.5 c 128,-1,77
 532 51 532 51 532 54 c 2,78,-1
 532 127 l 2,79,80
 532 130 532 130 532.5 138.5 c 128,-1,81
 533 147 533 147 532.5 154 c 128,-1,82
 532 161 532 161 531 165 c 0,83,84
 528 173 528 173 522 175 c 128,-1,85
 516 177 516 177 505 177 c 1,86,-1
 505 187 l 1,52,-1
89 618 m 1,87,-1
 127 618 l 1,88,-1
 144 617 l 1,89,-1
 155 606 l 1,90,-1
 178 578 l 1,91,-1
 258 485 l 1,92,-1
 258 562 l 2,93,94
 258 564 258 564 258.5 572.5 c 128,-1,95
 259 581 259 581 258.5 587 c 128,-1,96
 258 593 258 593 255 597 c 0,97,98
 253 602 253 602 248.5 604.5 c 128,-1,99
 244 607 244 607 241 607.5 c 128,-1,100
 238 608 238 608 231 608 c 1,101,-1
 231 618 l 1,102,-1
 306 618 l 1,103,-1
 306 608 l 1,104,105
 295 608 295 608 291 607 c 0,106,107
 287 605 287 605 284 601.5 c 128,-1,108
 281 598 281 598 280 592.5 c 128,-1,109
 279 587 279 587 279 584 c 2,110,-1
 279 573 l 1,111,-1
 279 564 l 1,112,-1
 279 428 l 1,113,114
 260 428 260 428 259 429 c 0,115,116
 255 432 255 432 250 437 c 128,-1,117
 245 442 245 442 240 449 c 2,118,-1
 233 459 l 1,119,-1
 176 525 l 1,120,-1
 166 536 l 2,121,122
 159 543 159 543 154 549 c 128,-1,123
 149 555 149 555 147 561 c 1,124,-1
 146 561 l 1,125,-1
 146 483 l 2,126,127
 146 480 146 480 145.5 474 c 128,-1,128
 145 468 145 468 145 464.5 c 128,-1,129
 145 461 145 461 146 456 c 128,-1,130
 147 451 147 451 149 448 c 0,131,132
 154 439 154 439 172 439 c 1,133,-1
 172 428 l 1,134,-1
 98 428 l 1,135,-1
 98 438 l 1,136,137
 119 438 119 438 123 453 c 0,138,139
 124 456 124 456 124 486 c 2,140,-1
 124 554 l 2,141,142
 124 557 124 557 124.5 565 c 128,-1,143
 125 573 125 573 125 579.5 c 128,-1,144
 125 586 125 586 123 590 c 0,145,146
 114 608 114 608 89 608 c 1,147,-1
 89 618 l 1,87,-1
EndSplineSet
EndChar
StartChar: uni0086
Encoding: 134 134 133
Width: 790
Flags: W
LayerCount: 2
Fore
SplineSet
585 137 m 1,0,-1
 561 78 l 1,1,-1
 610 78 l 1,2,-1
 595 116 l 1,3,-1
 585 137 l 1,0,-1
347 277 m 1,4,5
 350 240 350 240 379 232 c 0,6,7
 392 227 392 227 409.5 232 c 128,-1,8
 427 237 427 237 427.5 253.5 c 128,-1,9
 428 270 428 270 405 284 c 0,10,11
 399 288 399 288 384.5 295.5 c 128,-1,12
 370 303 370 303 359.5 310 c 128,-1,13
 349 317 349 317 342 325 c 0,14,15
 323 350 323 350 338 375.5 c 128,-1,16
 353 401 353 401 382 403 c 0,17,18
 395 404 395 404 410 400 c 2,19,-1
 417 398 l 2,20,21
 424 395 424 395 427 394.5 c 128,-1,22
 430 394 430 394 432 398 c 128,-1,23
 434 402 434 402 435 403 c 128,-1,24
 436 404 436 404 447 404 c 1,25,-1
 447 338 l 1,26,-1
 434 338 l 1,27,28
 429 374 429 374 408 382 c 0,29,30
 394 389 394 389 377 383 c 128,-1,31
 360 377 360 377 362 359 c 0,32,33
 364 346 364 346 391 330 c 0,34,35
 396 327 396 327 403.5 323 c 128,-1,36
 411 319 411 319 416 316 c 2,37,-1
 428 308 l 2,38,39
 436 304 436 304 440.5 300 c 128,-1,40
 445 296 445 296 450 290 c 128,-1,41
 455 284 455 284 456.5 278.5 c 128,-1,42
 458 273 458 273 459.5 265.5 c 128,-1,43
 461 258 461 258 457 250 c 0,44,45
 451 229 451 229 430.5 219.5 c 128,-1,46
 410 210 410 210 387 213 c 0,47,48
 384 213 384 213 378.5 215 c 128,-1,49
 373 217 373 217 368 218.5 c 128,-1,50
 363 220 363 220 358.5 220.5 c 128,-1,51
 354 221 354 221 351 219 c 128,-1,52
 348 217 348 217 347 212 c 1,53,-1
 333 212 l 1,54,-1
 333 277 l 1,55,-1
 347 277 l 1,4,5
484 7 m 1,56,57
 497 7 497 7 502 9 c 0,58,59
 506 11 506 11 509.5 14 c 128,-1,60
 513 17 513 17 515.5 22 c 128,-1,61
 518 27 518 27 519.5 30.5 c 128,-1,62
 521 34 521 34 523.5 40.5 c 128,-1,63
 526 47 526 47 527 49 c 2,64,-1
 567 144 l 1,65,-1
 580 176 l 2,66,67
 584 186 584 186 587 187 c 0,68,69
 591 190 591 190 595 188 c 128,-1,70
 599 186 599 186 601 186 c 128,-1,71
 603 186 603 186 605.5 182 c 128,-1,72
 608 178 608 178 609 176 c 128,-1,73
 610 174 610 174 612 169 c 128,-1,74
 614 164 614 164 614 162 c 2,75,-1
 654 67 l 1,76,-1
 667 37 l 2,77,78
 671 28 671 28 669 27 c 1,79,80
 678 9 678 9 702 8 c 1,81,-1
 702 -2 l 1,82,-1
 613 -2 l 1,83,-1
 613 7 l 1,84,85
 623 7 623 7 626 8 c 0,86,87
 630 9 630 9 632 12 c 128,-1,88
 634 15 634 15 633 20 c 128,-1,89
 632 25 632 25 631 28 c 128,-1,90
 630 31 630 31 628 36 c 2,91,-1
 625 42 l 2,92,93
 625 43 625 43 623 48 c 128,-1,94
 621 53 621 53 620 55 c 128,-1,95
 619 57 619 57 616.5 59.5 c 128,-1,96
 614 62 614 62 611 62 c 2,97,-1
 571 62 l 2,98,99
 557 62 557 62 556 60 c 0,100,101
 555 59 555 59 550 49 c 0,102,103
 549 48 549 48 546 42 c 2,104,-1
 542 34 l 2,105,106
 541 30 541 30 540 25.5 c 128,-1,107
 539 21 539 21 540 17 c 128,-1,108
 541 13 541 13 544 10 c 0,109,110
 546 8 546 8 560 8 c 1,111,-1
 560 -2 l 1,112,-1
 484 -2 l 1,113,-1
 484 7 l 1,56,57
149 492 m 1,114,115
 152 455 152 455 181 447 c 0,116,117
 194 442 194 442 211.5 447 c 128,-1,118
 229 452 229 452 229.5 468.5 c 128,-1,119
 230 485 230 485 207 499 c 0,120,121
 201 503 201 503 186.5 510.5 c 128,-1,122
 172 518 172 518 162 525 c 128,-1,123
 152 532 152 532 144 541 c 0,124,125
 125 566 125 566 140 591 c 128,-1,126
 155 616 155 616 185 619 c 0,127,128
 199 620 199 620 212 616 c 2,129,-1
 219 613 l 2,130,131
 226 610 226 610 229.5 610 c 128,-1,132
 233 610 233 610 234.5 613.5 c 128,-1,133
 236 617 236 617 237 618 c 128,-1,134
 238 619 238 619 250 619 c 1,135,-1
 250 553 l 1,136,-1
 236 553 l 1,137,138
 231 589 231 589 210 598 c 0,139,140
 196 605 196 605 179 598.5 c 128,-1,141
 162 592 162 592 165 574 c 0,142,143
 167 561 167 561 193 545 c 0,144,145
 198 542 198 542 206 538 c 2,146,-1
 218 531 l 2,147,148
 224 528 224 528 231.5 523.5 c 128,-1,149
 239 519 239 519 243 515 c 2,150,-1
 252 506 l 2,151,152
 258 500 258 500 259 494 c 2,153,-1
 262 481 l 2,154,155
 263 473 263 473 259 465 c 0,156,157
 253 444 253 444 232.5 434.5 c 128,-1,158
 212 425 212 425 189 428 c 0,159,160
 186 428 186 428 180 430 c 2,161,-1
 170 434 l 2,162,163
 166 435 166 435 161 435.5 c 128,-1,164
 156 436 156 436 153 434 c 128,-1,165
 150 432 150 432 149 427 c 1,166,-1
 135 427 l 1,167,-1
 135 492 l 1,168,-1
 149 492 l 1,114,115
EndSplineSet
EndChar
StartChar: uni0091
Encoding: 145 145 144
Width: 790
Flags: W
LayerCount: 2
Fore
SplineSet
292 404 m 1,0,-1
 381 404 l 1,1,-1
 381 394 l 1,2,3
 369 394 369 394 365 392 c 0,4,5
 359 389 359 389 356.5 382.5 c 128,-1,6
 354 376 354 376 353.5 370.5 c 128,-1,7
 353 365 353 365 353.5 355 c 128,-1,8
 354 345 354 345 354 343 c 2,9,-1
 354 322 l 1,10,-1
 354 302 l 2,11,12
 354 298 354 298 355 283.5 c 128,-1,13
 356 269 356 269 359 263 c 2,14,-1
 367 248 l 2,15,16
 372 238 372 238 380.5 234.5 c 128,-1,17
 389 231 389 231 401 230 c 0,18,19
 412 230 412 230 422 236 c 0,20,21
 433 242 433 242 439 251 c 128,-1,22
 445 260 445 260 447.5 273 c 128,-1,23
 450 286 450 286 450.5 293.5 c 128,-1,24
 451 301 451 301 450.5 318.5 c 128,-1,25
 450 336 450 336 450 340 c 0,26,27
 450 342 450 342 450.5 352.5 c 128,-1,28
 451 363 451 363 451 369 c 128,-1,29
 451 375 451 375 448 382.5 c 128,-1,30
 445 390 445 390 439 392 c 0,31,32
 437 393 437 393 424 393 c 1,33,-1
 424 404 l 1,34,-1
 499 404 l 1,35,-1
 499 394 l 1,36,37
 486 394 486 394 483 392 c 0,38,39
 477 389 477 389 474.5 381 c 128,-1,40
 472 373 472 373 471.5 366 c 128,-1,41
 471 359 471 359 472 348 c 128,-1,42
 473 337 473 337 473 334 c 2,43,-1
 473 315 l 1,44,-1
 473 295 l 2,45,46
 473 289 473 289 471.5 277 c 128,-1,47
 470 265 470 265 467.5 258 c 128,-1,48
 465 251 465 251 459.5 242.5 c 128,-1,49
 454 234 454 234 446 228 c 0,50,51
 437 221 437 221 429 218 c 0,52,53
 417 213 417 213 405 213 c 0,54,55
 374 213 374 213 351.5 226 c 128,-1,56
 329 239 329 239 321 267 c 0,57,58
 318 278 318 278 318 315 c 2,59,-1
 318 366 l 2,60,61
 318 385 318 385 310 391 c 0,62,63
 307 393 307 393 292 393 c 1,64,-1
 292 404 l 1,0,-1
597 189 m 1,65,-1
 615 189 l 1,66,-1
 615 53 l 2,67,68
 615 51 615 51 614.5 43 c 128,-1,69
 614 35 614 35 614 29.5 c 128,-1,70
 614 24 614 24 616 18 c 128,-1,71
 618 12 618 12 621 10 c 128,-1,72
 624 8 624 8 638 8 c 1,73,-1
 638 -2 l 1,74,-1
 564 -2 l 1,75,-1
 564 8 l 1,76,77
 580 8 580 8 584 12 c 0,78,79
 586 16 586 16 586.5 21 c 128,-1,80
 587 26 587 26 586.5 34.5 c 128,-1,81
 586 43 586 43 586 44 c 2,82,-1
 586 123 l 1,83,-1
 548 123 l 1,84,-1
 548 138 l 1,85,86
 586 138 586 138 597 189 c 1,65,-1
176 535 m 1,87,88
 202 532 202 532 209 532 c 0,89,90
 220 533 220 533 229 538 c 0,91,92
 243 545 243 545 246 561.5 c 128,-1,93
 249 578 249 578 237 589 c 0,94,95
 226 600 226 600 200 600 c 0,96,97
 179 600 179 600 177 596 c 0,98,99
 176 595 176 595 176 579 c 2,100,-1
 176 535 l 1,87,88
114 618 m 1,101,102
 198 618 198 618 211 617 c 0,103,104
 245 615 245 615 260 606 c 0,105,106
 281 593 281 593 281.5 565.5 c 128,-1,107
 282 538 282 538 261 525 c 0,108,109
 254 521 254 521 246 518.5 c 128,-1,110
 238 516 238 516 228 515 c 128,-1,111
 218 514 218 514 211 514 c 2,112,-1
 192 514 l 1,113,-1
 176 514 l 1,114,-1
 176 465 l 2,115,116
 176 446 176 446 185 440 c 0,117,118
 188 438 188 438 202 439 c 1,119,-1
 202 428 l 1,120,-1
 114 428 l 1,121,-1
 114 438 l 1,122,123
 134 438 134 438 139 451 c 0,124,125
 141 456 141 456 141.5 462.5 c 128,-1,126
 142 469 142 469 141.5 478.5 c 128,-1,127
 141 488 141 488 141 491 c 2,128,-1
 141 562 l 2,129,130
 141 564 141 564 141.5 572 c 128,-1,131
 142 580 142 580 141.5 585.5 c 128,-1,132
 141 591 141 591 139 595 c 0,133,134
 136 603 136 603 130.5 605.5 c 128,-1,135
 125 608 125 608 114 608 c 1,136,-1
 114 618 l 1,101,102
EndSplineSet
EndChar
StartChar: uni0096
Encoding: 150 150 149
Width: 790
Flags: W
LayerCount: 2
Fore
SplineSet
585 137 m 1,0,-1
 561 78 l 1,1,-1
 610 78 l 1,2,-1
 595 116 l 1,3,-1
 585 137 l 1,0,-1
484 7 m 1,4,5
 497 7 497 7 502 9 c 0,6,7
 506 11 506 11 509.5 14 c 128,-1,8
 513 17 513 17 515.5 22 c 128,-1,9
 518 27 518 27 519.5 30.5 c 128,-1,10
 521 34 521 34 523.5 40.5 c 128,-1,11
 526 47 526 47 527 49 c 2,12,-1
 567 144 l 1,13,-1
 580 176 l 2,14,15
 584 186 584 186 587 187 c 0,16,17
 591 190 591 190 595 188 c 128,-1,18
 599 186 599 186 601 186 c 128,-1,19
 603 186 603 186 605.5 182 c 128,-1,20
 608 178 608 178 609 176 c 128,-1,21
 610 174 610 174 612 169 c 128,-1,22
 614 164 614 164 614 162 c 2,23,-1
 654 67 l 1,24,-1
 667 37 l 2,25,26
 671 28 671 28 669 27 c 1,27,28
 678 9 678 9 702 8 c 1,29,-1
 702 -2 l 1,30,-1
 613 -2 l 1,31,-1
 613 7 l 1,32,33
 623 7 623 7 626 8 c 0,34,35
 630 9 630 9 632 12 c 128,-1,36
 634 15 634 15 633 20 c 128,-1,37
 632 25 632 25 631 28 c 128,-1,38
 630 31 630 31 628 36 c 2,39,-1
 625 42 l 2,40,41
 625 43 625 43 623 48 c 128,-1,42
 621 53 621 53 620 55 c 128,-1,43
 619 57 619 57 616.5 59.5 c 128,-1,44
 614 62 614 62 611 62 c 2,45,-1
 571 62 l 2,46,47
 557 62 557 62 556 60 c 0,48,49
 555 59 555 59 550 49 c 0,50,51
 549 48 549 48 546 42 c 2,52,-1
 542 34 l 2,53,54
 541 30 541 30 540 25.5 c 128,-1,55
 539 21 539 21 540 17 c 128,-1,56
 541 13 541 13 544 10 c 0,57,58
 546 8 546 8 560 8 c 1,59,-1
 560 -2 l 1,60,-1
 484 -2 l 1,61,-1
 484 7 l 1,4,5
374 315 m 1,62,63
 400 312 400 312 407 312 c 0,64,65
 418 313 418 313 428 318 c 0,66,67
 441 325 441 325 444 342 c 128,-1,68
 447 359 447 359 436 369 c 0,69,70
 425 380 425 380 398 380 c 0,71,72
 377 380 377 380 374 377 c 0,73,74
 373 376 373 376 374 360 c 2,75,-1
 374 315 l 1,62,63
312 398 m 1,76,77
 396 398 396 398 409 397 c 0,78,79
 444 395 444 395 459 386 c 0,80,81
 479 373 479 373 479 345.5 c 128,-1,82
 479 318 479 318 459 306 c 0,83,84
 452 302 452 302 443.5 299 c 128,-1,85
 435 296 435 296 425.5 295 c 128,-1,86
 416 294 416 294 409 294 c 128,-1,87
 402 294 402 294 390 294.5 c 128,-1,88
 378 295 378 295 374 295 c 1,89,-1
 374 245 l 2,90,91
 374 226 374 226 383 221 c 0,92,93
 386 219 386 219 400 219 c 1,94,-1
 400 208 l 1,95,-1
 312 208 l 1,96,-1
 312 218 l 1,97,98
 333 218 333 218 337 232 c 0,99,100
 338 236 338 236 338.5 242 c 128,-1,101
 339 248 339 248 338.5 255.5 c 128,-1,102
 338 263 338 263 338 266 c 2,103,-1
 338 336 l 2,104,105
 338 339 338 339 339 348 c 128,-1,106
 340 357 340 357 339.5 363.5 c 128,-1,107
 339 370 339 370 337 375 c 0,108,109
 334 383 334 383 328.5 385.5 c 128,-1,110
 323 388 323 388 312 388 c 1,111,-1
 312 398 l 1,76,77
149 492 m 1,112,113
 152 455 152 455 181 447 c 0,114,115
 194 442 194 442 211.5 447 c 128,-1,116
 229 452 229 452 229.5 468.5 c 128,-1,117
 230 485 230 485 207 499 c 0,118,119
 201 503 201 503 186.5 510.5 c 128,-1,120
 172 518 172 518 162 525 c 128,-1,121
 152 532 152 532 144 541 c 0,122,123
 125 566 125 566 140 591 c 128,-1,124
 155 616 155 616 185 619 c 0,125,126
 199 620 199 620 212 616 c 2,127,-1
 219 613 l 2,128,129
 226 610 226 610 229.5 610 c 128,-1,130
 233 610 233 610 234.5 613.5 c 128,-1,131
 236 617 236 617 237 618 c 128,-1,132
 238 619 238 619 250 619 c 1,133,-1
 250 553 l 1,134,-1
 236 553 l 1,135,136
 231 589 231 589 210 598 c 0,137,138
 196 605 196 605 179 598.5 c 128,-1,139
 162 592 162 592 165 574 c 0,140,141
 167 561 167 561 193 545 c 0,142,143
 198 542 198 542 206 538 c 2,144,-1
 218 531 l 2,145,146
 224 528 224 528 231.5 523.5 c 128,-1,147
 239 519 239 519 243 515 c 2,148,-1
 252 506 l 2,149,150
 258 500 258 500 259 494 c 2,151,-1
 262 481 l 2,152,153
 263 473 263 473 259 465 c 0,154,155
 253 444 253 444 232.5 434.5 c 128,-1,156
 212 425 212 425 189 428 c 0,157,158
 186 428 186 428 180 430 c 2,159,-1
 170 434 l 2,160,161
 166 435 166 435 161 435.5 c 128,-1,162
 156 436 156 436 153 434 c 128,-1,163
 150 432 150 432 149 427 c 1,164,-1
 135 427 l 1,165,-1
 135 492 l 1,166,-1
 149 492 l 1,112,113
EndSplineSet
EndChar
StartChar: uni0098
Encoding: 152 152 151
Width: 790
Flags: W
LayerCount: 2
Fore
SplineSet
545 62 m 1,0,1
 548 25 548 25 577 16 c 0,2,3
 590 11 590 11 607 16.5 c 128,-1,4
 624 22 624 22 624.5 38 c 128,-1,5
 625 54 625 54 603 68 c 0,6,7
 597 72 597 72 582 80 c 128,-1,8
 567 88 567 88 557 94.5 c 128,-1,9
 547 101 547 101 540 110 c 0,10,11
 521 135 521 135 536 160 c 128,-1,12
 551 185 551 185 580 188 c 0,13,14
 593 189 593 189 607 185 c 2,15,-1
 614 182 l 2,16,17
 622 179 622 179 625 179 c 128,-1,18
 628 179 628 179 630 183 c 128,-1,19
 632 187 632 187 633 187 c 0,20,21
 634 188 634 188 645 188 c 1,22,-1
 645 122 l 1,23,-1
 632 122 l 1,24,25
 627 158 627 158 606 167 c 0,26,27
 592 174 592 174 574.5 168 c 128,-1,28
 557 162 557 162 560 143 c 0,29,30
 562 130 562 130 589 114 c 0,31,32
 594 111 594 111 602 107 c 2,33,-1
 614 100 l 2,34,35
 619 98 619 98 626.5 93 c 128,-1,36
 634 88 634 88 638 84.5 c 128,-1,37
 642 81 642 81 647.5 75 c 128,-1,38
 653 69 653 69 654 64 c 2,39,-1
 656 50 l 2,40,41
 658 42 658 42 655 34 c 0,42,43
 644 -6 644 -6 584 -2 c 0,44,45
 581 -2 581 -2 575.5 -0.5 c 128,-1,46
 570 1 570 1 565.5 2.5 c 128,-1,47
 561 4 561 4 556 5 c 128,-1,48
 551 6 551 6 548 4 c 128,-1,49
 545 2 545 2 545 -3 c 1,50,-1
 531 -3 l 1,51,-1
 531 62 l 1,52,-1
 545 62 l 1,0,1
389 381 m 0,53,54
 365 378 365 378 351 350 c 0,55,56
 329 307 329 307 349 261 c 0,57,58
 356 244 356 244 369.5 233.5 c 128,-1,59
 383 223 383 223 401 225 c 0,60,61
 425 228 425 228 439 257 c 0,62,63
 461 301 461 301 441 346 c 0,64,65
 434 363 434 363 420 373 c 128,-1,66
 406 383 406 383 389 381 c 0,53,54
386 399 m 0,67,68
 399 401 399 401 417 397 c 0,69,70
 451 391 451 391 469 362 c 128,-1,71
 487 333 487 333 486 301 c 128,-1,72
 485 269 485 269 465 241 c 128,-1,73
 445 213 445 213 411 209 c 0,74,75
 384 205 384 205 363 213 c 0,76,77
 332 224 332 224 316.5 254.5 c 128,-1,78
 301 285 301 285 306 319 c 128,-1,79
 311 353 311 353 333 375 c 0,80,81
 352 394 352 394 386 399 c 0,67,68
149 492 m 1,82,83
 152 455 152 455 181 447 c 0,84,85
 194 442 194 442 211.5 447 c 128,-1,86
 229 452 229 452 229.5 468.5 c 128,-1,87
 230 485 230 485 207 499 c 0,88,89
 201 503 201 503 186.5 510.5 c 128,-1,90
 172 518 172 518 162 525 c 128,-1,91
 152 532 152 532 144 541 c 0,92,93
 125 566 125 566 140 591 c 128,-1,94
 155 616 155 616 185 619 c 0,95,96
 199 620 199 620 212 616 c 2,97,-1
 219 613 l 2,98,99
 226 610 226 610 229.5 610 c 128,-1,100
 233 610 233 610 234.5 613.5 c 128,-1,101
 236 617 236 617 237 618 c 128,-1,102
 238 619 238 619 250 619 c 1,103,-1
 250 553 l 1,104,-1
 236 553 l 1,105,106
 231 589 231 589 210 598 c 0,107,108
 196 605 196 605 179 598.5 c 128,-1,109
 162 592 162 592 165 574 c 0,110,111
 167 561 167 561 193 545 c 0,112,113
 198 542 198 542 206 538 c 2,114,-1
 218 531 l 2,115,116
 224 528 224 528 231.5 523.5 c 128,-1,117
 239 519 239 519 243 515 c 2,118,-1
 252 506 l 2,119,120
 258 500 258 500 259 494 c 2,121,-1
 262 481 l 2,122,123
 263 473 263 473 259 465 c 0,124,125
 253 444 253 444 232.5 434.5 c 128,-1,126
 212 425 212 425 189 428 c 0,127,128
 186 428 186 428 180 430 c 2,129,-1
 170 434 l 2,130,131
 166 435 166 435 161 435.5 c 128,-1,132
 156 436 156 436 153 434 c 128,-1,133
 150 432 150 432 149 427 c 1,134,-1
 135 427 l 1,135,-1
 135 492 l 1,136,-1
 149 492 l 1,82,83
EndSplineSet
EndChar
StartChar: uni009A
Encoding: 154 154 153
Width: 790
Flags: W
LayerCount: 2
Fore
SplineSet
468 255 m 1,0,1
 469 254 469 254 470 252 c 2,2,-1
 474 248 l 2,3,4
 475 246 475 246 474 245 c 0,5,6
 474 242 474 242 463 232 c 0,7,8
 440 213 440 213 417 212 c 0,9,10
 384 211 384 211 360 225 c 0,11,12
 330 243 330 243 319 279.5 c 128,-1,13
 308 316 308 316 323 348 c 0,14,15
 334 373 334 373 355.5 387.5 c 128,-1,16
 377 402 377 402 404 404 c 0,17,18
 421 405 421 405 432 401 c 2,19,-1
 438 398 l 2,20,21
 442 396 442 396 445 395 c 128,-1,22
 448 394 448 394 451 394 c 0,23,24
 456 395 456 395 457 404 c 1,25,-1
 471 404 l 1,26,-1
 471 339 l 1,27,-1
 457 339 l 1,28,29
 457 363 457 363 437 377 c 128,-1,30
 417 391 417 391 395 383 c 0,31,32
 375 376 375 376 361 351 c 0,33,34
 348 326 348 326 351.5 296.5 c 128,-1,35
 355 267 355 267 374 246 c 0,36,37
 392 227 392 227 422 230 c 128,-1,38
 452 233 452 233 468 255 c 1,0,1
549 187 m 1,39,-1
 637 187 l 1,40,-1
 637 178 l 1,41,42
 616 178 616 178 612 164 c 0,43,44
 611 160 611 160 610.5 154 c 128,-1,45
 610 148 610 148 610.5 140.5 c 128,-1,46
 611 133 611 133 611 130 c 2,47,-1
 611 59 l 2,48,49
 611 56 611 56 610.5 47 c 128,-1,50
 610 38 610 38 610 31.5 c 128,-1,51
 610 25 610 25 612 20 c 0,52,53
 615 12 615 12 620.5 10 c 128,-1,54
 626 8 626 8 637 8 c 1,55,-1
 637 -2 l 1,56,-1
 549 -2 l 1,57,-1
 549 7 l 1,58,59
 570 7 570 7 575 21 c 0,60,61
 576 25 576 25 576.5 31 c 128,-1,62
 577 37 577 37 576.5 44.5 c 128,-1,63
 576 52 576 52 576 55 c 2,64,-1
 576 125 l 2,65,66
 576 128 576 128 576.5 137 c 128,-1,67
 577 146 577 146 576.5 153 c 128,-1,68
 576 160 576 160 574 165 c 0,69,70
 571 173 571 173 565.5 175 c 128,-1,71
 560 177 560 177 549 177 c 1,72,-1
 549 187 l 1,39,-1
149 492 m 1,73,74
 152 455 152 455 181 447 c 0,75,76
 194 442 194 442 211.5 447 c 128,-1,77
 229 452 229 452 229.5 468.5 c 128,-1,78
 230 485 230 485 207 499 c 0,79,80
 201 503 201 503 186.5 510.5 c 128,-1,81
 172 518 172 518 162 525 c 128,-1,82
 152 532 152 532 144 541 c 0,83,84
 125 566 125 566 140 591 c 128,-1,85
 155 616 155 616 185 619 c 0,86,87
 199 620 199 620 212 616 c 2,88,-1
 219 613 l 2,89,90
 226 610 226 610 229.5 610 c 128,-1,91
 233 610 233 610 234.5 613.5 c 128,-1,92
 236 617 236 617 237 618 c 128,-1,93
 238 619 238 619 250 619 c 1,94,-1
 250 553 l 1,95,-1
 236 553 l 1,96,97
 231 589 231 589 210 598 c 0,98,99
 196 605 196 605 179 598.5 c 128,-1,100
 162 592 162 592 165 574 c 0,101,102
 167 561 167 561 193 545 c 0,103,104
 198 542 198 542 206 538 c 2,105,-1
 218 531 l 2,106,107
 224 528 224 528 231.5 523.5 c 128,-1,108
 239 519 239 519 243 515 c 2,109,-1
 252 506 l 2,110,111
 258 500 258 500 259 494 c 2,112,-1
 262 481 l 2,113,114
 263 473 263 473 259 465 c 0,115,116
 253 444 253 444 232.5 434.5 c 128,-1,117
 212 425 212 425 189 428 c 0,118,119
 186 428 186 428 180 430 c 2,120,-1
 170 434 l 2,121,122
 166 435 166 435 161 435.5 c 128,-1,123
 156 436 156 436 153 434 c 128,-1,124
 150 432 150 432 149 427 c 1,125,-1
 135 427 l 1,126,-1
 135 492 l 1,127,-1
 149 492 l 1,73,74
EndSplineSet
EndChar
StartChar: exclamdown
Encoding: 161 161 160
Width: 197
Flags: W
LayerCount: 2
Fore
SplineSet
135 328 m 0,0,1
 154 319 154 319 153 317 c 0,2,3
 145 309 145 309 129 288 c 0,4,5
 105 257 105 257 103 252 c 1,6,-1
 73 290 l 1,7,-1
 49 315 l 1,8,9
 77 330 77 330 93 369 c 1,10,11
 98 368 98 368 116 349 c 128,-1,12
 134 330 134 330 135 328 c 0,0,1
89 200 m 1,13,14
 98 198 98 198 102.5 191 c 128,-1,15
 107 184 107 184 108.5 173 c 128,-1,16
 110 162 110 162 109.5 153 c 128,-1,17
 109 144 109 144 108 131.5 c 128,-1,18
 107 119 107 119 107 114 c 0,19,20
 107 92 107 92 105.5 48 c 128,-1,21
 104 4 104 4 103.5 -22 c 128,-1,22
 103 -48 103 -48 109.5 -84.5 c 128,-1,23
 116 -121 116 -121 130 -149 c 1,24,-1
 29 -186 l 1,25,-1
 65 22 l 1,26,-1
 89 200 l 1,13,14
EndSplineSet
EndChar
StartChar: cent
Encoding: 162 162 161
Width: 346
Flags: W
LayerCount: 2
Fore
SplineSet
155 198 m 1,0,-1
 228 444 l 1,1,2
 205 450 205 450 175 447.5 c 128,-1,3
 145 445 145 445 127 428 c 0,4,5
 99 403 99 403 93 354.5 c 128,-1,6
 87 306 87 306 104 260 c 128,-1,7
 121 214 121 214 155 198 c 1,0,-1
267 585 m 1,8,-1
 289 577 l 1,9,-1
 260 487 l 2,10,11
 262 486 262 486 272.5 484.5 c 128,-1,12
 283 483 283 483 289.5 481.5 c 128,-1,13
 296 480 296 480 305 477 c 128,-1,14
 314 474 314 474 320 469.5 c 128,-1,15
 326 465 326 465 328 461 c 0,16,17
 334 450 334 450 322.5 434 c 128,-1,18
 311 418 311 418 300 416 c 0,19,20
 295 415 295 415 289.5 416 c 128,-1,21
 284 417 284 417 278 420 c 2,22,-1
 266 425 l 2,23,24
 262 427 262 427 254.5 431.5 c 128,-1,25
 247 436 247 436 246 437 c 2,26,-1
 170 183 l 1,27,28
 202 174 202 174 226.5 173 c 128,-1,29
 251 172 251 172 270 176.5 c 128,-1,30
 289 181 289 181 326 194 c 1,31,32
 326 188 326 188 323.5 182.5 c 128,-1,33
 321 177 321 177 318.5 173.5 c 128,-1,34
 316 170 316 170 309 165.5 c 128,-1,35
 302 161 302 161 300 160 c 128,-1,36
 298 159 298 159 289 154 c 0,37,38
 233 124 233 124 155 141 c 1,39,-1
 119 10 l 1,40,-1
 97 14 l 1,41,-1
 137 147 l 1,42,43
 90 156 90 156 65 195 c 128,-1,44
 40 234 40 234 40 285 c 0,45,46
 40 321 40 321 56 361 c 128,-1,47
 72 401 72 401 98.5 433 c 128,-1,48
 125 465 125 465 163.5 482.5 c 128,-1,49
 202 500 202 500 242 490 c 1,50,-1
 267 585 l 1,8,-1
EndSplineSet
EndChar
StartChar: ordfeminine
Encoding: 170 170 169
Width: 222
Flags: W
LayerCount: 2
Fore
SplineSet
141 465 m 1,0,1
 110 465 110 465 101 463 c 0,2,3
 85 459 85 459 80 457 c 0,4,5
 46 439 46 439 64 416 c 0,6,7
 80 398 80 398 107 401 c 0,8,9
 126 404 126 404 135 423 c 0,10,11
 140 433 140 433 141 465 c 1,0,1
32 530 m 1,12,13
 33 558 33 558 59.5 577 c 128,-1,14
 86 596 86 596 118 594.5 c 128,-1,15
 150 593 150 593 166 570 c 0,16,17
 180 551 180 551 180 520.5 c 128,-1,18
 180 490 180 490 175 468 c 128,-1,19
 170 446 170 446 180 418 c 0,20,21
 182 414 182 414 184 412 c 2,22,-1
 189 408 l 2,23,24
 191 407 191 407 194 407 c 2,25,-1
 200 407 l 2,26,27
 202 407 202 407 206 408.5 c 128,-1,28
 210 410 210 410 212 410.5 c 128,-1,29
 214 411 214 411 218.5 412.5 c 128,-1,30
 223 414 223 414 224 414 c 1,31,32
 218 397 218 397 201 387.5 c 128,-1,33
 184 378 184 378 165.5 381.5 c 128,-1,34
 147 385 147 385 141 404 c 1,35,36
 136 402 136 402 124 396.5 c 128,-1,37
 112 391 112 391 106 389 c 2,38,-1
 88 382 l 2,39,40
 75 378 75 378 69.5 378.5 c 128,-1,41
 64 379 64 379 51 379 c 0,42,43
 29 384 29 384 22.5 410.5 c 128,-1,44
 16 437 16 437 31 453 c 0,45,46
 56 480 56 480 141 487 c 0,47,48
 141 491 141 491 141.5 505 c 128,-1,49
 142 519 142 519 142 525.5 c 128,-1,50
 142 532 142 532 138.5 541.5 c 128,-1,51
 135 551 135 551 129 559 c 0,52,53
 115 575 115 575 94.5 571.5 c 128,-1,54
 74 568 74 568 76 545 c 1,55,-1
 32 530 l 1,12,13
EndSplineSet
EndChar
StartChar: guillemotleft
Encoding: 171 171 170
Width: 423
Flags: W
LayerCount: 2
Fore
SplineSet
389 349 m 1,0,-1
 391 348 l 1,1,-1
 389 349 l 1,0,-1
394 -5 m 2,2,3
 389 -4 389 -4 385.5 -3 c 128,-1,4
 382 -2 382 -2 379 -0.5 c 128,-1,5
 376 1 376 1 372 3.5 c 128,-1,6
 368 6 368 6 366 8 c 2,7,-1
 360 14 l 1,8,-1
 354 20 l 2,9,10
 353 21 353 21 349 26 c 128,-1,11
 345 31 345 31 344 31 c 2,12,-1
 255 130 l 2,13,14
 254 131 254 131 242.5 141.5 c 128,-1,15
 231 152 231 152 225.5 160 c 128,-1,16
 220 168 220 168 222 177 c 0,17,18
 225 191 225 191 240 208 c 128,-1,19
 255 225 255 225 277 244.5 c 128,-1,20
 299 264 299 264 304 270 c 0,21,22
 307 274 307 274 321.5 291.5 c 128,-1,23
 336 309 336 309 345 318.5 c 128,-1,24
 354 328 354 328 368 337.5 c 128,-1,25
 382 347 382 347 394 346 c 1,26,-1
 331 223 l 1,27,-1
 307 169 l 1,28,-1
 331 118 l 1,29,-1
 394 -5 l 2,2,3
206 -5 m 1,30,31
 200 -4 200 -4 195.5 -2 c 128,-1,32
 191 0 191 0 186 3 c 2,33,-1
 179 8 l 2,34,35
 176 10 176 10 171 15.5 c 128,-1,36
 166 21 166 21 164 23 c 128,-1,37
 162 25 162 25 157 31.5 c 128,-1,38
 152 38 152 38 150 39 c 0,39,40
 120 74 120 74 68 126 c 0,41,42
 67 128 67 128 61 134 c 2,43,-1
 51 142 l 2,44,45
 47 146 47 146 42.5 151.5 c 128,-1,46
 38 157 38 157 35.5 162.5 c 128,-1,47
 33 168 33 168 33 173 c 0,48,49
 33 177 33 177 35.5 181.5 c 128,-1,50
 38 186 38 186 40.5 188.5 c 128,-1,51
 43 191 43 191 48 195.5 c 128,-1,52
 53 200 53 200 54 202 c 0,53,54
 97 246 97 246 114 266 c 0,55,56
 118 270 118 270 128 283.5 c 128,-1,57
 138 297 138 297 146 306 c 2,58,-1
 165 326 l 2,59,60
 176 337 176 337 186.5 342 c 128,-1,61
 197 347 197 347 206 346 c 1,62,-1
 142 220 l 1,63,-1
 119 169 l 1,64,-1
 146 111 l 1,65,-1
 206 -5 l 1,30,31
EndSplineSet
EndChar
StartChar: logicalnot
Encoding: 172 172 171
Width: 616
Flags: W
LayerCount: 2
Fore
SplineSet
47 397 m 1,0,-1
 567 397 l 1,1,-1
 567 118 l 1,2,-1
 524 118 l 1,3,-1
 524 353 l 1,4,-1
 47 353 l 1,5,-1
 47 397 l 1,0,-1
EndSplineSet
EndChar
StartChar: uni00B3
Encoding: 179 179 178
Width: 289
Flags: W
LayerCount: 2
Fore
SplineSet
51 545 m 1,0,-1
 66 554 l 1,1,-1
 82 563 l 2,2,3
 90 567 90 567 97 570 c 0,4,5
 115 576 115 576 139.5 576 c 128,-1,6
 164 576 164 576 185.5 569 c 128,-1,7
 207 562 207 562 218 544.5 c 128,-1,8
 229 527 229 527 221 501 c 0,9,10
 217 489 217 489 201.5 471 c 128,-1,11
 186 453 186 453 184 451 c 1,12,13
 213 438 213 438 228 421 c 0,14,15
 257 390 257 390 250.5 361.5 c 128,-1,16
 244 333 244 333 219.5 312 c 128,-1,17
 195 291 195 291 160.5 280.5 c 128,-1,18
 126 270 126 270 97 276 c 0,19,20
 75 280 75 280 53 290.5 c 128,-1,21
 31 301 31 301 29 317 c 0,22,23
 29 323 29 323 32.5 331 c 128,-1,24
 36 339 36 339 42.5 347.5 c 128,-1,25
 49 356 49 356 51 361 c 1,26,-1
 72 350 l 1,27,28
 66 324 66 324 105 305 c 0,29,30
 128 295 128 295 157 302 c 128,-1,31
 186 309 186 309 199.5 328.5 c 128,-1,32
 213 348 213 348 198 378 c 0,33,34
 192 391 192 391 178.5 402.5 c 128,-1,35
 165 414 165 414 152 420 c 0,36,37
 143 423 143 423 136.5 421.5 c 128,-1,38
 130 420 130 420 123.5 422 c 128,-1,39
 117 424 117 424 112 433 c 1,40,41
 168 464 168 464 175 498 c 0,42,43
 181 523 181 523 169 535.5 c 128,-1,44
 157 548 157 548 137 548 c 128,-1,45
 117 548 117 548 97.5 542 c 128,-1,46
 78 536 78 536 65 527 c 1,47,-1
 61 527 l 1,48,-1
 51 545 l 1,0,-1
EndSplineSet
EndChar
StartChar: uni00B5
Encoding: 181 181 180
Width: 468
Flags: W
LayerCount: 2
Fore
SplineSet
51 346 m 1,0,-1
 112 346 l 1,1,-1
 112 162 l 1,2,-1
 112 145 l 1,3,-1
 112 124 l 2,4,5
 112 118 112 118 113.5 106.5 c 128,-1,6
 115 95 115 95 118 87 c 128,-1,7
 121 79 121 79 126 71 c 0,8,9
 145 42 145 42 181.5 40.5 c 128,-1,10
 218 39 218 39 251.5 58 c 128,-1,11
 285 77 285 77 300 104 c 0,12,13
 305 113 305 113 305.5 125 c 128,-1,14
 306 137 306 137 304.5 154.5 c 128,-1,15
 303 172 303 172 303 177 c 2,16,-1
 303 346 l 1,17,-1
 365 346 l 1,18,-1
 365 104 l 2,19,20
 367 36 367 36 398 31 c 0,21,22
 412 28 412 28 420.5 36 c 128,-1,23
 429 44 429 44 432.5 56 c 128,-1,24
 436 68 436 68 444 78 c 0,25,26
 450 89 450 89 462 90 c 1,27,28
 457 30 457 30 429 4 c 0,29,30
 398 -21 398 -21 371 -16.5 c 128,-1,31
 344 -12 344 -12 325 13.5 c 128,-1,32
 306 39 306 39 303 71 c 1,33,34
 277 45 277 45 258.5 30 c 128,-1,35
 240 15 240 15 210.5 1.5 c 128,-1,36
 181 -12 181 -12 152 -11 c 0,37,38
 123 -11 123 -11 101.5 3 c 128,-1,39
 80 17 80 17 76 43 c 1,40,-1
 72 43 l 1,41,42
 72 -46 72 -46 78 -77 c 0,43,44
 78 -80 78 -80 86.5 -113 c 128,-1,45
 95 -146 95 -146 93 -164 c 0,46,47
 90 -188 90 -188 68.5 -196.5 c 128,-1,48
 47 -205 47 -205 31 -185 c 0,49,50
 23 -173 23 -173 23 -151.5 c 128,-1,51
 23 -130 23 -130 28 -111 c 2,52,-1
 39 -68 l 2,53,54
 45 -44 45 -44 46 -33 c 0,55,56
 52 23 52 23 53 83 c 128,-1,57
 54 143 54 143 52.5 229 c 128,-1,58
 51 315 51 315 51 346 c 1,0,-1
EndSplineSet
EndChar
StartChar: uni00B9
Encoding: 185 185 184
Width: 289
Flags: W
LayerCount: 2
Fore
SplineSet
59 278 m 1,0,-1
 60 277 l 1,1,-1
 59 278 l 1,0,-1
83 278 m 1,2,-1
 83 274 l 1,3,-1
 188 274 l 1,4,-1
 83 278 l 1,2,-1
61 566 m 1,5,6
 111 566 111 566 174 575 c 0,7,8
 188 580 188 580 201.5 578.5 c 128,-1,9
 215 577 215 577 220 563 c 1,10,11
 202 563 202 563 190 553 c 128,-1,12
 178 543 178 543 172 527.5 c 128,-1,13
 166 512 166 512 164 489 c 128,-1,14
 162 466 162 466 163 448 c 128,-1,15
 164 430 164 430 165 407 c 128,-1,16
 166 384 166 384 166 375 c 2,17,-1
 166 362 l 1,18,-1
 166 346 l 2,19,20
 166 339 166 339 166.5 330.5 c 128,-1,21
 167 322 167 322 169.5 315.5 c 128,-1,22
 172 309 172 309 176 304 c 0,23,24
 187 292 187 292 228 292 c 1,25,-1
 228 274 l 1,26,27
 211 274 211 274 168 276 c 128,-1,28
 125 278 125 278 101 278 c 0,29,30
 98 278 98 278 88 276.5 c 128,-1,31
 78 275 78 275 73.5 275.5 c 128,-1,32
 69 276 69 276 64.5 279.5 c 128,-1,33
 60 283 60 283 57 292 c 1,34,35
 75 292 75 292 87.5 298 c 128,-1,36
 100 304 100 304 106.5 316 c 128,-1,37
 113 328 113 328 116.5 341 c 128,-1,38
 120 354 120 354 121 372 c 128,-1,39
 122 390 122 390 121.5 404.5 c 128,-1,40
 121 419 121 419 120 437.5 c 128,-1,41
 119 456 119 456 119 465 c 0,42,43
 119 468 119 468 120.5 488 c 128,-1,44
 122 508 122 508 120.5 520.5 c 128,-1,45
 119 533 119 533 113 540 c 0,46,47
 110 544 110 544 106 546.5 c 128,-1,48
 102 549 102 549 98 550 c 128,-1,49
 94 551 94 551 88 551.5 c 128,-1,50
 82 552 82 552 80 552 c 2,51,-1
 70 552 l 1,52,-1
 61 552 l 1,53,-1
 61 566 l 1,5,6
EndSplineSet
EndChar
StartChar: onequarter
Encoding: 188 188 187
Width: 636
Flags: W
LayerCount: 2
Fore
SplineSet
477 230 m 1,0,-1
 379 115 l 1,1,-1
 477 115 l 1,2,-1
 477 230 l 1,0,-1
57 566 m 1,3,-1
 210 581 l 1,4,-1
 213 566 l 1,5,6
 196 561 196 561 185 549 c 128,-1,7
 174 537 174 537 169 523 c 128,-1,8
 164 509 164 509 161.5 487.5 c 128,-1,9
 159 466 159 466 159.5 450.5 c 128,-1,10
 160 435 160 435 161.5 412 c 128,-1,11
 163 389 163 389 163 378 c 0,12,13
 163 376 163 376 162.5 361.5 c 128,-1,14
 162 347 162 347 162 339 c 128,-1,15
 162 331 162 331 164.5 320.5 c 128,-1,16
 167 310 167 310 172 304 c 0,17,18
 183 292 183 292 224 292 c 1,19,-1
 224 274 l 1,20,-1
 57 274 l 1,21,-1
 55 292 l 1,22,23
 72 292 72 292 83.5 298 c 128,-1,24
 95 304 95 304 101.5 316 c 128,-1,25
 108 328 108 328 112 341 c 128,-1,26
 116 354 116 354 116.5 372.5 c 128,-1,27
 117 391 117 391 117 404.5 c 128,-1,28
 117 418 117 418 116.5 437.5 c 128,-1,29
 116 457 116 457 116 465 c 0,30,31
 116 468 116 468 117 488 c 128,-1,32
 118 508 118 508 117 520.5 c 128,-1,33
 116 533 116 533 109 540 c 0,34,35
 106 544 106 544 102 546.5 c 128,-1,36
 98 549 98 549 95 550 c 128,-1,37
 92 551 92 551 85.5 551.5 c 128,-1,38
 79 552 79 552 76 552 c 2,39,-1
 66 552 l 1,40,-1
 57 552 l 1,41,-1
 57 566 l 1,3,-1
213 566 m 1,42,-1
 216 563 l 1,43,-1
 213 566 l 1,42,-1
328 90 m 1,44,45
 332 98 332 98 337.5 106.5 c 128,-1,46
 343 115 343 115 348 120.5 c 128,-1,47
 353 126 353 126 362 134 c 2,48,-1
 375 147 l 1,49,50
 452 235 452 235 468 256 c 0,51,52
 471 259 471 259 481 273 c 128,-1,53
 491 287 491 287 495.5 291.5 c 128,-1,54
 500 296 500 296 510 302 c 128,-1,55
 520 308 520 308 531 310 c 1,56,-1
 527 115 l 1,57,-1
 597 126 l 1,58,59
 591 106 591 106 582 97.5 c 128,-1,60
 573 89 573 89 560 89.5 c 128,-1,61
 547 90 547 90 527 90 c 1,62,-1
 527 76 l 1,63,-1
 527 62 l 2,64,65
 527 58 527 58 528 49.5 c 128,-1,66
 529 41 529 41 532 36 c 2,67,-1
 537 26 l 2,68,69
 540 21 540 21 546 18 c 128,-1,70
 552 15 552 15 560 14 c 1,71,-1
 560 -1 l 1,72,-1
 426 -5 l 1,73,-1
 426 14 l 1,74,75
 441 14 441 14 451 18 c 128,-1,76
 461 22 461 22 466 27.5 c 128,-1,77
 471 33 471 33 473.5 44.5 c 128,-1,78
 476 56 476 56 476.5 65 c 128,-1,79
 477 74 477 74 477 90 c 1,80,-1
 328 90 l 1,44,45
116 -37 m 1,81,-1
 212 126 l 1,82,-1
 393 454 l 1,83,-1
 450 566 l 1,84,-1
 478 613 l 1,85,-1
 520 624 l 1,86,87
 485 557 485 557 386.5 384.5 c 128,-1,88
 288 212 288 212 240 115 c 0,89,90
 235 107 235 107 224 81 c 128,-1,91
 213 55 213 55 204 38 c 128,-1,92
 195 21 195 21 181.5 1.5 c 128,-1,93
 168 -18 168 -18 151.5 -28 c 128,-1,94
 135 -38 135 -38 116 -37 c 1,81,-1
EndSplineSet
EndChar
StartChar: threequarters
Encoding: 190 190 189
Width: 636
Flags: W
LayerCount: 2
Fore
SplineSet
477 230 m 1,0,-1
 379 115 l 1,1,-1
 477 115 l 1,2,-1
 477 230 l 1,0,-1
47 545 m 1,3,-1
 72 558 l 1,4,-1
 94 568 l 2,5,6
 108 574 108 574 118.5 575.5 c 128,-1,7
 129 577 129 577 142 577 c 0,8,9
 156 578 156 578 170 574 c 0,10,11
 196 568 196 568 211 547.5 c 128,-1,12
 226 527 226 527 216 501 c 0,13,14
 213 493 213 493 207.5 484 c 128,-1,15
 202 475 202 475 193.5 466 c 128,-1,16
 185 457 185 457 180 451 c 1,17,18
 207 441 207 441 226 422 c 0,19,20
 255 391 255 391 247.5 362 c 128,-1,21
 240 333 240 333 215.5 312 c 128,-1,22
 191 291 191 291 156.5 280.5 c 128,-1,23
 122 270 122 270 94 276 c 0,24,25
 71 280 71 280 49.5 290.5 c 128,-1,26
 28 301 28 301 25 317 c 0,27,28
 24 323 24 323 27.5 331 c 128,-1,29
 31 339 31 339 38.5 349 c 128,-1,30
 46 359 46 359 47 361 c 2,31,-1
 68 350 l 1,32,33
 62 324 62 324 101 305 c 0,34,35
 125 295 125 295 154 302 c 128,-1,36
 183 309 183 309 196 328.5 c 128,-1,37
 209 348 209 348 195 378 c 0,38,39
 188 391 188 391 174.5 402.5 c 128,-1,40
 161 414 161 414 148 420 c 0,41,42
 139 423 139 423 132.5 421.5 c 128,-1,43
 126 420 126 420 119.5 422 c 128,-1,44
 113 424 113 424 108 433 c 1,45,46
 164 464 164 464 171 498 c 0,47,48
 177 523 177 523 165.5 535.5 c 128,-1,49
 154 548 154 548 134 548 c 128,-1,50
 114 548 114 548 94 542 c 128,-1,51
 74 536 74 536 61 527 c 1,52,-1
 57 527 l 1,53,-1
 47 545 l 1,3,-1
328 90 m 1,54,55
 332 98 332 98 337.5 106.5 c 128,-1,56
 343 115 343 115 348 120.5 c 128,-1,57
 353 126 353 126 362 134 c 2,58,-1
 375 147 l 1,59,60
 452 235 452 235 468 256 c 0,61,62
 471 259 471 259 481 273 c 128,-1,63
 491 287 491 287 495.5 291.5 c 128,-1,64
 500 296 500 296 510 302 c 128,-1,65
 520 308 520 308 531 310 c 1,66,-1
 527 115 l 1,67,-1
 597 126 l 1,68,69
 591 106 591 106 582 97.5 c 128,-1,70
 573 89 573 89 560 89.5 c 128,-1,71
 547 90 547 90 527 90 c 1,72,-1
 527 76 l 1,73,-1
 527 62 l 2,74,75
 527 58 527 58 528 49.5 c 128,-1,76
 529 41 529 41 532 36 c 2,77,-1
 537 26 l 2,78,79
 540 21 540 21 546 18 c 128,-1,80
 552 15 552 15 560 14 c 1,81,-1
 560 -1 l 1,82,-1
 426 -5 l 1,83,-1
 426 14 l 1,84,85
 441 14 441 14 451 18 c 128,-1,86
 461 22 461 22 466 27.5 c 128,-1,87
 471 33 471 33 473.5 44.5 c 128,-1,88
 476 56 476 56 476.5 65 c 128,-1,89
 477 74 477 74 477 90 c 1,90,-1
 328 90 l 1,54,55
116 -37 m 1,91,-1
 212 126 l 1,92,-1
 393 454 l 1,93,-1
 450 566 l 1,94,-1
 478 613 l 1,95,-1
 520 624 l 1,96,97
 485 557 485 557 386.5 384.5 c 128,-1,98
 288 212 288 212 240 115 c 0,99,100
 235 107 235 107 224 81 c 128,-1,101
 213 55 213 55 204 38 c 128,-1,102
 195 21 195 21 181.5 1.5 c 128,-1,103
 168 -18 168 -18 151.5 -28 c 128,-1,104
 135 -38 135 -38 116 -37 c 1,91,-1
EndSplineSet
EndChar
StartChar: questiondown
Encoding: 191 191 190
Width: 259
Flags: W
LayerCount: 2
Fore
SplineSet
185 328 m 0,0,1
 204 319 204 319 203 317 c 0,2,3
 195 309 195 309 179 288 c 0,4,5
 155 257 155 257 153 252 c 1,6,-1
 123 290 l 1,7,-1
 99 315 l 1,8,9
 127 330 127 330 143 369 c 1,10,11
 148 368 148 368 166 349 c 128,-1,12
 184 330 184 330 185 328 c 0,0,1
144 209 m 1,13,14
 158 199 158 199 158 158 c 128,-1,15
 158 117 158 117 148 102 c 0,16,17
 140 90 140 90 107.5 82.5 c 128,-1,18
 75 75 75 75 65 57 c 0,19,20
 42 14 42 14 65 -30 c 128,-1,21
 88 -74 88 -74 134 -88 c 0,22,23
 140 -89 140 -89 159 -90.5 c 128,-1,24
 178 -92 178 -92 192.5 -95 c 128,-1,25
 207 -98 207 -98 215 -105 c 0,26,27
 220 -110 220 -110 220.5 -122.5 c 128,-1,28
 221 -135 221 -135 219 -148 c 128,-1,29
 217 -161 217 -161 215 -176 c 128,-1,30
 213 -191 213 -191 213 -196 c 1,31,32
 202 -194 202 -194 190 -177 c 128,-1,33
 178 -160 178 -160 166 -156 c 0,34,35
 159 -153 159 -153 142 -149 c 128,-1,36
 125 -145 125 -145 113 -141 c 0,37,38
 101 -138 101 -138 91 -130 c 0,39,40
 58 -107 58 -107 43 -67.5 c 128,-1,41
 28 -28 28 -28 32.5 13.5 c 128,-1,42
 37 55 37 55 57 90 c 0,43,44
 67 106 67 106 92 124 c 128,-1,45
 117 142 117 142 125 152 c 0,46,47
 133 161 133 161 138 183 c 128,-1,48
 143 205 143 205 144 209 c 1,13,14
EndSplineSet
EndChar
StartChar: Ccedilla
Encoding: 199 199 192
Width: 555
Flags: W
LayerCount: 2
Fore
SplineSet
253 -86 m 1,0,-1
 256 -90 l 1,1,-1
 253 -86 l 1,0,-1
256 -86 m 1,2,3
 290 -4 290 -4 332 -3 c 1,4,-1
 307 -46 l 1,5,6
 337 -59 337 -59 355 -81.5 c 128,-1,7
 373 -104 373 -104 370.5 -131.5 c 128,-1,8
 368 -159 368 -159 340 -181 c 0,9,10
 297 -217 297 -217 213 -217 c 1,11,-1
 213 -194 l 1,12,13
 276 -194 276 -194 306 -167 c 0,14,15
 323 -153 323 -153 323.5 -135 c 128,-1,16
 324 -117 324 -117 306 -103 c 0,17,18
 300 -98 300 -98 291.5 -95.5 c 128,-1,19
 283 -93 283 -93 272 -90.5 c 128,-1,20
 261 -88 261 -88 256 -86 c 1,2,3
348 606 m 0,21,22
 407 606 407 606 486 578 c 0,23,24
 505 571 505 571 521 573 c 0,25,26
 533 576 533 576 536 576 c 0,27,28
 545 576 545 576 541 568 c 0,29,30
 523 527 523 527 517 466 c 0,31,32
 516 458 516 458 511 458 c 0,33,34
 500 458 500 458 501 474 c 0,35,36
 504 501 504 501 494.5 516 c 128,-1,37
 485 531 485 531 460 546 c 0,38,39
 440 558 440 558 402.5 569.5 c 128,-1,40
 365 581 365 581 333 581 c 0,41,42
 286 581 286 581 268 576 c 0,43,44
 208 558 208 558 164 510 c 0,45,46
 127 468 127 468 111 419 c 128,-1,47
 95 370 95 370 95 295 c 0,48,49
 95 229 95 229 112 186 c 0,50,51
 144 105 144 105 212 58 c 128,-1,52
 280 11 280 11 349 11 c 0,53,54
 413 11 413 11 460.5 44.5 c 128,-1,55
 508 78 508 78 520 126 c 0,56,57
 522 134 522 134 530 131 c 0,58,59
 539 130 539 130 537 122 c 0,60,61
 533 108 533 108 522 73 c 128,-1,62
 511 38 511 38 507 17 c 1,63,64
 388 -10 388 -10 332 -10 c 0,65,66
 202 -10 202 -10 110.5 75.5 c 128,-1,67
 19 161 19 161 19 287 c 0,68,69
 19 361 19 361 38 412.5 c 128,-1,70
 57 464 57 464 99 510 c 0,71,72
 156 569 156 569 256 594 c 0,73,74
 302 606 302 606 348 606 c 0,21,22
EndSplineSet
EndChar
StartChar: multiply
Encoding: 215 215 194
Width: 463
Flags: W
LayerCount: 2
Fore
SplineSet
78 372 m 1,0,1
 96 360 96 360 114.5 342.5 c 128,-1,2
 133 325 133 325 155 300.5 c 128,-1,3
 177 276 177 276 187 267 c 0,4,5
 190 264 190 264 199.5 253 c 128,-1,6
 209 242 209 242 216.5 234.5 c 128,-1,7
 224 227 224 227 231 226 c 0,8,9
 234 225 234 225 240 227.5 c 128,-1,10
 246 230 246 230 251 234 c 128,-1,11
 256 238 256 238 259.5 242 c 128,-1,12
 263 246 263 246 269 251 c 128,-1,13
 275 256 275 256 275 259 c 0,14,15
 286 270 286 270 311.5 292.5 c 128,-1,16
 337 315 337 315 354.5 334.5 c 128,-1,17
 372 354 372 354 385 372 c 1,18,-1
 411 351 l 1,19,-1
 411 347 l 1,20,-1
 297 236 l 2,21,22
 296 235 296 235 284.5 225 c 128,-1,23
 273 215 273 215 267 208 c 128,-1,24
 261 201 261 201 261 195.5 c 128,-1,25
 261 190 261 190 266.5 183 c 128,-1,26
 272 176 272 176 277 171 c 128,-1,27
 282 166 282 166 291.5 159 c 128,-1,28
 301 152 301 152 302 150 c 2,29,-1
 336 118 l 2,30,31
 355 102 355 102 378 78 c 0,32,33
 400 53 400 53 411 42 c 1,34,-1
 411 41 l 1,35,-1
 384 18 l 1,36,-1
 235 170 l 1,37,-1
 231 170 l 1,38,39
 214 145 214 145 189 120 c 128,-1,40
 164 95 164 95 129.5 64.5 c 128,-1,41
 95 34 95 34 82 18 c 1,42,-1
 78 18 l 1,43,-1
 57 41 l 1,44,-1
 57 42 l 1,45,-1
 169 156 l 1,46,-1
 203 195 l 1,47,-1
 174 230 l 1,48,-1
 87 314 l 1,49,-1
 61 347 l 1,50,-1
 78 372 l 1,0,1
EndSplineSet
EndChar
StartChar: acircumflex
Encoding: 226 226 200
Width: 344
Flags: W
LayerCount: 2
Fore
SplineSet
69 408 m 1,0,-1
 85 442 l 2,1,2
 94 461 94 461 102 473 c 2,3,-1
 121 507 l 2,4,5
 133 529 133 529 139 539 c 2,6,-1
 152 559 l 2,7,8
 156 565 156 565 166.5 571 c 128,-1,9
 177 577 177 577 191 575 c 0,10,11
 198 574 198 574 203.5 569 c 128,-1,12
 209 564 209 564 212 560 c 128,-1,13
 215 556 215 556 219.5 547 c 128,-1,14
 224 538 224 538 226 535 c 2,15,-1
 248 497 l 1,16,-1
 275 447 l 2,17,18
 286 427 286 427 295 408 c 1,19,20
 274 409 274 409 254 425.5 c 128,-1,21
 234 442 234 442 210 471 c 2,22,-1
 180 508 l 1,23,24
 164 477 164 477 130.5 443 c 128,-1,25
 97 409 97 409 69 408 c 1,0,-1
230 316 m 0,26,27
 241 306 241 306 251 290 c 0,28,29
 261 271 261 271 263 246 c 0,30,31
 265 208 265 208 264 189 c 0,32,33
 264 177 264 177 261.5 144.5 c 128,-1,34
 259 112 259 112 259 95 c 0,35,36
 259 69 259 69 260 56 c 0,37,38
 260 48 260 48 263 40 c 0,39,40
 265 32 265 32 272 26 c 0,41,42
 279 19 279 19 285 18 c 2,43,-1
 291 18 l 2,44,45
 292 18 292 18 298 21 c 2,46,-1
 318 27 l 1,47,-1
 320 27 l 2,48,49
 322 27 322 27 323 26 c 2,50,-1
 325 25 l 1,51,-1
 325 24 l 2,52,53
 326 23 326 23 326 22 c 2,54,-1
 326 18 l 1,55,-1
 326 15 l 1,56,-1
 324 13 l 2,57,58
 322 11 322 11 321 11 c 2,59,-1
 253 -13 l 2,60,61
 249 -15 249 -15 248 -15 c 2,62,-1
 244 -15 l 2,63,64
 243 -15 243 -15 241 -13 c 0,65,66
 235 -10 235 -10 231 -6 c 0,67,68
 222 3 222 3 219 8 c 0,69,70
 214 16 214 16 211 32 c 1,71,72
 178 12 178 12 168 8 c 0,73,74
 145 -3 145 -3 120.5 -9 c 128,-1,75
 96 -15 96 -15 75 -14 c 0,76,77
 66 -14 66 -14 60 -11 c 0,78,79
 51 -7 51 -7 46 -4 c 0,80,81
 40 2 40 2 38 9 c 0,82,83
 36 14 36 14 34 23 c 0,84,85
 31 38 31 38 31 55 c 0,86,87
 31 71 31 71 36 90 c 0,88,89
 38 96 38 96 41 102 c 0,90,91
 43 105 43 105 45 107 c 0,92,93
 46 108 46 108 47.5 109 c 128,-1,94
 49 110 49 110 50 111 c 0,95,96
 79 127 79 127 115 137 c 0,97,98
 146 146 146 146 188 152 c 2,99,-1
 210 155 l 1,100,-1
 212 207 l 2,101,102
 214 233 214 233 212 246 c 0,103,104
 209 267 209 267 197 282 c 0,105,106
 190 290 190 290 177 299 c 0,107,108
 158 312 158 312 147 314 c 0,109,110
 133 316 133 316 119 311 c 0,111,112
 108 306 108 306 100 298 c 0,113,114
 94 291 94 291 95 281 c 0,115,116
 95 271 95 271 96 265 c 1,117,-1
 49 244 l 1,118,-1
 47 252 l 2,119,120
 45 263 45 263 45 268 c 0,121,122
 45 276 45 276 50 284 c 0,123,124
 55 293 55 293 71 302 c 0,125,126
 92 315 92 315 112.5 323.5 c 128,-1,127
 133 332 133 332 163 338 c 2,128,-1
 182 341 l 2,129,130
 188 341 188 341 201 335 c 0,131,132
 220 325 220 325 230 316 c 0,26,27
96 19 m 0,133,134
 105 12 105 12 120 12 c 0,135,136
 132 12 132 12 146 15 c 0,137,138
 159 19 159 19 176 26 c 0,139,140
 197 35 197 35 209 47 c 1,141,142
 207 77 207 77 207 92 c 0,143,144
 207 119 207 119 208 132 c 1,145,146
 200 134 200 134 198 134 c 0,147,148
 188 135 188 135 164 133 c 0,149,150
 134 128 134 128 130 127 c 0,151,152
 108 120 108 120 95 108 c 0,153,154
 86 99 86 99 81 79 c 0,155,156
 77 64 77 64 80 47 c 0,157,158
 81 39 81 39 86 32 c 0,159,160
 92 21 92 21 96 19 c 0,133,134
EndSplineSet
EndChar
StartChar: adieresis
Encoding: 228 228 202
Width: 344
Flags: W
LayerCount: 2
Fore
SplineSet
279 468 m 0,0,1
 295 461 295 461 294 460 c 0,2,3
 287 453 287 453 274 437 c 0,4,5
 255 412 255 412 253 408 c 1,6,-1
 229 438 l 1,7,-1
 210 458 l 1,8,9
 232 470 232 470 245 501 c 1,10,11
 249 500 249 500 263.5 485 c 128,-1,12
 278 470 278 470 279 468 c 0,0,1
139 468 m 0,13,14
 155 461 155 461 154 460 c 0,15,16
 147 453 147 453 134 437 c 0,17,18
 115 412 115 412 113 408 c 1,19,-1
 89 438 l 1,20,-1
 70 458 l 1,21,22
 92 470 92 470 105 501 c 1,23,24
 109 500 109 500 123.5 485 c 128,-1,25
 138 470 138 470 139 468 c 0,13,14
230 316 m 0,26,27
 241 306 241 306 251 290 c 0,28,29
 261 271 261 271 263 246 c 0,30,31
 265 208 265 208 264 189 c 0,32,33
 264 177 264 177 261.5 144.5 c 128,-1,34
 259 112 259 112 259 95 c 0,35,36
 259 69 259 69 260 56 c 0,37,38
 260 48 260 48 263 40 c 0,39,40
 265 32 265 32 272 26 c 0,41,42
 279 19 279 19 285 18 c 2,43,-1
 291 18 l 2,44,45
 292 18 292 18 298 21 c 2,46,-1
 318 27 l 1,47,-1
 320 27 l 2,48,49
 322 27 322 27 323 26 c 2,50,-1
 325 25 l 1,51,-1
 325 24 l 2,52,53
 326 23 326 23 326 22 c 2,54,-1
 326 18 l 1,55,-1
 326 15 l 1,56,-1
 324 13 l 2,57,58
 322 11 322 11 321 11 c 2,59,-1
 253 -13 l 2,60,61
 249 -15 249 -15 248 -15 c 2,62,-1
 244 -15 l 2,63,64
 243 -15 243 -15 241 -13 c 0,65,66
 235 -10 235 -10 231 -6 c 0,67,68
 222 3 222 3 219 8 c 0,69,70
 214 16 214 16 211 32 c 1,71,72
 178 12 178 12 168 8 c 0,73,74
 145 -3 145 -3 120.5 -9 c 128,-1,75
 96 -15 96 -15 75 -14 c 0,76,77
 66 -14 66 -14 60 -11 c 0,78,79
 51 -7 51 -7 46 -4 c 0,80,81
 40 2 40 2 38 9 c 0,82,83
 36 14 36 14 34 23 c 0,84,85
 31 38 31 38 31 55 c 0,86,87
 31 71 31 71 36 90 c 0,88,89
 38 96 38 96 41 102 c 0,90,91
 43 105 43 105 45 107 c 0,92,93
 46 108 46 108 47.5 109 c 128,-1,94
 49 110 49 110 50 111 c 0,95,96
 79 127 79 127 115 137 c 0,97,98
 146 146 146 146 188 152 c 2,99,-1
 210 155 l 1,100,-1
 212 207 l 2,101,102
 214 233 214 233 212 246 c 0,103,104
 209 267 209 267 197 282 c 0,105,106
 190 290 190 290 177 299 c 0,107,108
 158 312 158 312 147 314 c 0,109,110
 133 316 133 316 119 311 c 0,111,112
 108 306 108 306 100 298 c 0,113,114
 94 291 94 291 95 281 c 0,115,116
 95 271 95 271 96 265 c 1,117,-1
 49 244 l 1,118,-1
 47 252 l 2,119,120
 45 263 45 263 45 268 c 0,121,122
 45 276 45 276 50 284 c 0,123,124
 55 293 55 293 71 302 c 0,125,126
 92 315 92 315 112.5 323.5 c 128,-1,127
 133 332 133 332 163 338 c 2,128,-1
 182 341 l 2,129,130
 188 341 188 341 201 335 c 0,131,132
 220 325 220 325 230 316 c 0,26,27
96 19 m 0,133,134
 105 12 105 12 120 12 c 0,135,136
 132 12 132 12 146 15 c 0,137,138
 159 19 159 19 176 26 c 0,139,140
 197 35 197 35 209 47 c 1,141,142
 207 77 207 77 207 92 c 0,143,144
 207 119 207 119 208 132 c 1,145,146
 200 134 200 134 198 134 c 0,147,148
 188 135 188 135 164 133 c 0,149,150
 134 128 134 128 130 127 c 0,151,152
 108 120 108 120 95 108 c 0,153,154
 86 99 86 99 81 79 c 0,155,156
 77 64 77 64 80 47 c 0,157,158
 81 39 81 39 86 32 c 0,159,160
 92 21 92 21 96 19 c 0,133,134
EndSplineSet
EndChar
StartChar: aring
Encoding: 229 229 203
Width: 344
Flags: W
LayerCount: 2
Fore
SplineSet
162.5 534.5 m 128,-1,1
 133 527 133 527 127.5 499 c 128,-1,2
 122 471 122 471 140 449 c 0,3,4
 159 426 159 426 189 434 c 0,5,6
 218 442 218 442 224 470 c 128,-1,7
 230 498 230 498 211 520 c 128,-1,0
 192 542 192 542 162.5 534.5 c 128,-1,1
159 556.5 m 128,-1,9
 185 563 185 563 206.5 552 c 128,-1,10
 228 541 228 541 237 521 c 128,-1,11
 246 501 246 501 246.5 478.5 c 128,-1,12
 247 456 247 456 232.5 437 c 128,-1,13
 218 418 218 418 192 412 c 128,-1,14
 166 406 166 406 144.5 417 c 128,-1,15
 123 428 123 428 114 448.5 c 128,-1,16
 105 469 105 469 104.5 490.5 c 128,-1,17
 104 512 104 512 118.5 531 c 128,-1,8
 133 550 133 550 159 556.5 c 128,-1,9
230 316 m 0,18,19
 241 306 241 306 251 290 c 0,20,21
 261 271 261 271 263 246 c 0,22,23
 265 208 265 208 264 189 c 0,24,25
 264 177 264 177 261.5 144.5 c 128,-1,26
 259 112 259 112 259 95 c 0,27,28
 259 69 259 69 260 56 c 0,29,30
 260 48 260 48 263 40 c 0,31,32
 265 32 265 32 272 26 c 0,33,34
 279 19 279 19 285 18 c 2,35,-1
 291 18 l 2,36,37
 292 18 292 18 298 21 c 2,38,-1
 318 27 l 1,39,-1
 320 27 l 2,40,41
 322 27 322 27 323 26 c 2,42,-1
 325 25 l 1,43,-1
 325 24 l 2,44,45
 326 23 326 23 326 22 c 2,46,-1
 326 18 l 1,47,-1
 326 15 l 1,48,-1
 324 13 l 2,49,50
 322 11 322 11 321 11 c 2,51,-1
 253 -13 l 2,52,53
 249 -15 249 -15 248 -15 c 2,54,-1
 244 -15 l 2,55,56
 243 -15 243 -15 241 -13 c 0,57,58
 235 -10 235 -10 231 -6 c 0,59,60
 222 3 222 3 219 8 c 0,61,62
 214 16 214 16 211 32 c 1,63,64
 178 12 178 12 168 8 c 0,65,66
 145 -3 145 -3 120.5 -9 c 128,-1,67
 96 -15 96 -15 75 -14 c 0,68,69
 66 -14 66 -14 60 -11 c 0,70,71
 51 -7 51 -7 46 -4 c 0,72,73
 40 2 40 2 38 9 c 0,74,75
 36 14 36 14 34 23 c 0,76,77
 31 38 31 38 31 55 c 0,78,79
 31 71 31 71 36 90 c 0,80,81
 38 96 38 96 41 102 c 0,82,83
 43 105 43 105 45 107 c 0,84,85
 46 108 46 108 47.5 109 c 128,-1,86
 49 110 49 110 50 111 c 0,87,88
 79 127 79 127 115 137 c 0,89,90
 146 146 146 146 188 152 c 2,91,-1
 210 155 l 1,92,-1
 212 207 l 2,93,94
 214 233 214 233 212 246 c 0,95,96
 209 267 209 267 197 282 c 0,97,98
 190 290 190 290 177 299 c 0,99,100
 158 312 158 312 147 314 c 0,101,102
 133 316 133 316 119 311 c 0,103,104
 108 306 108 306 100 298 c 0,105,106
 94 291 94 291 95 281 c 0,107,108
 95 271 95 271 96 265 c 1,109,-1
 49 244 l 1,110,-1
 47 252 l 2,111,112
 45 263 45 263 45 268 c 0,113,114
 45 276 45 276 50 284 c 0,115,116
 55 293 55 293 71 302 c 0,117,118
 92 315 92 315 112.5 323.5 c 128,-1,119
 133 332 133 332 163 338 c 2,120,-1
 182 341 l 2,121,122
 188 341 188 341 201 335 c 0,123,124
 220 325 220 325 230 316 c 0,18,19
96 19 m 0,125,126
 105 12 105 12 120 12 c 0,127,128
 132 12 132 12 146 15 c 0,129,130
 159 19 159 19 176 26 c 0,131,132
 197 35 197 35 209 47 c 1,133,134
 207 77 207 77 207 92 c 0,135,136
 207 119 207 119 208 132 c 1,137,138
 200 134 200 134 198 134 c 0,139,140
 188 135 188 135 164 133 c 0,141,142
 134 128 134 128 130 127 c 0,143,144
 108 120 108 120 95 108 c 0,145,146
 86 99 86 99 81 79 c 0,147,148
 77 64 77 64 80 47 c 0,149,150
 81 39 81 39 86 32 c 0,151,152
 92 21 92 21 96 19 c 0,125,126
EndSplineSet
EndChar
StartChar: ccedilla
Encoding: 231 231 205
Width: 341
Flags: W
LayerCount: 2
Fore
SplineSet
150 -81 m 1,0,-1
 153 -85 l 1,1,-1
 150 -81 l 1,0,-1
153 -81 m 1,2,3
 187 1 187 1 229 2 c 1,4,-1
 204 -41 l 1,5,6
 234 -54 234 -54 252 -76.5 c 128,-1,7
 270 -99 270 -99 267.5 -126.5 c 128,-1,8
 265 -154 265 -154 237 -176 c 0,9,10
 194 -212 194 -212 110 -212 c 1,11,-1
 110 -189 l 1,12,13
 173 -189 173 -189 203 -162 c 0,14,15
 220 -148 220 -148 220.5 -130 c 128,-1,16
 221 -112 221 -112 203 -98 c 0,17,18
 197 -93 197 -93 188.5 -90.5 c 128,-1,19
 180 -88 180 -88 169 -85.5 c 128,-1,20
 158 -83 158 -83 153 -81 c 1,2,3
26 164 m 0,21,22
 31 217 31 217 58 259 c 0,23,24
 86 302 86 302 130 327 c 0,25,26
 155 342 155 342 186 348 c 0,27,28
 215 354 215 354 245 348 c 0,29,30
 259 345 259 345 287 334 c 0,31,32
 302 328 302 328 309 324 c 0,33,34
 310 323 310 323 311 323 c 128,-1,35
 312 323 312 323 313 322 c 128,-1,36
 314 321 314 321 315 320.5 c 128,-1,37
 316 320 316 320 316 319 c 0,38,39
 317 318 317 318 317 314 c 0,40,41
 317 312 317 312 315 310 c 2,42,-1
 303 292 l 2,43,44
 301 289 301 289 298 285 c 0,45,46
 293 279 293 279 291 280 c 0,47,48
 288 279 288 279 283 279 c 2,49,-1
 274 282 l 1,50,-1
 239 296 l 2,51,52
 194 313 194 313 168 312 c 0,53,54
 150 312 150 312 132 304 c 0,55,56
 116 297 116 297 104 283 c 0,57,58
 89 264 89 264 83 244 c 0,59,60
 67 188 67 188 85 131 c 0,61,62
 105 71 105 71 157 43 c 0,63,64
 217 12 217 12 280 38 c 0,65,66
 292 43 292 43 302 49 c 2,67,-1
 304 51 l 1,68,-1
 307 51 l 1,69,-1
 308 51 l 1,70,-1
 310 50 l 1,71,-1
 312 48 l 2,72,73
 313 47 313 47 313 46 c 2,74,-1
 313 43 l 2,75,76
 313 41 313 41 312 41 c 2,77,-1
 310 39 l 2,78,79
 303 34 303 34 290 26 c 0,80,81
 256 5 256 5 229 0 c 0,82,83
 170 -14 170 -14 110 12 c 0,84,85
 82 24 82 24 62 44 c 0,86,87
 39 69 39 69 30 106 c 0,88,89
 23 136 23 136 26 164 c 0,21,22
EndSplineSet
EndChar
StartChar: eacute
Encoding: 233 233 207
Width: 338
Flags: W
LayerCount: 2
Fore
SplineSet
169 428 m 2,0,1
 167 424 167 424 167 421 c 0,2,3
 167 408 167 408 180 408 c 0,4,5
 190 408 190 408 194 418 c 2,6,-1
 251 511 l 2,7,8
 253 513 253 513 253 516 c 0,9,10
 253 525 253 525 239 532 c 0,11,12
 230 535 230 535 224 535 c 0,13,14
 215 535 215 535 214 529 c 2,15,-1
 169 428 l 2,0,1
48 247 m 0,16,17
 74 294 74 294 126 319 c 0,18,19
 158 334 158 334 191 331 c 0,20,21
 232 327 232 327 266 296 c 0,22,23
 284 280 284 280 297 257 c 0,24,25
 301 251 301 251 302 251 c 2,26,-1
 308 245 l 2,27,28
 309 244 309 244 310.5 243 c 128,-1,29
 312 242 312 242 313 242 c 0,30,31
 316 241 316 241 317 238 c 2,32,-1
 317 235 l 2,33,34
 317 233 317 233 316 233 c 2,35,-1
 314 231 l 1,36,-1
 311 231 l 1,37,-1
 250 218 l 1,38,-1
 78 184 l 1,39,40
 75 145 75 145 87 111 c 0,41,42
 96 87 96 87 112 66 c 0,43,44
 127 47 127 47 151 35 c 0,45,46
 178 22 178 22 210 24 c 0,47,48
 234 25 234 25 268 39 c 0,49,50
 293 50 293 50 304 58 c 1,51,-1
 310 50 l 1,52,53
 286 32 286 32 258 17 c 0,54,55
 220 -3 220 -3 176 -6 c 0,56,57
 131 -9 131 -9 94 14 c 0,58,59
 57 38 57 38 39 82 c 0,60,61
 24 119 24 119 26 168 c 0,62,63
 29 214 29 214 48 247 c 0,16,17
211 294 m 0,64,65
 182 315 182 315 153 314 c 0,66,67
 131 314 131 314 114 299 c 0,68,69
 99 286 99 286 93 268 c 0,70,71
 88 256 88 256 83 235 c 0,72,73
 80 223 80 223 78 198 c 1,74,-1
 222 229 l 2,75,76
 224 229 224 229 227 230 c 128,-1,77
 230 231 230 231 232 231 c 2,78,-1
 241 234 l 2,79,80
 244 235 244 235 245 238 c 0,81,82
 247 242 247 242 247 243 c 2,83,-1
 247 248 l 2,84,85
 247 249 247 249 245 252 c 0,86,87
 233 278 233 278 211 294 c 0,64,65
EndSplineSet
EndChar
StartChar: oacute
Encoding: 243 243 217
Width: 411
Flags: W
LayerCount: 2
Fore
SplineSet
203 429 m 2,0,1
 201 425 201 425 201 422 c 0,2,3
 201 409 201 409 214 409 c 0,4,5
 224 409 224 409 228 419 c 2,6,-1
 285 512 l 2,7,8
 287 514 287 514 287 517 c 0,9,10
 287 526 287 526 273 533 c 0,11,12
 264 536 264 536 258 536 c 0,13,14
 249 536 249 536 248 530 c 2,15,-1
 203 429 l 2,0,1
133 331 m 0,16,17
 181 352 181 352 229 348 c 0,18,19
 279 343 279 343 319 314 c 0,20,21
 368 277 368 277 382 218 c 0,22,23
 397 158 397 158 373 104 c 0,24,25
 354 57 354 57 312 27 c 0,26,27
 255 -12 255 -12 182 -1 c 0,28,29
 116 9 116 9 72 56 c 0,30,31
 26 104 26 104 24 169 c 0,32,33
 24 223 24 223 54 267 c 0,34,35
 83 308 83 308 133 331 c 0,16,17
193 328 m 0,36,37
 165 328 165 328 143 316 c 0,38,39
 119 303 119 303 104 282 c 0,40,41
 78 247 78 247 78 196 c 0,42,43
 78 148 78 148 98 107 c 0,44,45
 116 66 116 66 149 41 c 0,46,47
 186 12 186 12 227 14 c 0,48,49
 253 15 253 15 276 32 c 0,50,51
 294 44 294 44 306 64 c 0,52,53
 331 104 331 104 333 150 c 0,54,55
 334 203 334 203 305 253 c 0,56,57
 283 288 283 288 259 305 c 0,58,59
 227 328 227 328 193 328 c 0,36,37
EndSplineSet
EndChar
StartChar: divide
Encoding: 247 247 221
Width: 465
Flags: W
LayerCount: 2
Fore
SplineSet
227.5 66 m 128,-1,1
 241 70 241 70 249 61 c 128,-1,2
 257 52 257 52 255 39.5 c 128,-1,3
 253 27 253 27 240.5 23 c 128,-1,4
 228 19 228 19 219 28.5 c 128,-1,5
 210 38 210 38 212 50 c 128,-1,0
 214 62 214 62 227.5 66 c 128,-1,1
227.5 367.5 m 128,-1,7
 241 372 241 372 249 362.5 c 128,-1,8
 257 353 257 353 255 340 c 128,-1,9
 253 327 253 327 240.5 323 c 128,-1,10
 228 319 228 319 219 329 c 128,-1,11
 210 339 210 339 212 351 c 128,-1,6
 214 363 214 363 227.5 367.5 c 128,-1,7
38 210 m 1,12,-1
 429 210 l 1,13,-1
 429 177 l 1,14,-1
 38 177 l 1,15,-1
 38 210 l 1,12,-1
EndSplineSet
EndChar
StartChar: dcroat
Encoding: 273 273 240
Width: 440
Flags: W
LayerCount: 2
Fore
SplineSet
317 483 m 1,0,-1
 440 483 l 1,1,-1
 440 459 l 1,2,-1
 317 459 l 1,3,-1
 219 459 l 1,4,-1
 219 483 l 1,5,-1
 317 483 l 1,0,-1
89 283 m 0,6,7
 119 308 119 308 157 323 c 0,8,9
 193 339 193 339 229 338 c 0,10,11
 241 337 241 337 261 334 c 0,12,13
 267 333 267 333 278 330 c 2,14,-1
 296 325 l 2,15,16
 297 325 297 325 298.5 324.5 c 128,-1,17
 300 324 300 324 301 324 c 0,18,19
 304 324 304 324 305.5 326 c 128,-1,20
 307 328 307 328 307 330 c 0,21,22
 307 331 307 331 307.5 332.5 c 128,-1,23
 308 334 308 334 308 335 c 0,24,25
 311 403 311 403 310 457 c 0,26,27
 308 508 308 508 306 533 c 0,28,29
 306 542 306 542 305 545 c 0,30,31
 304 551 304 551 302 556 c 0,32,33
 299 562 299 562 292 563 c 2,34,-1
 286 563 l 2,35,36
 282 563 282 563 281 562 c 2,37,-1
 269 560 l 2,38,39
 261 558 261 558 258.5 558 c 128,-1,40
 256 558 256 558 254 559 c 0,41,42
 251 560 251 560 250.5 562.5 c 128,-1,43
 250 565 250 565 250.5 567 c 128,-1,44
 251 569 251 569 254 572 c 0,45,46
 256 573 256 573 264 576 c 0,47,48
 278 582 278 582 306 595 c 0,49,50
 336 610 336 610 362 626 c 0,51,52
 363 627 363 627 365 627 c 2,53,-1
 367 627 l 1,54,-1
 368 626 l 1,55,-1
 370 626 l 2,56,57
 371 626 371 626 372 625 c 0,58,59
 375 622 375 622 375 620 c 2,60,-1
 376 619 l 1,61,-1
 376 617 l 1,62,-1
 376 616 l 1,63,-1
 375 614 l 1,64,65
 365 538 365 538 362 474 c 0,66,67
 360 429 360 429 358.5 376.5 c 128,-1,68
 357 324 357 324 355.5 261 c 128,-1,69
 354 198 354 198 354 164 c 0,70,71
 352 119 352 119 354 81 c 0,72,73
 355 62 355 62 361 25 c 0,74,75
 361 24 361 24 361.5 22 c 128,-1,76
 362 20 362 20 362 19 c 0,77,78
 362 17 362 17 364 13 c 0,79,80
 365 10 365 10 369 10 c 2,81,-1
 371 10 l 1,82,-1
 373 10 l 1,83,-1
 412 22 l 1,84,-1
 416 22 l 1,85,-1
 419 22 l 2,86,87
 421 22 421 22 422 21 c 0,88,89
 424 19 424 19 424 18 c 2,90,-1
 424 14 l 2,91,92
 424 12 424 12 423 11 c 0,93,94
 422 11 422 11 422 10 c 2,95,-1
 420 9 l 2,96,97
 419 8 419 8 416 9 c 2,98,-1
 320 -24 l 2,99,100
 318 -25 318 -25 315 -25 c 128,-1,101
 312 -25 312 -25 310 -23 c 128,-1,102
 308 -21 308 -21 307 -19 c 128,-1,103
 306 -17 306 -17 306 -13 c 2,104,-1
 303 11 l 2,105,106
 301 36 301 36 302 47 c 1,107,-1
 275 33 l 2,108,109
 231 10 231 10 196 3 c 0,110,111
 151 -6 151 -6 112 9 c 0,112,113
 69 26 69 26 45 69 c 0,114,115
 14 124 14 124 29 190 c 0,116,117
 42 245 42 245 89 283 c 0,6,7
163 307 m 0,118,119
 141 300 141 300 125 290 c 0,120,121
 92 269 92 269 78 241 c 0,122,123
 66 215 66 215 69 182 c 0,124,125
 70 156 70 156 81 126 c 0,126,127
 91 97 91 97 112 76 c 0,128,129
 149 36 149 36 199 33 c 0,130,131
 236 31 236 31 268 45 c 0,132,133
 284 52 284 52 302 64 c 1,134,135
 300 90 300 90 302 116 c 0,136,137
 304 175 304 175 304 205 c 2,138,-1
 304 260 l 1,139,-1
 304 269 l 2,140,141
 304 275 304 275 303 278 c 0,142,143
 302 282 302 282 299 285 c 0,144,145
 297 287 297 287 290 289 c 2,146,-1
 256 299 l 2,147,148
 218 308 218 308 210 309 c 0,149,150
 183 312 183 312 163 307 c 0,118,119
EndSplineSet
EndChar
StartChar: emacron
Encoding: 275 275 241
Width: 338
Flags: W
LayerCount: 2
Fore
SplineSet
50 441 m 1,0,-1
 311 441 l 1,1,-1
 311 408 l 1,2,-1
 50 408 l 1,3,-1
 50 441 l 1,0,-1
48 247 m 0,4,5
 74 294 74 294 126 319 c 0,6,7
 158 334 158 334 191 331 c 0,8,9
 232 327 232 327 266 296 c 0,10,11
 284 280 284 280 297 257 c 0,12,13
 301 251 301 251 302 251 c 2,14,-1
 308 245 l 2,15,16
 309 244 309 244 310.5 243 c 128,-1,17
 312 242 312 242 313 242 c 0,18,19
 316 241 316 241 317 238 c 2,20,-1
 317 235 l 2,21,22
 317 233 317 233 316 233 c 2,23,-1
 314 231 l 1,24,-1
 311 231 l 1,25,-1
 250 218 l 1,26,-1
 78 184 l 1,27,28
 75 145 75 145 87 111 c 0,29,30
 96 87 96 87 112 66 c 0,31,32
 127 47 127 47 151 35 c 0,33,34
 178 22 178 22 210 24 c 0,35,36
 234 25 234 25 268 39 c 0,37,38
 293 50 293 50 304 58 c 1,39,-1
 310 50 l 1,40,41
 286 32 286 32 258 17 c 0,42,43
 220 -3 220 -3 176 -6 c 0,44,45
 131 -9 131 -9 94 14 c 0,46,47
 57 38 57 38 39 82 c 0,48,49
 24 119 24 119 26 168 c 0,50,51
 29 214 29 214 48 247 c 0,4,5
211 294 m 0,52,53
 182 315 182 315 153 314 c 0,54,55
 131 314 131 314 114 299 c 0,56,57
 99 286 99 286 93 268 c 0,58,59
 88 256 88 256 83 235 c 0,60,61
 80 223 80 223 78 198 c 1,62,-1
 222 229 l 2,63,64
 224 229 224 229 227 230 c 128,-1,65
 230 231 230 231 232 231 c 2,66,-1
 241 234 l 2,67,68
 244 235 244 235 245 238 c 0,69,70
 247 242 247 242 247 243 c 2,71,-1
 247 248 l 2,72,73
 247 249 247 249 245 252 c 0,74,75
 233 278 233 278 211 294 c 0,52,53
EndSplineSet
EndChar
StartChar: eogonek
Encoding: 281 281 245
Width: 338
Flags: W
LayerCount: 2
Fore
SplineSet
242 -192 m 1,0,1
 210 -209 210 -209 182 -211 c 0,2,3
 147 -212 147 -212 122 -196 c 128,-1,4
 97 -180 97 -180 88 -155 c 128,-1,5
 79 -130 79 -130 83.5 -99.5 c 128,-1,6
 88 -69 88 -69 108 -44 c 0,7,8
 124 -22 124 -22 139 -10.5 c 128,-1,9
 154 1 154 1 176 1 c 1,10,11
 172 -5 172 -5 158.5 -22 c 128,-1,12
 145 -39 145 -39 138.5 -51 c 128,-1,13
 132 -63 132 -63 129 -77 c 0,14,15
 118 -129 118 -129 151 -158.5 c 128,-1,16
 184 -188 184 -188 235 -177 c 1,17,-1
 242 -192 l 1,0,1
48 247 m 0,18,19
 74 294 74 294 126 319 c 0,20,21
 158 334 158 334 191 331 c 0,22,23
 232 327 232 327 266 296 c 0,24,25
 284 280 284 280 297 257 c 0,26,27
 301 251 301 251 302 251 c 2,28,-1
 308 245 l 2,29,30
 309 244 309 244 310.5 243 c 128,-1,31
 312 242 312 242 313 242 c 0,32,33
 316 241 316 241 317 238 c 2,34,-1
 317 235 l 2,35,36
 317 233 317 233 316 233 c 2,37,-1
 314 231 l 1,38,-1
 311 231 l 1,39,-1
 250 218 l 1,40,-1
 78 184 l 1,41,42
 75 145 75 145 87 111 c 0,43,44
 96 87 96 87 112 66 c 0,45,46
 127 47 127 47 151 35 c 0,47,48
 178 22 178 22 210 24 c 0,49,50
 234 25 234 25 268 39 c 0,51,52
 293 50 293 50 304 58 c 1,53,-1
 310 50 l 1,54,55
 286 32 286 32 258 17 c 0,56,57
 220 -3 220 -3 176 -6 c 0,58,59
 131 -9 131 -9 94 14 c 0,60,61
 57 38 57 38 39 82 c 0,62,63
 24 119 24 119 26 168 c 0,64,65
 29 214 29 214 48 247 c 0,18,19
211 294 m 0,66,67
 182 315 182 315 153 314 c 0,68,69
 131 314 131 314 114 299 c 0,70,71
 99 286 99 286 93 268 c 0,72,73
 88 256 88 256 83 235 c 0,74,75
 80 223 80 223 78 198 c 1,76,-1
 222 229 l 2,77,78
 224 229 224 229 227 230 c 128,-1,79
 230 231 230 231 232 231 c 2,80,-1
 241 234 l 2,81,82
 244 235 244 235 245 238 c 0,83,84
 247 242 247 242 247 243 c 2,85,-1
 247 248 l 2,86,87
 247 249 247 249 245 252 c 0,88,89
 233 278 233 278 211 294 c 0,66,67
EndSplineSet
EndChar
StartChar: Kcommaaccent
Encoding: 310 310 263
Width: 594
Flags: W
LayerCount: 2
Fore
SplineSet
230 -264 m 1,0,-1
 238 -275 l 1,1,-1
 230 -264 l 1,0,-1
289 -59 m 1,2,3
 294 -60 294 -60 298 -62.5 c 128,-1,4
 302 -65 302 -65 303 -67 c 2,5,-1
 309 -74 l 1,6,-1
 316 -80 l 2,7,8
 319 -84 319 -84 327 -89 c 128,-1,9
 335 -94 335 -94 341 -99 c 128,-1,10
 347 -104 347 -104 349 -111 c 128,-1,11
 351 -118 351 -118 344.5 -131 c 128,-1,12
 338 -144 338 -144 338 -146 c 0,13,14
 315 -241 315 -241 238 -275 c 1,15,-1
 230 -257 l 1,16,17
 261 -239 261 -239 278.5 -215.5 c 128,-1,18
 296 -192 296 -192 282 -165 c 0,19,20
 278 -158 278 -158 263 -142.5 c 128,-1,21
 248 -127 248 -127 245 -113 c 1,22,23
 273 -98 273 -98 289 -59 c 1,2,3
154 287 m 1,24,25
 356 483 356 483 373 502 c 0,26,27
 396 528 396 528 396 542 c 0,28,29
 396 551 396 551 383 557.5 c 128,-1,30
 370 564 370 564 350 564 c 0,31,32
 345 564 345 564 345 572 c 0,33,34
 345 581 345 581 349 580 c 0,35,36
 351 580 351 580 388 579 c 128,-1,37
 425 578 425 578 432 578 c 0,38,39
 458 578 458 578 477.5 579 c 128,-1,40
 497 580 497 580 505.5 581.5 c 128,-1,41
 514 583 514 583 515 583 c 0,42,43
 522 583 522 583 522 576 c 0,44,45
 522 567 522 567 515 566 c 0,46,47
 498 568 498 568 455 535 c 0,48,49
 419 508 419 508 377 471 c 2,50,-1
 280 383 l 1,51,-1
 204 312 l 1,52,-1
 504 59 l 2,53,54
 555 16 555 16 575 9 c 0,55,56
 583 7 583 7 579 -1 c 0,57,58
 578 -7 578 -7 572 -7 c 0,59,60
 570 -7 570 -7 564.5 -5 c 128,-1,61
 559 -3 559 -3 547 -1.5 c 128,-1,62
 535 0 535 0 519 0 c 0,63,64
 448 0 448 0 408 -7 c 0,65,66
 403 -7 403 -7 404 2 c 0,67,68
 404 10 404 10 407 9 c 0,69,70
 437 13 437 13 442.5 19.5 c 128,-1,71
 448 26 448 26 432 41 c 2,72,-1
 336 124 l 1,73,-1
 232 210 l 1,74,-1
 154 274 l 1,75,76
 154 152 154 152 159 60 c 0,77,78
 160 37 160 37 173.5 28.5 c 128,-1,79
 187 20 187 20 229 11 c 0,80,81
 234 10 234 10 233 2 c 0,82,83
 233 -4 233 -4 226 -4 c 0,84,85
 224 -4 224 -4 209 -3 c 2,86,-1
 170 0 l 2,87,88
 146 1 146 1 124 1 c 0,89,90
 54 3 54 3 32 -1 c 0,91,92
 23 -3 23 -3 23 5 c 0,93,94
 23 15 23 15 29 15 c 0,95,96
 58 17 58 17 70 26.5 c 128,-1,97
 82 36 82 36 84 66 c 0,98,99
 103 316 103 316 89 511 c 0,100,101
 87 543 87 543 79 552.5 c 128,-1,102
 71 562 71 562 35 567 c 0,103,104
 28 568 28 568 28 575 c 0,105,106
 28 583 28 583 35 582 c 0,107,108
 80 579 80 579 129 579 c 0,109,110
 157 579 157 579 181 580.5 c 128,-1,111
 205 582 205 582 217 584 c 2,112,-1
 231 586 l 2,113,114
 236 586 236 586 235.5 579.5 c 128,-1,115
 235 573 235 573 231 572 c 0,116,117
 212 570 212 570 205.5 568.5 c 128,-1,118
 199 567 199 567 187 562.5 c 128,-1,119
 175 558 175 558 169.5 547.5 c 128,-1,120
 164 537 164 537 164 520 c 0,121,122
 157 418 157 418 154 287 c 1,24,25
EndSplineSet
EndChar
StartChar: kcommaaccent
Encoding: 311 311 264
Width: 436
Flags: W
LayerCount: 2
Fore
SplineSet
146 -267 m 1,0,-1
 154 -278 l 1,1,-1
 146 -267 l 1,0,-1
205 -62 m 1,2,3
 210 -63 210 -63 214 -65.5 c 128,-1,4
 218 -68 218 -68 219 -70 c 2,5,-1
 225 -77 l 1,6,-1
 232 -83 l 2,7,8
 235 -87 235 -87 243 -92 c 128,-1,9
 251 -97 251 -97 257 -102 c 128,-1,10
 263 -107 263 -107 265 -114 c 128,-1,11
 267 -121 267 -121 260.5 -134 c 128,-1,12
 254 -147 254 -147 254 -149 c 0,13,14
 231 -244 231 -244 154 -278 c 1,15,-1
 146 -260 l 1,16,17
 177 -242 177 -242 194.5 -218.5 c 128,-1,18
 212 -195 212 -195 198 -168 c 0,19,20
 194 -161 194 -161 179 -145.5 c 128,-1,21
 164 -130 164 -130 161 -116 c 1,22,23
 189 -101 189 -101 205 -62 c 1,2,3
79 321 m 0,24,25
 79 419 79 419 77 519 c 0,26,27
 77 531 77 531 76 537 c 0,28,29
 74 546 74 546 70 553 c 0,30,31
 64 562 64 562 56 563 c 2,32,-1
 47 563 l 2,33,34
 44 563 44 563 39 562 c 2,35,-1
 29 559 l 2,36,37
 28 559 28 559 26 558 c 2,38,-1
 24 558 l 2,39,40
 23 558 23 558 21 560 c 0,41,42
 20 561 20 561 20 562 c 2,43,-1
 20 564 l 2,44,45
 20 565 20 565 22 567 c 0,46,47
 23 568 23 568 26 570 c 2,48,-1
 46 579 l 1,49,-1
 75 593 l 2,50,51
 108 609 108 609 131 626 c 0,52,53
 133 628 133 628 136 628 c 2,54,-1
 138 628 l 2,55,56
 139 628 139 628 140 627 c 0,57,58
 143 624 143 624 143 622 c 2,59,-1
 143 617 l 1,60,61
 132 520 132 520 130 405 c 2,62,-1
 127 217 l 2,63,64
 127 213 127 213 128 212 c 2,65,-1
 130 207 l 2,66,67
 132 206 132 206 137 206 c 0,68,69
 139 206 139 206 143 208 c 0,70,71
 169 223 169 223 190 239 c 0,72,73
 209 253 209 253 233 277 c 0,74,75
 237 281 237 281 242 288 c 128,-1,76
 247 295 247 295 247 302 c 0,77,78
 247 311 247 311 241 315 c 0,79,80
 240 316 240 316 234 319 c 0,81,82
 233 320 233 320 231 320 c 2,83,-1
 228 320 l 1,84,-1
 219 322 l 1,85,-1
 218 323 l 1,86,-1
 217 323 l 2,87,88
 216 323 216 323 216 324 c 0,89,90
 214 326 214 326 214 329 c 2,91,-1
 214 330 l 2,92,93
 215 331 215 331 215 332 c 128,-1,94
 215 333 215 333 215.5 334 c 128,-1,95
 216 335 216 335 218 335 c 2,96,-1
 220 335 l 2,97,98
 267 333 267 333 291 333 c 0,99,100
 348 333 348 333 376 334 c 2,101,-1
 379 334 l 2,102,103
 381 334 381 334 381 332 c 0,104,105
 381 331 381 331 381.5 331 c 128,-1,106
 382 331 382 331 382 330 c 2,107,-1
 382 329 l 1,108,-1
 381 327 l 1,109,-1
 381 324 l 1,110,-1
 379 322 l 1,111,-1
 377 320 l 1,112,-1
 374 320 l 2,113,114
 346 317 346 317 320 306 c 0,115,116
 304 299 304 299 272 277 c 2,117,-1
 193 221 l 1,118,-1
 191 220 l 1,119,-1
 189 219 l 2,120,121
 187 217 187 217 187 216 c 2,122,-1
 187 212 l 1,123,-1
 188 210 l 2,124,125
 189 208 189 208 190 208 c 2,126,-1
 287 112 l 1,127,-1
 377 29 l 2,128,129
 383 23 383 23 387 22 c 0,130,131
 395 18 395 18 398 17 c 2,132,-1
 411 14 l 2,133,134
 412 14 412 14 413 13.5 c 128,-1,135
 414 13 414 13 415 13 c 2,136,-1
 417 11 l 1,137,-1
 419 9 l 1,138,-1
 419 6 l 2,139,140
 419 4 419 4 418 3 c 2,141,-1
 415 0 l 2,142,143
 414 -1 414 -1 412 -1 c 2,144,-1
 408 -1 l 2,145,146
 378 2 378 2 348 2 c 0,147,148
 311 3 311 3 264 0 c 2,149,-1
 261 0 l 2,150,151
 259 0 259 0 259 2 c 2,152,-1
 259 4 l 1,153,-1
 259 5 l 1,154,-1
 258 6 l 1,155,-1
 258 9 l 1,156,-1
 259 10 l 2,157,158
 259 12 259 12 260 12 c 2,159,-1
 263 12 l 1,160,-1
 281 15 l 2,161,162
 284 15 284 15 287 17 c 0,163,164
 288 17 288 17 290 19 c 0,165,166
 291 19 291 19 291 20 c 128,-1,167
 291 21 291 21 292 22 c 128,-1,168
 293 23 293 23 293 25 c 0,169,170
 293 28 293 28 292 28 c 0,171,172
 290 32 290 32 287 35 c 2,173,-1
 226 100 l 1,174,-1
 146 181 l 2,175,176
 143 184 143 184 141 184 c 0,177,178
 137 186 137 186 135 185 c 0,179,180
 132 183 132 183 130 181 c 0,181,182
 129 179 129 179 130 175 c 0,183,184
 129 136 129 136 130 98 c 2,185,-1
 132 37 l 2,186,187
 132 32 132 32 133 30 c 2,188,-1
 135 28 l 1,189,-1
 136 26 l 2,190,191
 137 24 137 24 141 22 c 0,192,193
 142 21 142 21 144 20 c 2,194,-1
 147 19 l 1,195,-1
 159 16 l 2,196,197
 161 15 161 15 166.5 14 c 128,-1,198
 172 13 172 13 174 13 c 2,199,-1
 177 13 l 1,200,-1
 179 11 l 2,201,202
 181 9 181 9 181 7 c 2,203,-1
 181 5 l 2,204,205
 181 3 181 3 180 2 c 128,-1,206
 179 1 179 1 178 1 c 2,207,-1
 175 1 l 2,208,209
 154 2 154 2 113 2 c 0,210,211
 85 2 85 2 28 -2 c 1,212,-1
 26 -2 l 2,213,214
 25 -2 25 -2 24 -1 c 2,215,-1
 22 1 l 1,216,-1
 22 4 l 2,217,218
 22 8 22 8 23 8.5 c 128,-1,219
 24 9 24 9 25 9 c 2,220,-1
 26 9 l 1,221,-1
 27 10 l 1,222,-1
 49 16 l 2,223,224
 52 17 52 17 60 21 c 0,225,226
 66 24 66 24 69 29 c 0,227,228
 71 33 71 33 73 41 c 0,229,230
 74 45 74 45 74 52 c 0,231,232
 79 187 79 187 79 321 c 0,24,25
EndSplineSet
EndChar
StartChar: lcaron
Encoding: 318 318 269
Width: 236
Flags: W
LayerCount: 2
Fore
SplineSet
186 424 m 1,0,-1
 194 413 l 1,1,-1
 186 424 l 1,0,-1
245 629 m 1,2,3
 250 628 250 628 254 625.5 c 128,-1,4
 258 623 258 623 259 621 c 2,5,-1
 265 614 l 1,6,-1
 272 608 l 2,7,8
 275 604 275 604 283 599 c 128,-1,9
 291 594 291 594 297 589 c 128,-1,10
 303 584 303 584 305 577 c 128,-1,11
 307 570 307 570 300.5 557 c 128,-1,12
 294 544 294 544 294 542 c 0,13,14
 271 447 271 447 194 413 c 1,15,-1
 186 431 l 1,16,17
 217 449 217 449 234.5 472.5 c 128,-1,18
 252 496 252 496 238 523 c 0,19,20
 234 530 234 530 219 545.5 c 128,-1,21
 204 561 204 561 201 575 c 1,22,23
 229 590 229 590 245 629 c 1,2,3
95 596 m 2,24,25
 136 617 136 617 149 626 c 0,26,27
 150 627 150 627 153 627 c 2,28,-1
 156 627 l 2,29,30
 157 627 157 627 158 626 c 0,31,32
 160 624 160 624 160 621 c 0,33,34
 160 620 160 620 159.5 618.5 c 128,-1,35
 159 617 159 617 159 616 c 0,36,37
 149 574 149 574 148 512 c 0,38,39
 148 495 148 495 147.5 459.5 c 128,-1,40
 147 424 147 424 147 406 c 0,41,42
 145 243 145 243 147 164 c 0,43,44
 147 130 147 130 148 63 c 0,45,46
 148 52 148 52 149 46.5 c 128,-1,47
 150 41 150 41 156 31 c 0,48,49
 160 24 160 24 169 21 c 0,50,51
 178 17 178 17 185 16 c 2,52,-1
 213 11 l 1,53,-1
 216 11 l 1,54,-1
 217 9 l 2,55,56
 218 8 218 8 218 7 c 2,57,-1
 218 4 l 1,58,-1
 218 1 l 1,59,-1
 216 -1 l 1,60,-1
 215 -2 l 1,61,-1
 212 -2 l 2,62,63
 157 0 157 0 130 0 c 0,64,65
 76 0 76 0 32 -4 c 1,66,-1
 29 -4 l 2,67,68
 27 -4 27 -4 26 -3 c 2,69,-1
 25 -1 l 2,70,71
 24 0 24 0 24 2 c 0,72,73
 24 6 24 6 25 7 c 2,74,-1
 26 9 l 1,75,-1
 27 9 l 1,76,-1
 29 9 l 1,77,-1
 40 13 l 2,78,79
 57 19 57 19 68 28 c 0,80,81
 78 37 78 37 85 54 c 0,82,83
 91 70 91 70 91 85 c 2,84,-1
 91 117 l 2,85,86
 93 264 93 264 93 337 c 2,87,-1
 93 479 l 2,88,89
 93 506 93 506 89 528 c 2,90,-1
 86 540 l 2,91,92
 84 544 84 544 78 549 c 0,93,94
 74 553 74 553 68 555 c 0,95,96
 64 556 64 556 56 556 c 2,97,-1
 45 556 l 1,98,-1
 43 556 l 2,99,100
 42 556 42 556 42 556.5 c 128,-1,101
 42 557 42 557 41 557 c 0,102,103
 38 558 38 558 37 561 c 0,104,105
 36 562 36 562 36 563 c 2,106,-1
 36 567 l 2,107,108
 36 568 36 568 38 570 c 0,109,110
 39 571 39 571 41 571 c 2,111,-1
 95 596 l 2,24,25
EndSplineSet
EndChar
StartChar: ldot
Encoding: 320 320 271
Width: 331
Flags: W
LayerCount: 2
Fore
SplineSet
273 291 m 0,0,1
 292 282 292 282 291 280 c 0,2,3
 283 272 283 272 267 251 c 0,4,5
 243 220 243 220 241 215 c 1,6,-1
 211 253 l 1,7,-1
 187 278 l 1,8,9
 215 293 215 293 231 332 c 1,10,11
 236 331 236 331 254 312 c 128,-1,12
 272 293 272 293 273 291 c 0,0,1
95 596 m 2,13,14
 136 617 136 617 149 626 c 0,15,16
 150 627 150 627 153 627 c 2,17,-1
 156 627 l 2,18,19
 157 627 157 627 158 626 c 0,20,21
 160 624 160 624 160 621 c 0,22,23
 160 620 160 620 159.5 618.5 c 128,-1,24
 159 617 159 617 159 616 c 0,25,26
 149 574 149 574 148 512 c 0,27,28
 148 495 148 495 147.5 459.5 c 128,-1,29
 147 424 147 424 147 406 c 0,30,31
 145 243 145 243 147 164 c 0,32,33
 147 130 147 130 148 63 c 0,34,35
 148 52 148 52 149 46.5 c 128,-1,36
 150 41 150 41 156 31 c 0,37,38
 160 24 160 24 169 21 c 0,39,40
 178 17 178 17 185 16 c 2,41,-1
 213 11 l 1,42,-1
 216 11 l 1,43,-1
 217 9 l 2,44,45
 218 8 218 8 218 7 c 2,46,-1
 218 4 l 1,47,-1
 218 1 l 1,48,-1
 216 -1 l 1,49,-1
 215 -2 l 1,50,-1
 212 -2 l 2,51,52
 157 0 157 0 130 0 c 0,53,54
 76 0 76 0 32 -4 c 1,55,-1
 29 -4 l 2,56,57
 27 -4 27 -4 26 -3 c 2,58,-1
 25 -1 l 2,59,60
 24 0 24 0 24 2 c 0,61,62
 24 6 24 6 25 7 c 2,63,-1
 26 9 l 1,64,-1
 27 9 l 1,65,-1
 29 9 l 1,66,-1
 40 13 l 2,67,68
 57 19 57 19 68 28 c 0,69,70
 78 37 78 37 85 54 c 0,71,72
 91 70 91 70 91 85 c 2,73,-1
 91 117 l 2,74,75
 93 264 93 264 93 337 c 2,76,-1
 93 479 l 2,77,78
 93 506 93 506 89 528 c 2,79,-1
 86 540 l 2,80,81
 84 544 84 544 78 549 c 0,82,83
 74 553 74 553 68 555 c 0,84,85
 64 556 64 556 56 556 c 2,86,-1
 45 556 l 1,87,-1
 43 556 l 2,88,89
 42 556 42 556 42 556.5 c 128,-1,90
 42 557 42 557 41 557 c 0,91,92
 38 558 38 558 37 561 c 0,93,94
 36 562 36 562 36 563 c 2,95,-1
 36 567 l 2,96,97
 36 568 36 568 38 570 c 0,98,99
 39 571 39 571 41 571 c 2,100,-1
 95 596 l 2,13,14
EndSplineSet
EndChar
StartChar: Lslash
Encoding: 321 321 272
Width: 534
Flags: W
LayerCount: 2
Fore
SplineSet
41 178 m 1,0,-1
 45 174 l 1,1,-1
 41 178 l 1,0,-1
115 597 m 1,2,-1
 115 593 l 1,3,-1
 230 593 l 1,4,-1
 115 597 l 1,2,-1
45 597 m 1,5,-1
 256 597 l 1,6,-1
 256 581 l 1,7,8
 238 579 238 579 230.5 578 c 128,-1,9
 223 577 223 577 211 571 c 128,-1,10
 199 565 199 565 191 556 c 0,11,12
 185 547 185 547 183 537 c 128,-1,13
 181 527 181 527 181 513 c 0,14,15
 180 499 180 499 180 493 c 0,16,17
 177 470 177 470 176 441.5 c 128,-1,18
 175 413 175 413 174.5 397 c 128,-1,19
 174 381 174 381 174.5 342.5 c 128,-1,20
 175 304 175 304 175 296 c 1,21,-1
 349 426 l 1,22,23
 349 401 349 401 328.5 376.5 c 128,-1,24
 308 352 308 352 281.5 336.5 c 128,-1,25
 255 321 255 321 224 301 c 128,-1,26
 193 281 193 281 180 265 c 0,27,28
 175 260 175 260 172.5 252 c 128,-1,29
 170 244 170 244 170 238.5 c 128,-1,30
 170 233 170 233 170.5 221.5 c 128,-1,31
 171 210 171 210 171 207 c 0,32,33
 171 197 171 197 169.5 162 c 128,-1,34
 168 127 168 127 169 103.5 c 128,-1,35
 170 80 170 80 175 59 c 0,36,37
 178 49 178 49 184.5 42 c 128,-1,38
 191 35 191 35 197.5 31.5 c 128,-1,39
 204 28 204 28 217 26.5 c 128,-1,40
 230 25 230 25 236.5 25 c 128,-1,41
 243 25 243 25 257.5 25.5 c 128,-1,42
 272 26 272 26 275 26 c 0,43,44
 301 26 301 26 318 26.5 c 128,-1,45
 335 27 335 27 363 29 c 128,-1,46
 391 31 391 31 410.5 38 c 128,-1,47
 430 45 430 45 451 55 c 128,-1,48
 472 65 472 65 486 82 c 128,-1,49
 500 99 500 99 504 122 c 1,50,-1
 520 118 l 1,51,-1
 486 -9 l 1,52,53
 420 0 420 0 350 2 c 128,-1,54
 280 4 280 4 177.5 1.5 c 128,-1,55
 75 -1 75 -1 41 -1 c 1,56,-1
 41 14 l 1,57,58
 63 19 63 19 77 32.5 c 128,-1,59
 91 46 91 46 98 61 c 128,-1,60
 105 76 105 76 108 99.5 c 128,-1,61
 111 123 111 123 110.5 140 c 128,-1,62
 110 157 110 157 108.5 183.5 c 128,-1,63
 107 210 107 210 107 222 c 1,64,-1
 45 178 l 1,65,66
 45 195 45 195 52.5 207 c 128,-1,67
 60 219 60 219 69.5 225.5 c 128,-1,68
 79 232 79 232 90 243 c 128,-1,69
 101 254 101 254 105 266 c 0,70,71
 109 276 109 276 109.5 290 c 128,-1,72
 110 304 110 304 108.5 323 c 128,-1,73
 107 342 107 342 107 348 c 0,74,75
 107 360 107 360 109 388 c 2,76,-1
 112 438 l 2,77,78
 114 460 114 460 111.5 488 c 128,-1,79
 109 516 109 516 103 535 c 128,-1,80
 97 554 97 554 82 567 c 128,-1,81
 67 580 67 580 45 581 c 1,82,-1
 45 597 l 1,5,-1
EndSplineSet
EndChar
StartChar: nacute
Encoding: 324 324 274
Width: 446
Flags: W
LayerCount: 2
Fore
SplineSet
215 428 m 2,0,1
 213 424 213 424 213 421 c 0,2,3
 213 408 213 408 226 408 c 0,4,5
 236 408 236 408 240 418 c 2,6,-1
 297 511 l 2,7,8
 299 513 299 513 299 516 c 0,9,10
 299 525 299 525 285 532 c 0,11,12
 276 535 276 535 270 535 c 0,13,14
 261 535 261 535 260 529 c 2,15,-1
 215 428 l 2,0,1
176 292 m 0,16,17
 213 310 213 310 235 317 c 0,18,19
 286 331 286 331 320 318 c 0,20,21
 346 309 346 309 359 285 c 0,22,23
 366 276 366 276 369 261 c 0,24,25
 370 257 370 257 370.5 253 c 128,-1,26
 371 249 371 249 371.5 243.5 c 128,-1,27
 372 238 372 238 372 235 c 0,28,29
 374 201 374 201 375 133 c 0,30,31
 376 88 376 88 375 43 c 2,32,-1
 375 36 l 2,33,34
 375 33 375 33 377 29 c 0,35,36
 379 26 379 26 382 25 c 2,37,-1
 388 22 l 1,38,-1
 421 9 l 1,39,-1
 424 8 l 2,40,41
 427 7 427 7 427.5 6 c 128,-1,42
 428 5 428 5 428 2 c 2,43,-1
 428 -1 l 2,44,45
 428 -3 428 -3 427 -4 c 0,46,47
 426 -6 426 -6 424 -6 c 2,48,-1
 417 -6 l 1,49,50
 386 0 386 0 354 0 c 0,51,52
 309 0 309 0 271 -8 c 0,53,54
 270 -8 270 -8 268.5 -8.5 c 128,-1,55
 267 -9 267 -9 266 -9 c 0,56,57
 263 -9 263 -9 262 -8 c 0,58,59
 261 -8 261 -8 261 -7 c 128,-1,60
 261 -6 261 -6 260 -5 c 128,-1,61
 259 -4 259 -4 259 -2 c 0,62,63
 259 -1 259 -1 261 1 c 0,64,65
 261 2 261 2 262 2 c 2,66,-1
 263 4 l 2,67,68
 264 5 264 5 266 5 c 2,69,-1
 291 14 l 2,70,71
 299 17 299 17 303 21 c 0,72,73
 309 25 309 25 312 31 c 0,74,75
 316 38 316 38 317 44 c 0,76,77
 318 47 318 47 318 51 c 128,-1,78
 318 55 318 55 319 58 c 0,79,80
 324 101 324 101 323 134 c 0,81,82
 323 172 323 172 320 210 c 0,83,84
 318 231 318 231 315 240 c 0,85,86
 308 256 308 256 298.5 265.5 c 128,-1,87
 289 275 289 275 273 282 c 0,88,89
 264 286 264 286 244 287 c 0,90,91
 206 288 206 288 169 274 c 0,92,93
 152 267 152 267 134 257 c 1,94,-1
 131 70 l 1,95,-1
 131 51 l 2,96,97
 131 39 131 39 133 33 c 0,98,99
 136 24 136 24 144 18 c 0,100,101
 150 13 150 13 161 11 c 2,102,-1
 188 6 l 1,103,-1
 189 6 l 1,104,-1
 191 5 l 1,105,-1
 193 3 l 1,106,-1
 195 1 l 1,107,-1
 195 -2 l 1,108,-1
 195 -3 l 2,109,110
 194 -4 194 -4 194 -5 c 0,111,112
 194 -7 194 -7 192 -7 c 2,113,-1
 189 -7 l 1,114,-1
 186 -7 l 2,115,116
 176 -5 176 -5 155 -3 c 0,117,118
 126 0 126 0 66 -2 c 2,119,-1
 29 -3 l 1,120,-1
 26 -3 l 2,121,122
 25 -3 25 -3 24 -1 c 0,123,124
 23 0 23 0 23 3 c 2,125,-1
 23 6 l 2,126,127
 24 8 24 8 25.5 9.5 c 128,-1,128
 27 11 27 11 29 11 c 2,129,-1
 37 13 l 2,130,131
 48 17 48 17 54 20 c 0,132,133
 63 25 63 25 68 31 c 0,134,135
 72 36 72 36 76 47 c 0,136,137
 79 56 79 56 78 65 c 0,138,139
 81 106 81 106 81 147 c 0,140,141
 81 182 81 182 80 199 c 0,142,143
 78 229 78 229 76 245 c 0,144,145
 72 260 72 260 68 266 c 0,146,147
 64 271 64 271 60 273 c 0,148,149
 55 277 55 277 50 278 c 2,150,-1
 29 285 l 1,151,-1
 27 285 l 1,152,-1
 26 287 l 2,153,154
 25 287 25 287 26 288 c 2,155,-1
 26 290 l 1,156,-1
 27 291 l 2,157,158
 28 292 28 292 29 292 c 0,159,160
 61 303 61 303 77 310 c 0,161,162
 117 328 117 328 121 330 c 0,163,164
 123 332 123 332 125 332 c 0,165,166
 129 332 129 332 130 331 c 0,167,168
 132 329 132 329 131 327 c 0,169,170
 131 326 131 326 131.5 324.5 c 128,-1,171
 132 323 132 323 132 322 c 2,172,-1
 133 268 l 1,173,174
 153 281 153 281 176 292 c 0,16,17
EndSplineSet
EndChar
StartChar: napostrophe
Encoding: 329 329 278
Width: 446
Flags: W
LayerCount: 2
Fore
SplineSet
-44 353 m 1,0,-1
 -37 343 l 1,1,-1
 -44 353 l 1,0,-1
-44 357 m 1,2,3
 36 403 36 403 12 450 c 0,4,5
 10 454 10 454 -5.5 468.5 c 128,-1,6
 -21 483 -21 483 -20 494 c 0,7,8
 -20 500 -20 500 -17 504 c 128,-1,9
 -14 508 -14 508 -8 513.5 c 128,-1,10
 -2 519 -2 519 0 520 c 0,11,12
 2 522 2 522 10 536 c 128,-1,13
 18 550 18 550 24 553 c 0,14,15
 33 558 33 558 53 536.5 c 128,-1,16
 73 515 73 515 74 505 c 0,17,18
 81 477 81 477 60 434 c 0,19,20
 40 390 40 390 16 370 c 0,21,22
 6 361 6 361 1 358 c 128,-1,23
 -4 355 -4 355 -14 350 c 128,-1,24
 -24 345 -24 345 -31 346.5 c 128,-1,25
 -38 348 -38 348 -44 357 c 1,2,3
176 292 m 0,26,27
 213 310 213 310 235 317 c 0,28,29
 286 331 286 331 320 318 c 0,30,31
 346 309 346 309 359 285 c 0,32,33
 366 276 366 276 369 261 c 0,34,35
 370 257 370 257 370.5 253 c 128,-1,36
 371 249 371 249 371.5 243.5 c 128,-1,37
 372 238 372 238 372 235 c 0,38,39
 374 201 374 201 375 133 c 0,40,41
 376 88 376 88 375 43 c 2,42,-1
 375 36 l 2,43,44
 375 33 375 33 377 29 c 0,45,46
 379 26 379 26 382 25 c 2,47,-1
 388 22 l 1,48,-1
 421 9 l 1,49,-1
 424 8 l 2,50,51
 427 7 427 7 427.5 6 c 128,-1,52
 428 5 428 5 428 2 c 2,53,-1
 428 -1 l 2,54,55
 428 -3 428 -3 427 -4 c 0,56,57
 426 -6 426 -6 424 -6 c 2,58,-1
 417 -6 l 1,59,60
 386 0 386 0 354 0 c 0,61,62
 309 0 309 0 271 -8 c 0,63,64
 270 -8 270 -8 268.5 -8.5 c 128,-1,65
 267 -9 267 -9 266 -9 c 0,66,67
 263 -9 263 -9 262 -8 c 0,68,69
 261 -8 261 -8 261 -7 c 128,-1,70
 261 -6 261 -6 260 -5 c 128,-1,71
 259 -4 259 -4 259 -2 c 0,72,73
 259 -1 259 -1 261 1 c 0,74,75
 261 2 261 2 262 2 c 2,76,-1
 263 4 l 2,77,78
 264 5 264 5 266 5 c 2,79,-1
 291 14 l 2,80,81
 299 17 299 17 303 21 c 0,82,83
 309 25 309 25 312 31 c 0,84,85
 316 38 316 38 317 44 c 0,86,87
 318 47 318 47 318 51 c 128,-1,88
 318 55 318 55 319 58 c 0,89,90
 324 101 324 101 323 134 c 0,91,92
 323 172 323 172 320 210 c 0,93,94
 318 231 318 231 315 240 c 0,95,96
 308 256 308 256 298.5 265.5 c 128,-1,97
 289 275 289 275 273 282 c 0,98,99
 264 286 264 286 244 287 c 0,100,101
 206 288 206 288 169 274 c 0,102,103
 152 267 152 267 134 257 c 1,104,-1
 131 70 l 1,105,-1
 131 51 l 2,106,107
 131 39 131 39 133 33 c 0,108,109
 136 24 136 24 144 18 c 0,110,111
 150 13 150 13 161 11 c 2,112,-1
 188 6 l 1,113,-1
 189 6 l 1,114,-1
 191 5 l 1,115,-1
 193 3 l 1,116,-1
 195 1 l 1,117,-1
 195 -2 l 1,118,-1
 195 -3 l 2,119,120
 194 -4 194 -4 194 -5 c 0,121,122
 194 -7 194 -7 192 -7 c 2,123,-1
 189 -7 l 1,124,-1
 186 -7 l 2,125,126
 176 -5 176 -5 155 -3 c 0,127,128
 126 0 126 0 66 -2 c 2,129,-1
 29 -3 l 1,130,-1
 26 -3 l 2,131,132
 25 -3 25 -3 24 -1 c 0,133,134
 23 0 23 0 23 3 c 2,135,-1
 23 6 l 2,136,137
 24 8 24 8 25.5 9.5 c 128,-1,138
 27 11 27 11 29 11 c 2,139,-1
 37 13 l 2,140,141
 48 17 48 17 54 20 c 0,142,143
 63 25 63 25 68 31 c 0,144,145
 72 36 72 36 76 47 c 0,146,147
 79 56 79 56 78 65 c 0,148,149
 81 106 81 106 81 147 c 0,150,151
 81 182 81 182 80 199 c 0,152,153
 78 229 78 229 76 245 c 0,154,155
 72 260 72 260 68 266 c 0,156,157
 64 271 64 271 60 273 c 0,158,159
 55 277 55 277 50 278 c 2,160,-1
 29 285 l 1,161,-1
 27 285 l 1,162,-1
 26 287 l 2,163,164
 25 287 25 287 26 288 c 2,165,-1
 26 290 l 1,166,-1
 27 291 l 2,167,168
 28 292 28 292 29 292 c 0,169,170
 61 303 61 303 77 310 c 0,171,172
 117 328 117 328 121 330 c 0,173,174
 123 332 123 332 125 332 c 0,175,176
 129 332 129 332 130 331 c 0,177,178
 132 329 132 329 131 327 c 0,179,180
 131 326 131 326 131.5 324.5 c 128,-1,181
 132 323 132 323 132 322 c 2,182,-1
 133 268 l 1,183,184
 153 281 153 281 176 292 c 0,26,27
EndSplineSet
EndChar
StartChar: eng
Encoding: 331 331 280
Width: 446
Flags: W
LayerCount: 2
Fore
SplineSet
281 -89 m 0,0,1
 305 -86 305 -86 323.5 -75 c 128,-1,2
 342 -64 342 -64 350.5 -51 c 128,-1,3
 359 -38 359 -38 364 -22.5 c 128,-1,4
 369 -7 369 -7 370 0.5 c 128,-1,5
 371 8 371 8 371 11 c 2,6,-1
 375 43 l 1,7,8
 376 88 376 88 375 133 c 0,9,10
 374 201 374 201 372 235 c 0,11,12
 372 238 372 238 371.5 243.5 c 128,-1,13
 371 249 371 249 370.5 253 c 128,-1,14
 370 257 370 257 369 261 c 0,15,16
 366 276 366 276 359 285 c 0,17,18
 346 309 346 309 320 318 c 0,19,20
 286 331 286 331 235 317 c 0,21,22
 213 310 213 310 176 292 c 0,23,24
 153 281 153 281 133 268 c 1,25,-1
 132 322 l 2,26,27
 132 323 132 323 131.5 324.5 c 128,-1,28
 131 326 131 326 131 327 c 0,29,30
 132 329 132 329 130 331 c 0,31,32
 129 332 129 332 125 332 c 0,33,34
 123 332 123 332 121 330 c 0,35,36
 117 328 117 328 77 310 c 0,37,38
 61 303 61 303 29 292 c 0,39,40
 28 292 28 292 27 291 c 2,41,-1
 26 290 l 1,42,-1
 26 288 l 2,43,44
 25 287 25 287 26 287 c 2,45,-1
 27 285 l 1,46,-1
 29 285 l 1,47,-1
 50 278 l 2,48,49
 55 277 55 277 60 273 c 0,50,51
 64 271 64 271 68 266 c 0,52,53
 72 260 72 260 76 245 c 0,54,55
 78 229 78 229 80 199 c 0,56,57
 81 182 81 182 81 147 c 0,58,59
 81 106 81 106 78 65 c 0,60,61
 79 56 79 56 76 47 c 0,62,63
 72 36 72 36 68 31 c 0,64,65
 63 25 63 25 54 20 c 0,66,67
 48 17 48 17 37 13 c 2,68,-1
 29 11 l 2,69,70
 27 11 27 11 25.5 9.5 c 128,-1,71
 24 8 24 8 23 6 c 2,72,-1
 23 3 l 2,73,74
 23 0 23 0 24 -1 c 0,75,76
 25 -3 25 -3 26 -3 c 2,77,-1
 29 -3 l 1,78,-1
 66 -2 l 2,79,80
 126 0 126 0 155 -3 c 0,81,82
 176 -5 176 -5 186 -7 c 2,83,-1
 189 -7 l 1,84,-1
 192 -7 l 2,85,86
 194 -7 194 -7 194 -5 c 0,87,88
 194 -4 194 -4 195 -3 c 2,89,-1
 195 -2 l 1,90,-1
 195 1 l 1,91,-1
 193 3 l 1,92,-1
 191 5 l 1,93,-1
 189 6 l 1,94,-1
 188 6 l 1,95,-1
 161 11 l 2,96,97
 150 13 150 13 144 18 c 0,98,99
 136 24 136 24 133 33 c 0,100,101
 131 39 131 39 131 51 c 2,102,-1
 131 70 l 1,103,-1
 134 257 l 1,104,105
 152 267 152 267 169 274 c 0,106,107
 206 288 206 288 244 287 c 0,108,109
 264 286 264 286 273 282 c 0,110,111
 289 275 289 275 298.5 265.5 c 128,-1,112
 308 256 308 256 315 240 c 0,113,114
 318 231 318 231 320 210 c 0,115,116
 323 172 323 172 323 134 c 0,117,118
 323 127 323 127 324.5 107 c 128,-1,119
 326 87 326 87 326.5 75 c 128,-1,120
 327 63 327 63 326 44 c 0,121,122
 327 23 327 23 321 -14 c 0,123,124
 321 -15 321 -15 317.5 -23 c 128,-1,125
 314 -31 314 -31 307.5 -40 c 128,-1,126
 301 -49 301 -49 293.5 -53 c 128,-1,127
 286 -57 286 -57 276.5 -48.5 c 128,-1,128
 267 -40 267 -40 259 -16 c 1,129,130
 247 -16 247 -16 239 -19 c 128,-1,131
 231 -22 231 -22 227 -26 c 128,-1,132
 223 -30 223 -30 221.5 -34.5 c 128,-1,133
 220 -39 220 -39 220 -42 c 2,134,-1
 219 -46 l 2,135,136
 219 -49 219 -49 228.5 -61 c 128,-1,137
 238 -73 238 -73 253.5 -83.5 c 128,-1,138
 269 -94 269 -94 281 -89 c 0,0,1
EndSplineSet
EndChar
StartChar: obreve
Encoding: 335 335 282
Width: 411
Flags: W
LayerCount: 2
Fore
SplineSet
106 535 m 1,0,1
 117 534 117 534 123.5 527.5 c 128,-1,2
 130 521 130 521 135 508.5 c 128,-1,3
 140 496 140 496 145 490 c 0,4,5
 171 461 171 461 213.5 461 c 128,-1,6
 256 461 256 461 282 490 c 0,7,8
 287 496 287 496 292 508.5 c 128,-1,9
 297 521 297 521 303.5 527.5 c 128,-1,10
 310 534 310 534 321 535 c 1,11,12
 318 470 318 470 283 437 c 0,13,14
 244 401 244 401 194.5 411.5 c 128,-1,15
 145 422 145 422 121 468 c 0,16,17
 107 497 107 497 106 535 c 1,0,1
133 331 m 0,18,19
 181 352 181 352 229 348 c 0,20,21
 279 343 279 343 319 314 c 0,22,23
 368 277 368 277 382 218 c 0,24,25
 397 158 397 158 373 104 c 0,26,27
 354 57 354 57 312 27 c 0,28,29
 255 -12 255 -12 182 -1 c 0,30,31
 116 9 116 9 72 56 c 0,32,33
 26 104 26 104 24 169 c 0,34,35
 24 223 24 223 54 267 c 0,36,37
 83 308 83 308 133 331 c 0,18,19
193 328 m 0,38,39
 165 328 165 328 143 316 c 0,40,41
 119 303 119 303 104 282 c 0,42,43
 78 247 78 247 78 196 c 0,44,45
 78 148 78 148 98 107 c 0,46,47
 116 66 116 66 149 41 c 0,48,49
 186 12 186 12 227 14 c 0,50,51
 253 15 253 15 276 32 c 0,52,53
 294 44 294 44 306 64 c 0,54,55
 331 104 331 104 333 150 c 0,56,57
 334 203 334 203 305 253 c 0,58,59
 283 288 283 288 259 305 c 0,60,61
 227 328 227 328 193 328 c 0,38,39
EndSplineSet
EndChar
StartChar: rcommaaccent
Encoding: 343 343 288
Width: 305
Flags: W
LayerCount: 2
Fore
SplineSet
39 -272 m 1,0,-1
 47 -283 l 1,1,-1
 39 -272 l 1,0,-1
98 -67 m 1,2,3
 103 -68 103 -68 107 -70.5 c 128,-1,4
 111 -73 111 -73 112 -75 c 2,5,-1
 118 -82 l 1,6,-1
 125 -88 l 2,7,8
 128 -92 128 -92 136 -97 c 128,-1,9
 144 -102 144 -102 150 -107 c 128,-1,10
 156 -112 156 -112 158 -119 c 128,-1,11
 160 -126 160 -126 153.5 -139 c 128,-1,12
 147 -152 147 -152 147 -154 c 0,13,14
 124 -249 124 -249 47 -283 c 1,15,-1
 39 -265 l 1,16,17
 70 -247 70 -247 87.5 -223.5 c 128,-1,18
 105 -200 105 -200 91 -173 c 0,19,20
 87 -166 87 -166 72 -150.5 c 128,-1,21
 57 -135 57 -135 54 -121 c 1,22,23
 82 -106 82 -106 98 -67 c 1,2,3
233 286 m 0,24,25
 226 293 226 293 214 295 c 0,26,27
 206 296 206 296 193 292 c 0,28,29
 172 285 172 285 147 267 c 0,30,31
 139 261 139 261 137 257 c 2,32,-1
 134 251 l 1,33,-1
 134 244 l 2,34,35
 133 212 133 212 133 147 c 0,36,37
 133 91 133 91 136 35 c 0,38,39
 136 29 136 29 137 27 c 2,40,-1
 138 25 l 2,41,42
 139 22 139 22 140 21 c 0,43,44
 142 19 142 19 145.5 17 c 128,-1,45
 149 15 149 15 152 15 c 0,46,47
 169 13 169 13 179 13 c 0,48,49
 200 12 200 12 220 13 c 2,50,-1
 223 13 l 2,51,52
 225 13 225 13 226 12 c 0,53,54
 228 10 228 10 228 9 c 2,55,-1
 229 9 l 1,56,-1
 229 7 l 2,57,58
 229 4 229 4 228 3 c 2,59,-1
 227 2 l 2,60,61
 227 0 227 0 226 0 c 0,62,63
 224 -2 224 -2 222 -2 c 2,64,-1
 218 -2 l 1,65,-1
 37 -5 l 1,66,-1
 35 -5 l 2,67,68
 34 -5 34 -5 32 -4 c 0,69,70
 30 -4 30 -4 30 -2 c 2,71,-1
 30 0 l 1,72,-1
 30 3 l 1,73,-1
 32 5 l 2,74,75
 33 6 33 6 34 6 c 0,76,77
 36 7 36 7 37 7 c 2,78,-1
 57 12 l 1,79,-1
 62 15 l 2,80,81
 65 17 65 17 67 20 c 2,82,-1
 70 26 l 2,83,84
 71 28 71 28 71 32 c 0,85,86
 78 83 78 83 79 134 c 0,87,88
 81 196 81 196 74 258 c 0,89,90
 74 263 74 263 72 268.5 c 128,-1,91
 70 274 70 274 65 277 c 0,92,93
 63 279 63 279 58 281 c 0,94,95
 55 282 55 282 49 282 c 0,96,97
 36 282 36 282 30 281 c 2,98,-1
 26 281 l 2,99,100
 25 281 25 281 25 281.5 c 128,-1,101
 25 282 25 282 24 282 c 0,102,103
 22 282 22 282 22 283 c 2,104,-1
 22 285 l 1,105,-1
 22 287 l 2,106,107
 22 289 22 289 24 289 c 0,108,109
 25 289 25 289 25 289.5 c 128,-1,110
 25 290 25 290 26 290 c 0,111,112
 60 309 60 309 77 320 c 0,113,114
 90 328 90 328 124 351 c 0,115,116
 125 352 125 352 128 352 c 0,117,118
 130 352 130 352 130 351 c 0,119,120
 132 349 132 349 132 348 c 2,121,-1
 132 347 l 2,122,123
 133 346 133 346 133 345 c 2,124,-1
 132 277 l 1,125,-1
 239 341 l 1,126,-1
 243 344 l 2,127,128
 244 345 244 345 246 345 c 2,129,-1
 250 345 l 2,130,131
 253 345 253 345 253 344 c 2,132,-1
 269 332 l 2,133,134
 280 323 280 323 282 322 c 0,135,136
 288 315 288 315 289 309 c 0,137,138
 291 300 291 300 286 291 c 0,139,140
 283 285 283 285 274 278 c 128,-1,141
 265 271 265 271 251 267 c 0,142,143
 250 267 250 267 249 266.5 c 128,-1,144
 248 266 248 266 247 266 c 2,145,-1
 243 266 l 1,146,-1
 240 268 l 2,147,148
 239 269 239 269 239 272 c 0,149,150
 238 281 238 281 233 286 c 0,24,25
EndSplineSet
EndChar
StartChar: Scedilla
Encoding: 350 350 292
Width: 444
Flags: W
LayerCount: 2
Fore
SplineSet
163 -86 m 1,0,-1
 166 -90 l 1,1,-1
 163 -86 l 1,0,-1
166 -86 m 1,2,3
 200 -4 200 -4 242 -3 c 1,4,-1
 217 -46 l 1,5,6
 247 -59 247 -59 265 -81.5 c 128,-1,7
 283 -104 283 -104 280.5 -131.5 c 128,-1,8
 278 -159 278 -159 250 -181 c 0,9,10
 207 -217 207 -217 123 -217 c 1,11,-1
 123 -194 l 1,12,13
 186 -194 186 -194 216 -167 c 0,14,15
 233 -153 233 -153 233.5 -135 c 128,-1,16
 234 -117 234 -117 216 -103 c 0,17,18
 210 -98 210 -98 201.5 -95.5 c 128,-1,19
 193 -93 193 -93 182 -90.5 c 128,-1,20
 171 -88 171 -88 166 -86 c 1,2,3
239 587 m 0,21,22
 288 587 288 587 343 573 c 0,23,24
 381 563 381 563 397 579 c 0,25,26
 400 582 400 582 405 582 c 0,27,28
 411 582 411 582 409 575 c 2,29,-1
 401 515 l 2,30,31
 401 502 401 502 409 457 c 0,32,33
 410 451 410 451 403.5 450 c 128,-1,34
 397 449 397 449 396 454 c 0,35,36
 387 505 387 505 353 532 c 0,37,38
 303 570 303 570 242 570 c 0,39,40
 183 570 183 570 146.5 539.5 c 128,-1,41
 110 509 110 509 110 461 c 0,42,43
 110 444 110 444 114 429 c 128,-1,44
 118 414 118 414 123.5 404.5 c 128,-1,45
 129 395 129 395 138 386 c 128,-1,46
 147 377 147 377 153 373 c 2,47,-1
 168 363 l 2,48,49
 176 357 176 357 178 356 c 0,50,51
 190 347 190 347 250.5 324.5 c 128,-1,52
 311 302 311 302 328 292 c 0,53,54
 425 238 425 238 425 141 c 0,55,56
 425 73 425 73 368.5 31.5 c 128,-1,57
 312 -10 312 -10 242 -10 c 0,58,59
 191 -10 191 -10 151.5 -4 c 128,-1,60
 112 2 112 2 91.5 7.5 c 128,-1,61
 71 13 71 13 68 13 c 0,62,63
 60 13 60 13 60 0 c 0,64,65
 60 -6 60 -6 52 -4 c 2,66,-1
 48 -4 l 2,67,68
 44 -3 44 -3 43.5 -2 c 128,-1,69
 43 -1 43 -1 43 3 c 0,70,71
 44 13 44 13 43 26 c 0,72,73
 43 52 43 52 19 144 c 0,74,75
 18 151 18 151 24 152 c 0,76,77
 33 155 33 155 34 151 c 0,78,79
 52 86 52 86 78 64 c 0,80,81
 98 47 98 47 147.5 31 c 128,-1,82
 197 15 197 15 251 15 c 128,-1,83
 305 15 305 15 335.5 43.5 c 128,-1,84
 366 72 366 72 366 117 c 0,85,86
 366 154 366 154 353 177 c 128,-1,87
 340 200 340 200 309 222 c 0,88,89
 289 236 289 236 227 260.5 c 128,-1,90
 165 285 165 285 141 300 c 0,91,92
 53 351 53 351 53 426 c 0,93,94
 53 492 53 492 105.5 539.5 c 128,-1,95
 158 587 158 587 239 587 c 0,21,22
EndSplineSet
EndChar
StartChar: scedilla
Encoding: 351 351 293
Width: 279
Flags: W
LayerCount: 2
Fore
SplineSet
8 -86 m 1,0,-1
 11 -90 l 1,1,-1
 8 -86 l 1,0,-1
11 -86 m 1,2,3
 45 -4 45 -4 87 -3 c 1,4,-1
 62 -46 l 1,5,6
 92 -59 92 -59 110 -81.5 c 128,-1,7
 128 -104 128 -104 125.5 -131.5 c 128,-1,8
 123 -159 123 -159 95 -181 c 0,9,10
 52 -217 52 -217 -32 -217 c 1,11,-1
 -32 -194 l 1,12,13
 31 -194 31 -194 61 -167 c 0,14,15
 78 -153 78 -153 78.5 -135 c 128,-1,16
 79 -117 79 -117 61 -103 c 0,17,18
 55 -98 55 -98 46.5 -95.5 c 128,-1,19
 38 -93 38 -93 27 -90.5 c 128,-1,20
 16 -88 16 -88 11 -86 c 1,2,3
61 289 m 0,21,22
 78 307 78 307 106 319 c 0,23,24
 128 328 128 328 149 330 c 0,25,26
 163 332 163 332 193 330 c 0,27,28
 203 329 203 329 229 325 c 1,29,-1
 239 261 l 1,30,-1
 239 259 l 1,31,-1
 239 256 l 2,32,33
 239 255 239 255 238 254 c 128,-1,34
 237 253 237 253 235 253 c 2,35,-1
 233 253 l 2,36,37
 232 253 232 253 231.5 254 c 128,-1,38
 231 255 231 255 230 256 c 128,-1,39
 229 257 229 257 229 258 c 0,40,41
 222 271 222 271 204 287 c 0,42,43
 181 305 181 305 156 311 c 0,44,45
 137 315 137 315 125 311 c 0,46,47
 110 306 110 306 99 296 c 0,48,49
 85 282 85 282 85 260 c 0,50,51
 85 244 85 244 100 227 c 0,52,53
 109 217 109 217 130 206 c 0,54,55
 138 202 138 202 153.5 196.5 c 128,-1,56
 169 191 169 191 177 187 c 0,57,58
 198 178 198 178 218 162 c 0,59,60
 235 148 235 148 245.5 132.5 c 128,-1,61
 256 117 256 117 259 95 c 0,62,63
 264 69 264 69 250 45 c 0,64,65
 249 43 249 43 247 41.5 c 128,-1,66
 245 40 245 40 244 38 c 0,67,68
 241 34 241 34 237 31 c 0,69,70
 212 9 212 9 184 0 c 0,71,72
 138 -15 138 -15 87 -7 c 0,73,74
 59 -2 59 -2 40 7 c 1,75,76
 39 20 39 20 35 42 c 0,77,78
 29 67 29 67 25 79 c 1,79,-1
 25 81 l 1,80,-1
 24 83 l 1,81,-1
 24 86 l 2,82,83
 24 88 24 88 25 89 c 0,84,85
 27 91 27 91 28 91 c 2,86,-1
 31 91 l 2,87,88
 32 91 32 91 34 89 c 0,89,90
 38 85 38 85 39 83 c 0,91,92
 52 62 52 62 54 60 c 0,93,94
 69 39 69 39 88 26.5 c 128,-1,95
 107 14 107 14 131 11 c 0,96,97
 157 8 157 8 179 16 c 0,98,99
 189 20 189 20 198.5 29.5 c 128,-1,100
 208 39 208 39 211 49 c 0,101,102
 216 66 216 66 210 81 c 128,-1,103
 204 96 204 96 193 110 c 0,104,105
 175 130 175 130 140 147 c 2,106,-1
 112 159 l 2,107,108
 92 168 92 168 81 174 c 0,109,110
 66 183 66 183 56 195 c 128,-1,111
 46 207 46 207 41 223 c 0,112,113
 36 242 36 242 42 259 c 0,114,115
 47 274 47 274 61 289 c 0,21,22
EndSplineSet
EndChar
StartChar: Tbar
Encoding: 358 358 298
Width: 634
Flags: W
LayerCount: 2
Fore
SplineSet
296 444 m 1,0,-1
 547 444 l 1,1,-1
 547 410 l 1,2,-1
 296 410 l 1,3,-1
 96 410 l 1,4,-1
 96 444 l 1,5,-1
 296 444 l 1,0,-1
60 596 m 0,6,7
 63 596 63 596 70.5 588.5 c 128,-1,8
 78 581 78 581 89 580 c 0,9,10
 137 577 137 577 313 578 c 2,11,-1
 388 578 l 2,12,13
 428 578 428 578 460.5 578.5 c 128,-1,14
 493 579 493 579 520 579 c 2,15,-1
 562 579 l 1,16,-1
 579 579 l 2,17,18
 586 579 586 579 593.5 580.5 c 128,-1,19
 601 582 601 582 606.5 584 c 128,-1,20
 612 586 612 586 613 586 c 0,21,22
 622 586 622 586 618 578 c 0,23,24
 613 569 613 569 606 547 c 0,25,26
 602 534 602 534 595 491 c 0,27,28
 594 480 594 480 581 481 c 0,29,30
 572 484 572 484 573 491 c 2,31,-1
 580 525 l 1,32,33
 560 545 560 545 496 549 c 128,-1,34
 432 553 432 553 358 548 c 1,35,36
 348 196 348 196 353 84 c 0,37,38
 353 75 353 75 354 67 c 128,-1,39
 355 59 355 59 356 52.5 c 128,-1,40
 357 46 357 46 361 41.5 c 128,-1,41
 365 37 365 37 366.5 33.5 c 128,-1,42
 368 30 368 30 374.5 28 c 128,-1,43
 381 26 381 26 383 24.5 c 128,-1,44
 385 23 385 23 395 21.5 c 128,-1,45
 405 20 405 20 407.5 19.5 c 128,-1,46
 410 19 410 19 423.5 18 c 128,-1,47
 437 17 437 17 441 16 c 0,48,49
 451 14 451 14 446 3 c 0,50,51
 442 -6 442 -6 436 -7 c 0,52,53
 431 -7 431 -7 397 -2 c 128,-1,54
 363 3 363 3 337 4 c 0,55,56
 286 5 286 5 196 -9 c 0,57,58
 187 -10 187 -10 184 -3 c 0,59,60
 178 7 178 7 189 9 c 0,61,62
 243 19 243 19 266 31 c 0,63,64
 274 34 274 34 276 42.5 c 128,-1,65
 278 51 278 51 279 82 c 0,66,67
 292 506 292 506 275 546 c 1,68,69
 224 554 224 554 134 549 c 0,70,71
 88 547 88 547 61 534 c 0,72,73
 50 528 50 528 45.5 521 c 128,-1,74
 41 514 41 514 33 493 c 0,75,76
 30 483 30 483 23 486 c 0,77,78
 14 491 14 491 16 496 c 0,79,80
 49 568 49 568 53 588 c 0,81,82
 55 596 55 596 60 596 c 0,6,7
EndSplineSet
EndChar
StartChar: tbar
Encoding: 359 359 299
Width: 289
Flags: W
LayerCount: 2
Fore
SplineSet
122 263 m 1,0,-1
 238 263 l 1,1,-1
 238 242 l 1,2,-1
 122 242 l 1,3,-1
 29 242 l 1,4,-1
 29 263 l 1,5,-1
 122 263 l 1,0,-1
120 206 m 0,6,7
 120 134 120 134 122 98 c 0,8,9
 124 72 124 72 131 59 c 0,10,11
 140 41 140 41 162 33 c 0,12,13
 181 26 181 26 203 31 c 0,14,15
 213 33 213 33 242 43 c 2,16,-1
 252 47 l 2,17,18
 253 47 253 47 256 48 c 128,-1,19
 259 49 259 49 260 50 c 0,20,21
 261 50 261 50 262.5 50.5 c 128,-1,22
 264 51 264 51 265 51 c 2,23,-1
 266 51 l 1,24,-1
 267 50 l 2,25,26
 269 50 269 50 268 48 c 0,27,28
 268 47 268 47 268.5 47 c 128,-1,29
 269 47 269 47 269 46 c 128,-1,30
 269 45 269 45 268 43 c 128,-1,31
 267 41 267 41 266 40 c 128,-1,32
 265 39 265 39 262 37.5 c 128,-1,33
 259 36 259 36 258 35 c 0,34,35
 216 11 216 11 182 1 c 0,36,37
 156 -6 156 -6 138 -5 c 0,38,39
 114 -3 114 -3 97 9 c 128,-1,40
 80 21 80 21 73 43 c 0,41,42
 68 57 68 57 68 86 c 2,43,-1
 72 303 l 1,44,-1
 28 303 l 2,45,46
 25 303 25 303 25 304 c 2,47,-1
 24 305 l 2,48,49
 23 306 23 306 23 307 c 2,50,-1
 23 309 l 1,51,-1
 24 310 l 1,52,-1
 26 313 l 1,53,54
 46 322 46 322 62 333 c 0,55,56
 95 356 95 356 122 394 c 1,57,-1
 126 398 l 2,58,59
 127 399 127 399 128 399 c 2,60,-1
 130 399 l 2,61,62
 131 399 131 399 132 398 c 128,-1,63
 133 397 133 397 133 396 c 128,-1,64
 133 395 133 395 134 393 c 2,65,-1
 134 391 l 1,66,-1
 124 327 l 1,67,-1
 252 330 l 1,68,-1
 255 330 l 1,69,-1
 257 328 l 1,70,-1
 259 326 l 1,71,-1
 259 323 l 1,72,-1
 259 311 l 1,73,-1
 259 308 l 2,74,75
 259 307 259 307 257 305 c 0,76,77
 256 304 256 304 255 304 c 2,78,-1
 254 304 l 2,79,80
 253 303 253 303 252 303 c 2,81,-1
 124 303 l 1,82,83
 120 239 120 239 120 206 c 0,6,7
EndSplineSet
EndChar
StartChar: Uogonek
Encoding: 370 370 305
Width: 677
Flags: W
LayerCount: 2
Fore
SplineSet
403 -199 m 1,0,1
 371 -216 371 -216 343 -218 c 0,2,3
 308 -219 308 -219 283 -203 c 128,-1,4
 258 -187 258 -187 249 -162 c 128,-1,5
 240 -137 240 -137 244.5 -106.5 c 128,-1,6
 249 -76 249 -76 269 -51 c 0,7,8
 285 -29 285 -29 300 -17.5 c 128,-1,9
 315 -6 315 -6 337 -6 c 1,10,11
 333 -12 333 -12 319.5 -29 c 128,-1,12
 306 -46 306 -46 299.5 -58 c 128,-1,13
 293 -70 293 -70 290 -84 c 0,14,15
 279 -136 279 -136 312 -165.5 c 128,-1,16
 345 -195 345 -195 396 -184 c 1,17,-1
 403 -199 l 1,0,1
26 589 m 0,18,19
 27 589 27 589 39.5 588 c 128,-1,20
 52 587 52 587 74 586 c 128,-1,21
 96 585 96 585 122 585 c 0,22,23
 147 585 147 585 173 586 c 128,-1,24
 199 587 199 587 216 588 c 128,-1,25
 233 589 233 589 234 589 c 0,26,27
 239 589 239 589 239.5 588 c 128,-1,28
 240 587 240 587 241 582 c 0,29,30
 243 573 243 573 233 573 c 0,31,32
 189 573 189 573 172.5 561 c 128,-1,33
 156 549 156 549 153 513 c 0,34,35
 147 442 147 442 149 197 c 0,36,37
 149 125 149 125 171 90 c 0,38,39
 217 15 217 15 341 15 c 0,40,41
 407 15 407 15 454.5 34.5 c 128,-1,42
 502 54 502 54 521 79 c 0,43,44
 549 119 549 119 559 215 c 0,45,46
 576 404 576 404 556 540 c 0,47,48
 554 556 554 556 541 563 c 0,49,50
 530 570 530 570 492 570 c 0,51,52
 481 570 481 570 480 579 c 0,53,54
 480 584 480 584 481.5 586.5 c 128,-1,55
 483 589 483 589 487 588 c 0,56,57
 517 584 517 584 567 584 c 0,58,59
 587 584 587 584 607 584.5 c 128,-1,60
 627 585 627 585 639 585.5 c 128,-1,61
 651 586 651 586 652 586 c 0,62,63
 661 586 661 586 660 578.5 c 128,-1,64
 659 571 659 571 651 571 c 0,65,66
 621 572 621 572 608.5 564.5 c 128,-1,67
 596 557 596 557 596 531 c 0,68,69
 594 311 594 311 585 214 c 0,70,71
 575 109 575 109 542 63 c 0,72,73
 517 29 517 29 461.5 8 c 128,-1,74
 406 -13 406 -13 337 -13 c 0,75,76
 259 -13 259 -13 215 1 c 128,-1,77
 171 15 171 15 133 51 c 0,78,79
 105 77 105 77 95 105 c 0,80,81
 83 141 83 141 86 195 c 0,82,83
 94 445 94 445 83 526 c 0,84,85
 79 563 79 563 64 567 c 0,86,87
 53 570 53 570 27 572 c 0,88,89
 18 572 18 572 18.5 580.5 c 128,-1,90
 19 589 19 589 26 589 c 0,18,19
EndSplineSet
EndChar
StartChar: uni0189
Encoding: 393 393 313
Width: 665
Flags: W
LayerCount: 2
Fore
SplineSet
148 306 m 1,0,-1
 311 306 l 1,1,-1
 311 281 l 1,2,-1
 148 281 l 1,3,4
 148 253 148 253 150 197.5 c 128,-1,5
 152 142 152 142 152 115 c 0,6,7
 152 112 152 112 150.5 95.5 c 128,-1,8
 149 79 149 79 150 67 c 128,-1,9
 151 55 151 55 155 49 c 0,10,11
 175 21 175 21 289 21 c 0,12,13
 408 21 408 21 478.5 101.5 c 128,-1,14
 549 182 549 182 549 302 c 0,15,16
 549 410 549 410 469.5 488 c 128,-1,17
 390 566 390 566 282 566 c 2,18,-1
 239 566 l 2,19,20
 225 566 225 566 199 560 c 128,-1,21
 173 554 173 554 162.5 542.5 c 128,-1,22
 152 531 152 531 152 473 c 0,23,24
 152 450 152 450 150 393.5 c 128,-1,25
 148 337 148 337 148 306 c 1,0,-1
94 3 m 1,26,-1
 94 -1 l 1,27,-1
 231 -1 l 1,28,29
 214 6 214 6 190.5 6.5 c 128,-1,30
 167 7 167 7 135.5 5 c 128,-1,31
 104 3 104 3 94 3 c 1,26,-1
21 574 m 1,32,33
 62 574 62 574 152 582.5 c 128,-1,34
 242 591 242 591 310 588 c 128,-1,35
 378 585 378 585 438 561 c 0,36,37
 500 536 500 536 545 488.5 c 128,-1,38
 590 441 590 441 609 383.5 c 128,-1,39
 628 326 628 326 625.5 266 c 128,-1,40
 623 206 623 206 590.5 149.5 c 128,-1,41
 558 93 558 93 499 56 c 0,42,43
 467 35 467 35 429 22.5 c 128,-1,44
 391 10 391 10 356.5 7 c 128,-1,45
 322 4 322 4 282.5 2.5 c 128,-1,46
 243 1 243 1 206 3 c 0,47,48
 172 4 172 4 107.5 1.5 c 128,-1,49
 43 -1 43 -1 15 -1 c 1,50,-1
 15 18 l 1,51,52
 56 18 56 18 69 36 c 0,53,54
 75 42 75 42 77.5 53.5 c 128,-1,55
 80 65 80 65 81 72 c 128,-1,56
 82 79 82 79 82.5 94 c 128,-1,57
 83 109 83 109 83 111 c 0,58,59
 87 157 87 157 87 281 c 1,60,-1
 18 281 l 1,61,-1
 18 306 l 1,62,-1
 87 306 l 1,63,-1
 87 348 l 1,64,-1
 87 398 l 2,65,66
 87 413 87 413 85.5 437.5 c 128,-1,67
 84 462 84 462 82 484 c 0,68,69
 77 521 77 521 66 538.5 c 128,-1,70
 55 556 55 556 21 556 c 1,71,-1
 21 574 l 1,32,33
EndSplineSet
EndChar
StartChar: uni02C9
Encoding: 713 713 321
Width: 316
Flags: W
LayerCount: 2
Fore
SplineSet
29 497 m 1,0,-1
 290 497 l 1,1,-1
 290 464 l 1,2,-1
 29 464 l 1,3,-1
 29 497 l 1,0,-1
EndSplineSet
EndChar
StartChar: dotaccent
Encoding: 729 729 325
Width: 316
Flags: W
LayerCount: 2
Fore
SplineSet
144.5 501 m 128,-1,1
 164 509 164 509 179 496 c 128,-1,2
 194 483 194 483 192 463.5 c 128,-1,3
 190 444 190 444 171 436 c 0,4,5
 151 428 151 428 136.5 441.5 c 128,-1,6
 122 455 122 455 123.5 474 c 128,-1,0
 125 493 125 493 144.5 501 c 128,-1,1
EndSplineSet
EndChar
StartChar: uni030F
Encoding: 783 783 330
Width: 0
Flags: W
LayerCount: 2
Fore
SplineSet
-123 374 m 2,0,1
 -121 370 -121 370 -121 367 c 0,2,3
 -121 354 -121 354 -134 354 c 0,4,5
 -144 354 -144 354 -148 364 c 2,6,-1
 -205 457 l 2,7,8
 -207 459 -207 459 -207 462 c 0,9,10
 -207 471 -207 471 -193 478 c 0,11,12
 -184 481 -184 481 -178 481 c 0,13,14
 -169 481 -169 481 -168 475 c 2,15,-1
 -123 374 l 2,0,1
-43 374 m 2,16,17
 -41 370 -41 370 -41 367 c 0,18,19
 -41 354 -41 354 -54 354 c 0,20,21
 -64 354 -64 354 -68 364 c 2,22,-1
 -125 457 l 2,23,24
 -127 459 -127 459 -127 462 c 0,25,26
 -127 471 -127 471 -113 478 c 0,27,28
 -104 481 -104 481 -98 481 c 0,29,30
 -89 481 -89 481 -88 475 c 2,31,-1
 -43 374 l 2,16,17
EndSplineSet
EndChar
StartChar: uni1D9C
Encoding: 7580 7580 332
Width: 218
Flags: W
LayerCount: 2
Fore
SplineSet
17 479 m 0,0,1
 20 512 20 512 37 538 c 0,2,3
 55 564 55 564 83 580 c 0,4,5
 99 589 99 589 118 593 c 0,6,7
 137 596 137 596 156 593 c 0,8,9
 165 591 165 591 183 584 c 0,10,11
 195 579 195 579 196 578 c 128,-1,12
 197 577 197 577 197.5 577 c 128,-1,13
 198 577 198 577 199 576.5 c 128,-1,14
 200 576 200 576 201 575 c 256,15,16
 202 574 202 574 202 572 c 0,17,18
 202 571 202 571 200 569 c 2,19,-1
 193 558 l 1,20,-1
 189 554 l 2,21,22
 186 550 186 550 185 551 c 0,23,24
 183 550 183 550 180 550 c 2,25,-1
 174 552 l 1,26,-1
 152 561 l 2,27,28
 125 570 125 570 107 570 c 0,29,30
 95 570 95 570 84 566 c 0,31,32
 74 561 74 561 66 553 c 0,33,34
 57 541 57 541 53 528 c 0,35,36
 43 494 43 494 54 458 c 0,37,38
 67 421 67 421 100 404 c 0,39,40
 138 385 138 385 178 401 c 0,41,42
 186 404 186 404 192 408 c 2,43,-1
 193 409 l 1,44,-1
 195 409 l 1,45,-1
 196 409 l 1,46,-1
 197 408 l 1,47,-1
 198 407 l 1,48,-1
 199 406 l 1,49,-1
 199 404 l 2,50,51
 199 403 199 403 198 403 c 2,52,-1
 197 401 l 2,53,54
 193 398 193 398 184 393 c 0,55,56
 163 380 163 380 146 377 c 0,57,58
 108 369 108 369 70 385 c 0,59,60
 52 392 52 392 40 405 c 0,61,62
 25 420 25 420 19 443 c 0,63,64
 15 462 15 462 17 479 c 0,0,1
EndSplineSet
EndChar
StartChar: quotedblbase
Encoding: 8222 8222 340
Width: 396
Flags: W
LayerCount: 2
Fore
SplineSet
45 -93 m 1,0,-1
 52 -108 l 1,1,-1
 45 -93 l 1,0,-1
222 -90 m 1,2,3
 248 -78 248 -78 266 -56.5 c 128,-1,4
 284 -35 284 -35 280 -11 c 0,5,6
 278 -1 278 -1 258 19.5 c 128,-1,7
 238 40 238 40 240 50 c 0,8,9
 242 57 242 57 253.5 67.5 c 128,-1,10
 265 78 265 78 267 81 c 128,-1,11
 269 84 269 84 272 90 c 2,12,-1
 278 100 l 2,13,14
 280 104 280 104 284 106 c 0,15,16
 293 110 293 110 317 88 c 128,-1,17
 341 66 341 66 341 55 c 0,18,19
 337 3 337 3 306.5 -42.5 c 128,-1,20
 276 -88 276 -88 230 -108 c 1,21,-1
 222 -90 l 1,2,3
59 55 m 1,22,23
 65 59 65 59 83.5 82.5 c 128,-1,24
 102 106 102 106 108 106 c 0,25,26
 125 109 125 109 145 84 c 128,-1,27
 165 59 165 59 160 44 c 0,28,29
 156 34 156 34 148 12 c 128,-1,30
 140 -10 140 -10 136 -19 c 128,-1,31
 132 -28 132 -28 123.5 -44 c 128,-1,32
 115 -60 115 -60 106.5 -69.5 c 128,-1,33
 98 -79 98 -79 83.5 -89.5 c 128,-1,34
 69 -100 69 -100 52 -108 c 1,35,-1
 45 -90 l 1,36,37
 120 -42 120 -42 99 -1 c 0,38,39
 94 9 94 9 79 25.5 c 128,-1,40
 64 42 64 42 59 55 c 1,22,23
EndSplineSet
EndChar
StartChar: ellipsis
Encoding: 8230 8230 344
Width: 950
Flags: W
LayerCount: 2
Fore
SplineSet
807 95 m 0,0,1
 816 100 816 100 841.5 75 c 128,-1,2
 867 50 867 50 868 40 c 0,3,4
 869 32 869 32 848.5 10.5 c 128,-1,5
 828 -11 828 -11 820 -15 c 0,6,7
 810 -20 810 -20 782.5 4.5 c 128,-1,8
 755 29 755 29 755 40 c 0,9,10
 755 48 755 48 776 69.5 c 128,-1,11
 797 91 797 91 807 95 c 0,0,1
468 95 m 0,12,13
 478 100 478 100 503.5 75 c 128,-1,14
 529 50 529 50 531 40 c 0,15,16
 532 32 532 32 511.5 10.5 c 128,-1,17
 491 -11 491 -11 482 -15 c 0,18,19
 472 -20 472 -20 445 4.5 c 128,-1,20
 418 29 418 29 418 40 c 0,21,22
 418 48 418 48 438.5 69.5 c 128,-1,23
 459 91 459 91 468 95 c 0,12,13
131 95 m 0,24,25
 140 100 140 100 166 75 c 128,-1,26
 192 50 192 50 193 40 c 0,27,28
 194 32 194 32 173.5 10.5 c 128,-1,29
 153 -11 153 -11 144 -15 c 0,30,31
 134 -20 134 -20 107.5 4.5 c 128,-1,32
 81 29 81 29 81 40 c 0,33,34
 81 48 81 48 101 69.5 c 128,-1,35
 121 91 121 91 131 95 c 0,24,25
EndSplineSet
EndChar
StartChar: uni203B
Encoding: 8251 8251 348
Width: 69
Flags: W
LayerCount: 2
Fore
SplineSet
-171 -38 m 1,0,-1
 -171 -42 l 1,1,-1
 -160 -42 l 1,2,-1
 -171 -38 l 1,0,-1
238 641 m 1,3,-1
 241 637 l 1,4,-1
 238 641 l 1,3,-1
-171 -38 m 1,5,6
 -153 4 -153 4 -107 78.5 c 128,-1,7
 -61 153 -61 153 -56 162 c 2,8,-1
 34 324 l 1,9,-1
 119 482 l 2,10,11
 127 494 127 494 140.5 526.5 c 128,-1,12
 154 559 154 559 164.5 578.5 c 128,-1,13
 175 598 175 598 194.5 617 c 128,-1,14
 214 636 214 636 238 637 c 1,15,16
 228 605 228 605 190.5 546 c 128,-1,17
 153 487 153 487 149 482 c 0,18,19
 -10 193 -10 193 -51 110 c 0,20,21
 -56 100 -56 100 -66 76 c 128,-1,22
 -76 52 -76 52 -84.5 35 c 128,-1,23
 -93 18 -93 18 -105.5 -1 c 128,-1,24
 -118 -20 -118 -20 -134.5 -29.5 c 128,-1,25
 -151 -39 -151 -39 -171 -38 c 1,5,6
EndSplineSet
EndChar
StartChar: .notdef
Encoding: 65536 -1 0
Width: 484
Flags: W
LayerCount: 2
Fore
SplineSet
48 0 m 1,0,-1
 48 516 l 1,1,-1
 436 516 l 1,2,-1
 436 0 l 1,3,-1
 48 0 l 1,0,-1
96 48 m 1,4,-1
 388 48 l 1,5,-1
 388 468 l 1,6,-1
 96 468 l 1,7,-1
 96 48 l 1,4,-1
EndSplineSet
EndChar
StartChar: crossbar.1114113
Encoding: 65537 -1 349
Width: 683
Flags: W
LayerCount: 2
Fore
SplineSet
152 314 m 1,0,-1
 319 314 l 1,1,-1
 319 289 l 1,2,-1
 152 289 l 1,3,-1
 19 289 l 1,4,-1
 19 314 l 1,5,-1
 152 314 l 1,0,-1
EndSplineSet
EndChar
StartChar: crossbar.mini.1114114
Encoding: 65538 -1 350
Width: 440
Flags: W
LayerCount: 2
Fore
SplineSet
317 483 m 1,0,-1
 440 483 l 1,1,-1
 440 459 l 1,2,-1
 317 459 l 1,3,-1
 219 459 l 1,4,-1
 219 483 l 1,5,-1
 317 483 l 1,0,-1
EndSplineSet
EndChar
